<svg width="97" height="133" viewBox="0 0 97 133" fill="none" xmlns="http://www.w3.org/2000/svg"><path d="m74.425 130.133-61.97 2.86c-4.957.191-8.389-3.813-7.817-8.961L14.935 21.067c.572-5.339 4.957-10.106 9.915-10.678L87.963 2.19c5.53-.762 9.343 3.242 8.771 8.771L85.103 119.838c-.381 5.339-5.339 9.915-10.678 10.296Z" fill="#213555"/><path d="m69.85 128.036-61.97 2.86c-4.958.191-8.39-3.813-7.818-8.962L10.36 18.97c.572-5.339 4.957-10.106 9.915-10.678L83.387.093c5.53-.762 9.343 3.242 8.771 8.771L80.527 117.74c-.572 5.53-5.339 10.106-10.678 10.297Z" fill="#213555"/><path d="m72.709 34.796-48.24 5.148c-1.526.191-2.861-1.144-2.67-2.67l1.144-11.821c.19-1.144.953-2.097 2.097-2.097l48.432-5.72c1.525-.191 2.86 1.143 2.669 2.669l-1.335 12.394a2.116 2.116 0 0 1-2.097 2.097Z" fill="#D8C4B6"/><path d="m27.9 67.592-6.292.572c-1.526.191-2.86-1.144-2.67-2.67l.763-6.864c.19-1.144.953-2.097 2.098-2.097l6.292-.572c1.525-.19 2.86 1.144 2.67 2.67l-.763 6.864c0 1.144-.954 1.907-2.098 2.097Zm41.758-3.623-6.864.572c-1.526.19-2.86-1.144-2.67-2.67l.763-7.245c.19-1.144.953-2.097 2.097-2.097l6.865-.763c1.525-.19 2.86 1.144 2.67 2.67l-.764 7.245c0 1.144-.953 2.097-2.097 2.288Zm-21.165 1.716-6.483.572c-1.525.191-2.86-1.144-2.669-2.67l.763-7.054c.19-1.144.953-2.098 2.097-2.098l6.483-.572c1.526-.19 2.86 1.145 2.67 2.67l-.763 7.055a2.116 2.116 0 0 1-2.098 2.097Zm-23.072 25.36-6.292.382c-1.525.19-2.67-1.145-2.67-2.67l.763-6.864c.19-1.144 1.144-2.098 2.288-2.098l6.293-.572c1.525-.19 2.86 1.144 2.669 2.67l-.763 6.864c-.19 1.335-1.144 2.288-2.288 2.288Zm41.759-2.86-6.865.572c-1.526.19-2.67-1.144-2.67-2.67l.763-7.055c.19-1.144 1.144-2.097 2.288-2.097l6.865-.572c1.525-.19 2.86 1.144 2.669 2.67l-.763 7.245c-.19.763-1.144 1.716-2.288 1.907ZM46.014 89.71l-6.483.381c-1.525.19-2.669-1.144-2.669-2.67l.763-7.054c.19-1.144 1.144-2.098 2.288-2.098l6.483-.572c1.525-.19 2.86 1.144 2.67 2.67l-.764 7.055c-.19 1.144-1.144 2.097-2.288 2.288Zm-23.071 24.788-6.102.381c-1.525 0-2.67-1.144-2.479-2.669l.763-6.864c.19-1.144 1.144-2.098 2.288-2.098l6.102-.381c1.525-.191 2.669 1.144 2.478 2.669l-.762 6.865c0 1.144-1.144 2.097-2.288 2.097Z" fill="#DAC0A3"/><path d="m64.51 112.21-6.865.382c-1.525 0-2.67-1.145-2.479-2.67l.763-7.055c.19-1.144 1.144-2.097 2.288-2.097l6.865-.382c1.525-.19 2.669 1.144 2.478 2.67l-.762 7.245c-.191.954-1.145 1.907-2.288 1.907Zm-20.974 1.144-6.483.381c-1.526 0-2.67-1.144-2.48-2.669l.764-6.864c.19-1.144 1.144-2.098 2.288-2.098l6.483-.381c1.525-.191 2.67 1.144 2.479 2.669l-.763 7.055c-.19.954-1.144 1.907-2.288 1.907Z" fill="#EA5455"/></svg>