<svg width="389" height="474" viewBox="0 0 389 474" fill="none" xmlns="http://www.w3.org/2000/svg"><path d="m189.591 473.943-160.2-9.845c-11.992-.716-20.584-11.635-18.436-23.448L71.992 98.593c2.148-11.814 11.813-20.585 23.627-21.837l160.915-15.573c13.067-1.253 23.807 10.203 21.659 23.27l-60.858 367.294c-2.148 13.425-14.141 23.09-27.744 22.196Z" fill="#F8AB5D"/><path d="m180.82 472.869-160.2-9.845C8.629 462.308.038 451.389 2.186 439.576L63.22 97.519c2.15-11.814 11.815-20.584 23.63-21.837l160.915-15.573c13.066-1.253 23.806 10.203 21.658 23.27l-60.858 367.294c-2.148 13.425-14.14 22.912-27.744 22.196Z" fill="#EA5455"/><path d="m342.272 279.555-246.653 4.296c-6.444.179-11.276-5.728-10.202-11.992l18.078-102.922c1.074-5.906 5.907-10.202 11.814-10.739l243.431-16.289c8.234-.537 15.035 6.802 13.603 15.036l-17.899 111.871c-.537 6.086-5.907 10.739-12.172 10.739Zm-27.207 165.928-246.653-10.74c-6.086-.358-10.74-5.907-9.666-11.993l18.616-105.427c1.074-6.086 6.443-10.739 12.708-10.739l243.79-1.969c8.054 0 14.14 7.159 12.887 15.035L328.49 434.743c-1.074 6.444-6.981 11.098-13.425 10.74Z" fill="#F8AB5D"/><path d="m59.463 118.103 206.917-16.467" stroke="#F8AB5D" stroke-width="1.8" stroke-miterlimit="10" stroke-linecap="round" stroke-linejoin="round"/><path d="m164.71 93.223-17.72 1.61c-1.611.18-2.506-1.073-2.327-2.863.358-1.79 1.79-3.222 3.401-3.4l17.72-1.612c1.611-.179 2.685 1.074 2.327 2.864-.358 1.79-1.969 3.222-3.401 3.4Zm11.814-1.074c-1.611.179-2.685-1.074-2.327-2.864.358-1.79 1.79-3.222 3.401-3.4 1.611-.18 2.685 1.073 2.327 2.863-.179 1.79-1.79 3.401-3.401 3.401Z" fill="#213555"/><path d="m375.924 104.321-68.197 5.19c-2.506.179-4.475-1.969-3.938-4.295l6.802-41.348c.358-2.506 2.506-4.475 5.012-4.654l67.48-7.16c2.864-.358 5.191 2.148 4.833 5.012l-6.623 42.6c-.716 2.507-2.864 4.476-5.369 4.655Z" stroke="#4F709C" stroke-width="1.8" stroke-miterlimit="10" stroke-linecap="round" stroke-linejoin="round"/><path d="m312.381 60.288 29.713 19.153a4.876 4.876 0 0 0 5.369 0l38.663-26.492" stroke="#4F709C" stroke-width="1.8" stroke-miterlimit="10" stroke-linecap="round" stroke-linejoin="round"/><path d="m68.233 181.646-56.025 3.043-8.233 5.37c-1.97 1.253-4.296-.358-3.938-2.685l8.77-48.686c.716-3.938 3.938-6.802 7.876-7.16l58.352-4.475c3.759-.358 6.98 3.043 6.265 6.802l-7.518 42.6c-.537 3.043-2.864 5.012-5.549 5.191Z" fill="#4F709C"/><path d="m19.726 145.847 47.254-3.401M17.578 157.84l47.254-3.222M15.43 169.653l24.701-1.432" stroke="#213555" stroke-width="1.8" stroke-miterlimit="10" stroke-linecap="round" stroke-linejoin="round"/><path d="m329.027 268.637-246.653 4.296c-6.444.179-11.277-5.728-10.203-11.993L90.25 158.019c1.074-5.907 5.906-10.203 11.813-10.74l243.432-16.288c8.233-.537 15.035 6.802 13.603 15.035l-17.899 111.871c-.716 6.086-5.907 10.74-12.172 10.74Z" fill="#D8C4B6"/><path d="M146.274 190.775c-1.253 7.338-7.696 13.603-14.319 13.961-6.623.358-10.919-5.37-9.666-12.708 1.253-7.339 7.697-13.604 14.32-13.962 6.622-.358 10.918 5.37 9.665 12.709Z" fill="#EA5455"/><path d="m141.62 237.85-29.355.895c-3.937.179-7.159-3.401-6.443-7.339l.537-3.222c2.327-13.245 13.782-24.522 25.775-24.88 11.992-.537 20.047 10.024 17.72 23.448l-.716 4.654a8.018 8.018 0 0 1-7.518 6.444Z" fill="#EA5455"/><path d="m302.536 192.027-116.883 5.37c-2.506.179-4.475-2.148-3.938-4.475l1.253-7.875c.537-2.685 2.685-4.654 5.37-4.833l117.062-6.086c2.505-.179 4.474 1.969 3.937 4.475l-1.432 8.592c-.358 2.685-2.685 4.832-5.369 4.832Z" fill="#4F709C"/><path d="m184.4 218.519 1.79 5.548 5.549.895-4.833 4.833-.358 6.265-4.654-2.506-5.728 2.864 1.79-6.265-3.222-4.475 5.907-1.432 3.759-5.727Zm26.849-.895 1.969 5.548 5.549.895-4.833 4.833-.179 6.265-5.012-2.506-5.728 2.864 1.79-6.265-3.222-4.654 5.907-1.253 3.759-5.727Zm27.565-1.074 1.969 5.548 5.727 1.074-5.011 4.833-.179 6.444-5.012-2.685-5.907 3.043 1.79-6.444-3.401-4.654 6.265-1.432 3.759-5.727Zm28.102-1.074 1.969 5.728 5.906.894-5.011 5.012-.179 6.444-5.191-2.685-6.086 3.043 1.969-6.623-3.58-4.475 6.265-1.431 3.938-5.907Zm28.818-1.074 1.969 5.728 6.085 1.074-5.19 4.832-.179 6.623-5.37-2.685-6.086 3.043 1.969-6.623-3.58-4.654 6.265-1.431 4.117-5.907Z" fill="#EA5455"/><path d="M301.641 434.564 55.167 423.645c-6.086-.358-10.74-5.907-9.666-11.992l18.615-105.428c1.074-6.085 6.444-10.739 12.709-10.739l243.789-1.969c8.055 0 14.141 7.16 12.888 15.035l-18.258 115.093c-1.253 6.623-6.98 11.277-13.603 10.919Z" fill="#D8C4B6"/><path d="M119.963 343.098c-1.253 7.518-7.697 13.604-14.499 13.425-6.623-.179-10.919-6.265-9.666-13.783 1.253-7.518 7.697-13.424 14.32-13.424 6.802.179 11.276 6.264 9.845 13.782Z" fill="#EA5455"/><path d="m114.771 391.426-29.355-.895c-3.758-.179-6.623-3.579-6.085-7.338l.715-3.759c2.327-13.604 13.783-24.343 25.776-24.164 11.992.179 20.047 11.455 17.541 25.238l-.716 4.475c-.537 3.758-3.938 6.443-7.876 6.443Z" fill="#EA5455"/><path d="m275.866 354.196-116.883-1.611c-2.327 0-4.117-2.148-3.759-4.475l1.432-8.234c.537-2.864 2.864-4.833 5.728-4.833l117.062.895c2.327 0 4.116 2.148 3.758 4.475l-1.432 8.95c-.536 2.685-3.042 4.833-5.906 4.833Z" fill="#4F709C"/><path d="m157.909 374.243 1.79 5.728 5.549 1.253-4.833 4.654-.179 6.443-4.833-3.043-5.728 2.685 1.79-6.444-3.043-4.653 5.728-1.074 3.759-5.549Zm27.028.537 1.79 5.728 5.727 1.432-5.011 4.653-.179 6.444-5.012-2.864-5.728 2.685 1.79-6.444-3.222-5.011 6.086-.895 3.759-5.728Zm27.565.716 1.79 5.728 5.907 1.432-5.012 4.653-.358 6.623-5.012-3.043-5.907 2.685 1.969-6.444-3.4-5.011 6.085-.895 3.938-5.728Z" fill="#EA5455"/><path d="m240.604 376.033 1.968 5.907 5.907 1.432-5.191 4.832-.179 6.623-5.19-3.043-6.086 2.685 1.969-6.623-3.401-5.011 6.265-1.074 3.938-5.728Zm28.639.716 2.148 5.907 5.907 1.432-5.191 4.832-.179 6.802-5.191-3.222-6.265 2.864 1.969-6.802-3.579-4.832 6.443-1.074 3.938-5.907Z" fill="#4F709C"/><path d="M297.345 21.983c-2.684-3.042-7.338-3.221-10.202-.537-3.043 2.685-3.222 7.34-.537 10.203 2.685 3.043 7.339 3.222 10.202.537 3.043-2.685 3.222-7.339.537-10.203Z" fill="#213555"/><path d="m287.68 5.158-1.253-1.432c-4.296-4.654-11.456-5.012-16.11-.716-4.653 4.296-5.011 11.456-.715 16.11l1.252 1.432a13.648 13.648 0 0 1 3.043 5.727c.358 1.611.895 3.58 1.432 5.37 1.074 3.938 5.728 5.37 8.771 2.685l8.055-7.339 8.054-7.338c3.043-2.685 1.969-7.697-1.79-8.95-1.789-.716-3.579-1.253-5.19-1.79-2.148-1.074-3.938-2.148-5.549-3.759Z" fill="#4F709C"/></svg>