<svg width="193" height="184" viewBox="0 0 193 184" fill="none" xmlns="http://www.w3.org/2000/svg"><path d="M123.078 13.506c-1.399 2.937-4.628 4.883-6.888 4.282-1.973-.531-2.332-2.831-1.076-5.131 1.219-2.194 3.659-3.963 5.775-3.998 2.332-.071 3.48 2.052 2.189 4.847Z" fill="#F8AB5D"/><path d="M122.396 12.905c-1.399 2.936-4.628 4.883-6.888 4.281-1.973-.53-2.332-2.83-1.076-5.13 1.22-2.194 3.659-3.964 5.776-3.999 2.331-.07 3.479 2.052 2.188 4.848Z" fill="#EA5455"/><path d="M121.248 12.763c-1.04 2.194-3.48 3.68-5.202 3.29-1.542-.353-1.901-2.122-.932-3.927.932-1.734 2.905-3.114 4.52-3.114 1.829.036 2.619 1.663 1.614 3.751Z" fill="#F8AB5D"/><path d="m116.584 14.638.144-.247c.036-.107.036-.177-.036-.213a.638.638 0 0 1-.395-.247c-.035-.036-.035-.142.036-.248l.036-.035c.072-.107.215-.142.251-.071a.838.838 0 0 0 .467.248c.358.07.717-.142.896-.496.18-.318.072-.566-.215-.778-.394-.283-.538-.566-.287-1.062.216-.424.61-.743 1.076-.814.072 0 .144-.07.216-.177l.143-.247a.27.27 0 0 1 .251-.177c.072 0 .108.07.072.177l-.108.212c-.035.106-.035.177.072.177.144.035.251.07.323.142.072.035.036.141-.036.247l-.036.036c-.071.106-.215.141-.251.07a.684.684 0 0 0-.43-.141c-.395-.035-.646.212-.79.46-.143.283-.035.46.287.707.395.284.539.637.252 1.168-.216.46-.682.814-1.22.885-.072 0-.179.07-.215.177l-.144.283c-.036.106-.179.177-.251.177-.143 0-.179-.107-.108-.213Z" fill="#EA5455"/><path d="m188.476 76.737-13.919-.85c-.969-.07-1.686-.884-1.615-1.84l2.117-28.165c.072-.955.861-1.734 1.865-1.804l14.242-.85a1.73 1.73 0 0 1 1.83 1.84l-2.368 29.864c-.143 1.097-1.076 1.875-2.152 1.805Z" fill="#213555"/><path d="m187.507 76.737-13.919-.85c-.969-.07-1.686-.884-1.614-1.84l2.116-28.165c.072-.955.861-1.734 1.866-1.804l14.242-.85c1.04-.07 1.901.814 1.829 1.84l-2.367 29.864c-.144 1.097-1.077 1.875-2.153 1.805Z" fill="#213555"/><path d="m183.238 46.519-2.655.142c-.215 0-.358-.142-.358-.354 0-.213.179-.39.394-.39l2.655-.141c.215 0 .359.141.359.354 0 .212-.18.389-.395.389Zm1.543-.071h-.072c-.215 0-.359-.141-.359-.354 0-.212.215-.389.431-.424h.071c.216 0 .359.141.359.354-.036.212-.215.424-.43.424Zm-4.162 4.777-3.551.106a.6.6 0 0 1-.61-.672.797.797 0 0 1 .717-.708l3.552-.141a.6.6 0 0 1 .61.672c0 .39-.323.708-.718.743Zm-.932 12.172-3.516-.035c-.359 0-.61-.319-.61-.673.036-.354.359-.672.718-.672l3.515.035c.359 0 .646.319.61.673a.733.733 0 0 1-.717.672Zm-.754 9.837-3.515-.177c-.359 0-.61-.319-.61-.708.036-.354.323-.672.681-.637l3.516.142c.359 0 .646.318.61.707 0 .39-.323.672-.682.672Z" fill="#4F709C"/><path d="m187.112 59.045-10.475.035a.749.749 0 0 1-.753-.814l.323-4.493a.733.733 0 0 1 .717-.673l10.511-.283a.75.75 0 0 1 .754.814l-.359 4.706c0 .39-.323.708-.718.708Z" fill="#D8C4B6"/><path d="m179.436 69.448-3.588-.142c-.43 0-.753-.39-.717-.814l.215-2.689c.036-.39.359-.708.753-.672l3.624.07c.43 0 .753.39.753.814l-.215 2.76a.814.814 0 0 1-.825.672Z" fill="#EA5455"/><path d="m186.252 69.66-3.839-.142c-.43 0-.753-.389-.717-.814l.215-2.795c.036-.39.359-.708.753-.672l3.875.07c.43 0 .753.39.753.814l-.215 2.867c-.072.389-.431.707-.825.672Z" fill="#F4C2C9"/><path d="m100.369 33.18-11.659.53c-.932.035-1.578-.708-1.47-1.663l1.937-19.107c.107-.99.932-1.875 1.865-1.982l11.874-1.521c1.041-.142 1.758.601 1.651 1.628l-2.189 20.204c-.071.99-1.004 1.84-2.009 1.91Z" fill="#213555"/><path d="m99.508 32.79-11.658.53c-.933.036-1.579-.707-1.471-1.662l1.937-19.107c.108-.991.933-1.876 1.865-1.982l11.875-1.521c1.04-.142 1.757.601 1.65 1.627l-2.189 20.204c-.107 1.026-1.004 1.876-2.008 1.911Z" fill="#213555"/><path d="m100.047 15.488-9.076.955a.45.45 0 0 1-.503-.496l.216-2.193c.035-.213.179-.39.394-.39l9.112-1.061a.45.45 0 0 1 .502.495l-.251 2.3c0 .213-.179.39-.394.39Z" fill="#F4C2C9"/><path d="m91.616 21.573-1.184.107a.45.45 0 0 1-.502-.496l.144-1.274c.036-.212.179-.389.394-.389l1.184-.106a.45.45 0 0 1 .502.495l-.143 1.274c0 .213-.18.354-.395.39Zm7.857-.672-1.292.106a.45.45 0 0 1-.502-.495l.143-1.345c.036-.212.18-.389.395-.389l1.291-.141a.451.451 0 0 1 .503.495l-.144 1.345c0 .212-.18.389-.394.424Zm-3.983.319-1.219.106a.45.45 0 0 1-.502-.496l.143-1.309c.036-.212.18-.389.395-.389l1.22-.106a.45.45 0 0 1 .502.495l-.144 1.31c0 .212-.18.389-.394.389Zm-4.34 4.706-1.184.07c-.287.036-.502-.212-.502-.495l.143-1.274c.036-.212.216-.389.43-.389l1.185-.106a.45.45 0 0 1 .502.495l-.144 1.274c-.035.248-.215.425-.43.425Zm7.856-.531-1.291.106c-.287.035-.502-.212-.502-.495l.143-1.31c.036-.212.215-.389.43-.389l1.292-.106a.45.45 0 0 1 .502.495l-.143 1.345c-.036.142-.215.319-.43.354Zm-3.982.283-1.22.07c-.286.036-.502-.212-.502-.495l.144-1.309c.036-.212.215-.389.43-.389l1.22-.106a.45.45 0 0 1 .502.495l-.143 1.31a.531.531 0 0 1-.43.424Zm-4.341 4.6-1.147.07c-.287 0-.503-.212-.467-.495l.144-1.274c.036-.212.215-.389.43-.389l1.148-.07c.287-.036.502.212.466.495l-.143 1.274c0 .212-.215.389-.43.389Z" fill="#D8C4B6"/><path d="m98.504 29.853-1.291.071c-.287 0-.503-.212-.467-.495l.144-1.31c.036-.212.215-.389.43-.389l1.292-.07c.287-.036.502.212.466.495l-.143 1.345a.46.46 0 0 1-.43.353Zm-3.946.213-1.22.07c-.287 0-.502-.212-.466-.495l.143-1.274c.036-.212.216-.389.43-.389l1.22-.07c.288-.036.503.211.467.495l-.144 1.309a.46.46 0 0 1-.43.354Z" fill="#EA5455"/><path d="m111.67 32.967 56.178-5.732a1.659 1.659 0 0 1 1.83 1.77l-4.807 53.924c-.108 1.344-1.292 2.335-2.619 2.264l-54.564-2.901c-.933-.036-1.615-.85-1.579-1.734l3.301-45.256a2.546 2.546 0 0 1 2.26-2.335Z" fill="#F8AB5D"/><path d="m109.625 32.365 56.824-5.802c1.041-.107 1.937.743 1.83 1.804l-4.843 54.526a2.476 2.476 0 0 1-2.655 2.265l-55.21-2.937a1.65 1.65 0 0 1-1.578-1.77l3.336-45.786a2.613 2.613 0 0 1 2.296-2.3Z" fill="#EA5455"/><path d="m115.508 44.113-2.583.141-.323 4.742 2.548-.071.358-4.812Z" fill="#4F709C"/><path d="m112.602 48.996-.179 2.335 2.547-.07.18-2.336-2.548.07Z" fill="#D8C4B6"/><path d="m121.069 37.673-2.583.177-.431 6.121 2.547-.106.467-6.192Z" fill="#4F709C"/><path d="m118.055 43.971-.538 7.219 2.547-.071.538-7.254-2.547.106Z" fill="#D8C4B6"/><path d="m123.436 39.902-.287 3.822 2.547-.142.287-3.857-2.547.177Z" fill="#4F709C"/><path d="m123.149 43.724-.538 7.36 2.547-.071.538-7.43-2.547.14Z" fill="#D8C4B6"/><path d="m130.79 43.299-2.547.142-.179 2.689 2.547-.142.179-2.689Z" fill="#4F709C"/><path d="m128.064 46.13-.359 4.812 2.547-.07.359-4.884-2.547.142Z" fill="#D8C4B6"/><path d="m136.207 39.018-.322 4.033-.18 2.654-2.547.142.18-2.69.322-3.962 2.547-.177Z" fill="#4F709C"/><path d="m133.158 45.847-.394 4.953 2.547-.035.394-5.06-2.547.142Z" fill="#D8C4B6"/><path d="m156.691 36.116-4.556 7.112-3.981-5.343c1.578-1.273 3.479-2.087 5.452-2.229 1.148-.07 2.189.106 3.085.46Z" fill="#213555"/><path d="m160.243 42.662-8.108.566 4.556-7.112c2.512.99 3.982 3.468 3.552 6.546Z" fill="#F4C2C9"/><path d="M160.243 42.662c0 .106-.036.212-.036.319-.753 4.21-4.735 7.713-8.932 8.032l.861-7.785 8.107-.566Z" fill="#D8C4B6"/><path d="m152.136 43.228-.861 7.785c-.216.035-.467.035-.682.035-4.269 0-6.888-3.432-5.991-7.572.466-2.158 1.794-4.14 3.552-5.555l3.982 5.307Z" fill="#fff"/><path d="m159.095 57.063-1.865 17.94-46.888-.85.072-1.38 10.152-6.9a1.307 1.307 0 0 1 1.543.036l3.803 2.76c.574.425 1.435.319 1.865-.283l3.767-4.954a1.336 1.336 0 0 1 2.152.036l3.337 4.564c.43.602 1.291.743 1.901.283a1.362 1.362 0 0 1 1.578-.035l2.368 1.663a1.36 1.36 0 0 0 1.901-.354l5.31-8.067a1.36 1.36 0 0 1 1.901-.354l1.543 1.097c.609.424 1.434.318 1.865-.283l3.695-4.919Z" fill="#4F709C"/><path d="M124.979 62.76h-2.045a.327.327 0 0 0-.251.106l-.466.46c-.144.142-.395.142-.503 0l-.358-.46a.329.329 0 0 0-.251-.106h-1.974c-.179 0-.322-.142-.287-.319l.287-3.82c0-.178.18-.355.359-.355l5.848-.212c.179 0 .322.142.322.318l-.322 3.999c0 .212-.144.389-.359.389Z" fill="#fff"/><path d="m144.136 64.67-2.045-.035a.326.326 0 0 0-.251.106l-.467.46c-.143.142-.358.142-.502-.035l-.359-.46a.326.326 0 0 0-.251-.106l-1.937-.035c-.179 0-.287-.142-.287-.354l.287-3.857c0-.177.179-.354.323-.354l5.847-.142c.18 0 .323.142.323.354l-.323 4.105c0 .212-.179.39-.358.354Z" fill="#F4C2C9"/><path d="M45.877 166.752c-.143.46-.466 2.3-.717 3.999-4.27.707-7.928-.956-7.928-.956.179-1.769.358-3.609.358-3.609 0-.991 8.574-.283 8.287.566Z" fill="#213555"/><path d="M45.16 170.715c-.216 1.486-.43 2.796-.43 2.796s-.97 2.229-3.409 2.229c-2.475 0-4.412-2.017-4.377-2.866.036-.39.144-1.734.287-3.114 0 0 3.624 1.663 7.929.955Z" fill="#F4C2C9"/><path d="M36.98 172.201s.682.743 1.113 1.097c.394.354 1.614-.743 3.336-.531 1.722.213 2.26.885 2.26.885s.717-.141 1.112-.46c0 0 0 1.203.538 2.583.538 1.38 3.264 5.414 3.264 6.192 0 .779-.179 1.38-.753 1.628-.574.248-4.376.283-7.57.354-3.192.07-5.667.247-6.026-.991s1.112-5.095 1.722-7.466c.61-2.406.502-3.255 1.004-3.291Z" fill="#213555"/><path d="M37.519 178.747s3.838-2.017 7.497 0m-6.78-1.981s2.978-.956 6.099 0" stroke="#fff" stroke-width="1.8" stroke-miterlimit="10" stroke-linecap="round" stroke-linejoin="round"/><path d="M83.114 169.194c-4.09 1.38-8.323.53-8.287.566-.143-1.982-.323-4.069-.323-4.069.539-1.239 8.251-1.805 8.323-1.274 0 .283.144 2.618.287 4.777Z" fill="#213555"/><path d="M83.33 172.944s-.539 1.663-2.87 2.513c-2.332.849-5.31-1.451-5.346-2.123-.036-.283-.143-1.911-.287-3.574 0-.035 4.198.814 8.287-.566.108 1.946.215 3.75.215 3.75Z" fill="#F4C2C9"/><path d="M75.043 172.838c-.252 0-.43.354-.574 2.583-.144 2.229-.861 7.148 0 7.891.86.743 18.044.531 20.017.389 1.973-.142 3.05-1.415 2.44-2.265-.61-.849-4.843-2.406-8.574-4.882-3.731-2.477-4.628-3.008-5.058-3.61 0 0 .215-2.016-.897-1.698-1.112.318-1.866 2.937-3.3 3.291-1.4.318-1.615-1.84-4.054-1.699Z" fill="#213555"/><path d="M89.177 176.624s-.969-.283-3.157 2.017m.79-3.538s-1.723-.071-3.696 2.441" stroke="#fff" stroke-width="1.8" stroke-miterlimit="10" stroke-linecap="round" stroke-linejoin="round"/><path d="m38.595 170.255.215-1.415m2.26 1.946.215-1.415m2.511 1.521.252-1.274m32.394.319-.108-1.486m3.086 1.45-.108-1.627m2.798 1.203-.108-1.522" stroke="#4F709C" stroke-width="1.8" stroke-miterlimit="10" stroke-linecap="round" stroke-linejoin="round"/><path d="M36.191 87.528s-.897 3.645-1.004 8.492c-.108 4.848 3.73 20.028 5.13 25.158 1.399 5.166 1.112 5.945.897 6.935-.216.991-2.368 8.846-3.086 16.985-.717 8.138-3.3 14.684-3.013 17.196.395 3.397 1.865 4.387 2.475 4.777.61.389 5.632 1.981 9.04 1.203 0 0 3.624-2.265 4.305-5.449.718-3.185.287-7.042 2.62-17.444 2.295-10.403 3.407-14.685 3.73-18.824.18-2.477.215-9.554.251-14.968.036-3.68.036-6.616.072-6.9.108-.707 1.865.107 2.798-2.158.395-1.026.61-2.972.646-5.06.072-2.654-.108-5.555-.467-7.147-.574-2.937-23.82-5.91-24.394-2.796Z" fill="#213555"/><path d="M85.41 162.931c-.61 1.486-1.722 3.184-2.726 3.574-1.005.389-5.525.99-7.82.778 0 0-3.84-1.097-4.234-3.963-.394-2.866.287-6.05-1.004-12.49-1.292-6.44-2.404-17.834-2.727-21.195-.287-3.361-7.354-13.375-10.654-19.426-3.3-6.05-6.852-17.125-3.91-19.708 2.941-2.619 13.452-3.75 16.573-1.663 0 0 3.623 8.704 7.247 19.107 3.336 9.553 4.018 12.773 4.484 15.533.036.248.072.496.143.743.144.849.323 3.043.574 5.874.574 7.183 1.256 18.329 1.543 20.876.395 3.539 3.121 10.474 2.511 11.96Z" fill="#213555"/><path d="M55.599 105.22s3.803-1.38 7.175-1.91m-7.83 26.542a4.709 4.709 0 0 0-3.706-5.562 4.769 4.769 0 0 0-5.583 3.739 4.709 4.709 0 0 0 3.706 5.562 4.769 4.769 0 0 0 5.583-3.739Zm26.412.208a4.707 4.707 0 0 1-3.659 1.733c-2.618 0-4.735-2.087-4.735-4.706 0-2.583 2.117-4.706 4.7-4.706 1.111 0 2.152.39 2.977 1.062m-43.623-19.178s3.982-3.185 4.018-9.058c0 0-2.511-.142-4.018-.496" stroke="#4F709C" stroke-width="1.8" stroke-miterlimit="10" stroke-linecap="round" stroke-linejoin="round"/><path d="M57.536 111.589c.036-3.68.036-6.616.072-6.899.108-.708 1.865.106 2.798-2.159.395-1.026.61-2.972.646-5.06" stroke="#4F709C" stroke-width="1.8" stroke-miterlimit="10" stroke-linecap="round" stroke-linejoin="round"/><path d="M68.119 47.014s2.942.142 7.677 9.483c4.735 9.306 6.421 12.703 6.421 12.703s3.121-.743 8.216-1.557c5.094-.814 12.268-1.84 12.268-1.84s1.938.035 2.763 2.76c.574 1.981-.323 3.397-.861 4.034a1.62 1.62 0 0 1-.682.495c-2.188.92-14.96 6.228-19.3 7.148-4.771.99-7.103.849-11.336-4.883-4.233-5.733-7.57-10.19-9.112-12.49-1.543-2.407-2.655-15.499 3.946-15.853Z" fill="#4F709C"/><path d="M76.19 78.612s-.25-1.875 3.444-1.875c3.695 0 5.597 2.724 4.7 3.503m-2.117-11.076s-1.542.708-1.865 1.77" stroke="#213555" stroke-width="1.8" stroke-miterlimit="10" stroke-linecap="round" stroke-linejoin="round"/><path d="M102.881 66.086s1.578-.566 1.973-.778c.394-.213 1.255-1.699 1.973-2.619.717-.92 2.762-1.45 3.336-1.344.574.106.789.46.789.46s1.794-.637 3.014-1.133c1.219-.495 3.479-1.592 3.802-.707.18.53-1.219 1.309-2.188 1.84a57.4 57.4 0 0 0-1.973 1.167s.574.283.717 1.026c.144.744.539 1.557-.179 2.69-.215.318.61 1.203-.036 2.016-1.112 1.31-3.802 1.982-5.237 2.407-1.471.424-4.807.636-4.807.636s-1.077-.247-1.543-2.547c-.466-2.3.359-3.114.359-3.114Z" fill="#F4C2C9"/><path d="M110.952 61.805s.251.636.538 1.592c.287.955.503 1.698-.251 1.734-.753.035-1.435-1.097-1.722-1.663" stroke="#EBDFD7" stroke-width="1.8" stroke-miterlimit="10" stroke-linecap="round" stroke-linejoin="round"/><path d="M110.02 64.281s.825 1.628-1.077 3.043m4.7-4.352-2.009.92m-1.005 1.026s-.358.566 0 .885c.359.318 2.332-.39 3.767-1.203" stroke="#EBDFD7" stroke-width="1.8" stroke-miterlimit="10" stroke-linecap="round" stroke-linejoin="round"/><path d="M110.952 65.874s-.61.318-.323.955 1.83.39 3.516-.141" stroke="#EBDFD7" stroke-width="1.8" stroke-miterlimit="10" stroke-linecap="round" stroke-linejoin="round"/><path d="M111.275 67.218s-.897.106-.43.991c.287.53 2.009.354 2.367.495" stroke="#EBDFD7" stroke-width="1.8" stroke-miterlimit="10" stroke-linecap="round" stroke-linejoin="round"/><path d="M100.8 66.404c-.287.496-.646 1.451-.395 3.15.287 2.158 1.543 3.22 2.225 3.644" stroke="#213555" stroke-width="1.8" stroke-miterlimit="10" stroke-linecap="round" stroke-linejoin="round"/><path d="M56.496 34.064s-1.148 5.697-1.794 7.254c-.646 1.556 2.87 3.998 6.386 4.14 3.515.141 3.157-1.876 3.157-1.876l1.04-5.661c0 .035-7.534-5.166-8.79-3.857Z" fill="#F4C2C9"/><path d="M58.074 35.762c-.502 4.317 2.655 6.405 6.17 8.032v-.212l.575-3.008c-2.62-.849-4.915-2.689-6.745-4.812Z" fill="#EBDFD7"/><path d="M41.429 45.493c.789-2.3 3.802-3.68 6.242-3.468 2.511.212 7.318.283 11.946 1.699 7.892 2.406 9.793 3.821 10.26 4.246 2.619 2.477 2.367 6.156.86 16.311-.968 6.688-1.793 8.386-1.578 11.677.215 3.255.825 9.129 1.22 10.332.395 1.203-.61 3.29-1.47 4.034-.862.743-7.821 2.3-14.279 2.158-6.421-.141-16.61-1.875-18.224-2.937-1.614-1.061-2.762-2.901-2.403-4.493.323-1.593.717-3.857 1.722-7.219 1.004-3.361 1.076-7.749 2.654-14.79 1.22-5.201 1.4-12.738 3.05-17.55Z" fill="#EA5455"/><path d="M51.294 71.429c2.01.425 6.6 1.274 12.126 1.38.538 0 1.004.425 1.076.955.107.92.538 2.406 1.83 3.822a.98.98 0 0 1 .286.707c.036 1.486.108 6.511-.897 7.29-1.148.849-13.345 1.627-20.914-.46-.502-.142-.861-.567-.861-1.062.036-1.45.108-4.494.359-6.405.072-.389.323-.707.681-.884 1.184-.53 3.91-1.946 4.88-4.6.286-.566.86-.885 1.434-.743Z" stroke="#F8AB5D" stroke-width="1.8" stroke-miterlimit="10" stroke-linecap="round" stroke-linejoin="round"/><path d="M54.236 40.468c.143-.354.61-.424.897-.177.681.708 2.152 1.77 4.807 2.265 4.053.743 4.448.142 4.448.142s.646.212.718.743c.071.53-.108 1.875-.287 2.547-.216.672-3.23.743-5.633.248-2.224-.46-4.197-1.415-5.632-2.866a.806.806 0 0 1-.18-.92c.216-.53.575-1.31.862-1.982Z" fill="#4F709C"/><path d="M71.921 27.341c0 .708 0 2.618-.717 4.458-.717 1.84-1.901 6.97-4.233 8.634-2.332 1.663-7.426 1.345-9.65-2.937-2.224-4.246-1.507-8.775-.359-12.384 1.148-3.61 5.883-4.918 10.009-3.432 4.161 1.486 4.95 4.069 4.95 5.661Z" fill="#F4C2C9"/><path d="M56.855 29.818s.25.283.61 1.026c.322.743 1.004.319 1.255-1.026.251-1.345.825-2.3 1.256-2.23.43.107 1.937.284 2.834-1.309.896-1.627 1.291-1.38 1.291-1.38s.718-1.698 2.583.744c1.865 2.441 3.05 4.352 5.273 3.963 2.225-.39 4.198-3.963 2.512-7.396-1.722-3.432-6.996-4.246-10.942-3.22-3.946 1.027-5.99.177-8.358 2.159-2.368 1.981-1.794 4.069-1.938 6.404-.143 2.336-1.363 3.574.251 5.662 1.615 2.087 1.184 4.033 2.081 5.201 0 0 .969-3.078.861-5.307-.108-2.23.43-3.291.43-3.291Z" fill="#213555"/><path d="M67.51 31.764c-.073 1.875-1.615 3.361-3.445 3.361-1.865 0-3.372-1.521-3.336-3.432 0-1.946 1.614-3.538 3.516-3.503 1.9.036 3.336 1.663 3.264 3.574Zm5.526 2.091c.498-1.689-.069-3.336-1.267-3.68-1.199-.345-2.574.745-3.073 2.433-.498 1.689.069 3.337 1.267 3.681 1.199.344 2.574-.745 3.073-2.434Z" stroke="#213555" stroke-width="1.8" stroke-miterlimit="10" stroke-linecap="round" stroke-linejoin="round"/><path d="M68.765 32.507s-.036-.708-1.292-.318m-6.457-1.947-4.161-.742" stroke="#213555" stroke-width="1.8" stroke-miterlimit="10" stroke-linecap="round" stroke-linejoin="round"/><path d="M57.213 30.455s-.323-1.875-1.865-1.91c-1.543 0-2.475 4.634 1.363 5.271" fill="#F4C2C9"/><path d="M55.097 29.995c.322-.071.717 0 .968.354.108.177.144.389.144.601 0 .106-.036.177-.036.283 0 .071-.036.142-.036.212-.036.142-.036.248-.036.354 0 .107 0 .177.072.248.108.177.395.319.681.495-.322.071-.681.142-1.04-.106-.18-.106-.287-.354-.323-.53-.036-.213 0-.39.036-.567.036-.07.036-.176.072-.247 0-.071.036-.106.036-.177.036-.106.036-.212 0-.283-.036-.248-.251-.46-.538-.637Zm13.165 1.945c.036.425.108.815.252 1.169.071.176.143.318.25.46.072.106.288.353.324.601.143.53-.036 1.026-.287 1.38-.144.177-.287.354-.503.46-.18.106-.43.212-.645.177.358-.248.538-.566.681-.92.144-.319.18-.672.108-.955-.036-.142-.108-.213-.251-.46a2.112 2.112 0 0 1-.216-.673c0-.424.072-.884.287-1.238Z" fill="#213555"/><path d="M64.675 37.567s-1.578.035-2.368-1.557" stroke="#213555" stroke-width="1.8" stroke-miterlimit="10" stroke-linecap="round" stroke-linejoin="round"/><path d="M63.204 32.436a.527.527 0 0 1-.394-.637l.143-.53a.535.535 0 0 1 .646-.39.527.527 0 0 1 .394.637l-.143.531a.535.535 0 0 1-.646.39Zm5.704 1.451a.527.527 0 0 1-.394-.637l.143-.53a.535.535 0 0 1 .646-.39c.287.07.466.354.395.637l-.144.53a.535.535 0 0 1-.646.39Zm-4.268-3.892c-.395.07-.575-.46-1.149-.425-.897.036-1.399.212-1.47-.177-.037-.283.645-.814 1.506-.849 1.256 0 1.83 1.345 1.112 1.45Zm4.268 1.061c.251.213.61-.177.969.071.538.319.717.602.897.354.143-.212 0-.85-.503-1.168-.825-.566-1.901.354-1.363.743Z" fill="#213555"/><path d="M23.707 90.218s-.466.99-.466 1.592c0 .601.502 6.157.358 7.254-.179 1.096-.502 3.255-.717 3.573-.215.319-1.507-.672-1.543-3.998-.035-3.326-1.183-7.89-.215-8.421.969-.531 2.296-.425 2.583 0Z" fill="#F4C2C9"/><path d="m.21 106.636 8.61-13.375a1.344 1.344 0 0 1 1.865-.39l20.269 12.703c.61.389.825 1.203.394 1.84l-8.61 13.375a1.343 1.343 0 0 1-1.865.389L.604 108.476c-.61-.39-.789-1.203-.394-1.84Z" fill="#213555"/><path d="m23.994 116.861 4.305-6.652c.18-.318.646-.318.86-.035l.683.885c.143.176.143.389.035.601l-3.874 6.015a.465.465 0 0 1-.538.213l-1.112-.213c-.359-.106-.538-.495-.359-.814Z" fill="#4F709C"/><path d="M22.738 89.864s-.215 6.157-.25 7.466c-.037 1.274.035 3.892-.288 5.13-.322 1.239-.86 4.353-1.83 4.565-.968.212.073-3.822.073-4.6 0-.778-.43-2.654-.43-2.654s-.36 1.946-.61 2.796c-.252.849-1.902 3.502-2.548 3.396-.681-.106.144-2.087.646-3.29.466-1.097.646-3.397.646-3.397s-.538 1.344-.969 2.052c-.43.708-1.901 2.902-2.511 2.795-.646-.106.395-2.335 1.004-3.361.61-1.026.646-1.77.646-1.77s-.969.956-1.578 1.416c-.61.46-2.763 1.486-2.942.955-.144-.53.79-1.096 1.686-1.91.897-.779 1.865-2.442 2.08-2.725.216-.247-.394-2.76.575-4.423.968-1.663 1.542-2.335 1.793-3.467.216-1.097 4.7.212 4.807 1.026Z" fill="#F4C2C9"/><path d="M45.16 42.025s-4.09-.389-9.005 5.697c-4.914 6.086-9.757 11.181-11.12 13.587-1.364 2.442-4.377 11.43-5.884 18.541-1.507 7.112-1.65 8.386-1.614 9.165.036.707 3.659 1.698 6.027 1.663.43 0 .825-.248.968-.637.933-2.159 4.198-9.519 5.489-12.208 1.507-3.149 3.264-7.82 3.48-8.138.215-.318 10.009-10.155 11.838-12.738 1.83-2.547 3.587-6.758 3.193-10.438-.43-3.998-2.511-4.53-3.372-4.494Z" fill="#4F709C"/><path d="M25.537 60.495s1.112-1.521 2.51-.141c1.472 1.45.826 4.6-1.219 6.581-1.686 1.628-4.09.956-3.874-.566m-4.915 20.947c.969.46 3.874 1.734 6.708 1.38" stroke="#213555" stroke-width="1.8" stroke-miterlimit="10" stroke-linecap="round" stroke-linejoin="round"/><path d="m111.957 97.365 6.027-19.46a1.31 1.31 0 0 1 1.255-.885l35.659.99c.61 0 1.004.566.861 1.133l-6.996 23.742c-.179.601-.789.991-1.399.885l-34.618-5.273c-.61-.07-.969-.601-.789-1.132Z" fill="#213555"/><path d="m111.634 98.356-20.735 1.911 35.551 8.633a5.472 5.472 0 0 0 2.619 0l19.3-4.918-36.735-5.626Z" fill="#4F709C"/><path d="m126.486 108.9-35.551-8.633c0 .672.466 1.238 1.112 1.415l33.506 8.775c1.399.354 2.906.354 4.305-.071l17.578-5.095a1.373 1.373 0 0 0 1.005-1.345l-19.3 4.919c-.933.247-1.83.247-2.655.035Z" fill="#213555"/><path d="m135.382 81.336-2.511 8.422a.54.54 0 0 1-.502.354l-14.098-1.204a.48.48 0 0 1-.431-.601l2.368-7.714a.494.494 0 0 1 .466-.353l14.242.495c.323 0 .538.318.466.601Z" fill="#fff"/><path d="m132.692 82.858-1.579 5.06-10.977-.779.395-1.132 4.053-1.77 2.296 1.77 5.812-3.15Z" fill="#F4C2C9"/><path d="m124.477 93.19-1.041 3.184a.484.484 0 0 1-.538.319l-6.78-.885c-.287-.035-.502-.318-.394-.601l.896-2.972a.54.54 0 0 1 .503-.354l6.923.707c.323 0 .538.283.431.602Z" fill="#EA5455"/><path d="m135.095 94.251-1.147 3.503a.485.485 0 0 1-.539.319l-6.457-.85a.477.477 0 0 1-.395-.636l1.077-3.291a.465.465 0 0 1 .502-.318l6.529.637c.323.035.538.318.43.636Z" fill="#4F709C"/><path d="m147.292 95.454-1.219 3.893a.485.485 0 0 1-.538.318l-7.785-1.026a.477.477 0 0 1-.395-.637l1.184-3.644a.466.466 0 0 1 .502-.319l7.785.778c.359.036.574.354.466.637Z" fill="#F4C2C9"/><path d="M143.095 83.035c-.251 1.061-1.363 1.875-2.439 1.804-1.041-.07-1.579-.955-1.292-1.946.287-.955 1.292-1.663 2.26-1.663 1.005 0 1.686.814 1.471 1.805Z" fill="#EA5455"/><path d="m145.642 81.867 5.238.176m-13.417 6.547 11.229.778m-3.66-5.413 5.238.212" stroke="#4F709C" stroke-width="1.8" stroke-miterlimit="10" stroke-linecap="round" stroke-linejoin="round"/><path d="m173.768 31.092-27.265 2.087c-.681.036-1.255-.495-1.219-1.203l1.148-15.533c.071-.92.789-1.699 1.722-1.805l27.694-3.715c.718-.106 1.328.495 1.292 1.203l-1.543 17.197c-.072.92-.861 1.662-1.829 1.769Z" fill="#4F709C"/><path d="m172.871 30.526-27.265 2.087c-.681.036-1.255-.495-1.219-1.203l1.148-15.533c.071-.92.789-1.699 1.722-1.805l27.694-3.715c.718-.106 1.328.495 1.292 1.203L174.7 28.756c-.072.956-.861 1.699-1.829 1.77Z" fill="#D8C4B6"/><path d="M154.718 20.123c-.071 1.061-1.004 2.017-2.044 2.123-1.041.106-1.794-.672-1.722-1.699.071-1.061.968-2.017 2.009-2.123 1.076-.141 1.829.637 1.757 1.699Z" fill="#213555"/><path d="m154.18 26.881-3.731.354c-.825.07-1.435-.566-1.363-1.38.144-1.875 1.758-3.574 3.623-3.786 1.866-.212 3.301 1.203 3.122 3.149-.072.814-.79 1.592-1.651 1.663Z" fill="#213555"/><path d="m159.131 18.212 11.623-1.345m-11.91 4.494 11.623-1.238m-11.874 4.387 6.995-.672" stroke="#4F709C" stroke-width="1.8" stroke-miterlimit="10" stroke-linecap="round" stroke-linejoin="round"/><path d="M142.844 3.493c-1.399-1.38-3.372-2.194-5.811-2.477-1.794-.213-3.373 0-4.772.637-1.722.743-3.013 2.052-3.982 3.963l-1.614.672.933.955 4.197.743c.251-.849.753-1.627 1.471-2.37.717-.708 1.686-.991 2.906-.814 1.255.177 2.044.637 2.367 1.38.323.743.359 1.557.108 2.37a3.98 3.98 0 0 1-1.22 1.876 4.755 4.755 0 0 1-1.22.778l-1.434.708c-1.4.672-2.332 1.309-2.799 1.946-.322.46-.717 1.203-1.112 2.265l-1.435.46.933.955 4.305 1.168c.251-.92.538-1.557.789-1.947.395-.636 1.005-1.132 1.794-1.486l1.471-.672c1.506-.672 2.583-1.31 3.228-1.84 1.077-.885 1.794-2.052 2.189-3.574.609-2.335.179-4.246-1.292-5.696Zm-10.977 16.594-.144-.035c-1.255-.354-2.583.425-2.941 1.77-.395 1.344.287 2.76 1.542 3.184l.144.07c1.291.425 2.654-.353 3.049-1.769.395-1.415-.359-2.866-1.65-3.22Z" fill="#F8AB5D"/><path d="M131.365.697c1.399-.601 2.977-.814 4.771-.637 2.439.283 4.376 1.097 5.811 2.477 1.471 1.416 1.902 3.362 1.256 5.768-.395 1.486-1.112 2.689-2.188 3.573-.61.531-1.686 1.133-3.229 1.84l-1.471.673c-.789.354-1.399.849-1.794 1.486-.251.389-.502 1.061-.789 1.946l-4.305-1.168c.61-1.84 1.112-3.043 1.615-3.68.466-.637 1.399-1.274 2.798-1.946l1.435-.707a5.1 5.1 0 0 0 1.219-.779c.61-.53 1.041-1.132 1.22-1.875.215-.85.18-1.628-.107-2.37-.287-.744-1.113-1.204-2.368-1.38-1.22-.178-2.188.105-2.906.813-.717.708-1.22 1.486-1.471 2.37l-4.197-.742c1.005-2.866 2.511-4.706 4.7-5.662Zm-.467 18.824.144.036c1.291.389 2.044 1.804 1.65 3.184-.395 1.416-1.794 2.194-3.049 1.77l-.144-.071c-1.256-.425-1.937-1.84-1.543-3.185.395-1.31 1.687-2.088 2.942-1.734Z" fill="#EA5455"/><path d="M33.752 22.529h13.775l1.4.884a.674.674 0 0 0 1.04-.566v-9.589c0-.99-.79-1.769-1.794-1.769H33.752c-1.005 0-1.794.779-1.794 1.77v7.5c0 .991.79 1.77 1.794 1.77Z" fill="#F4C2C9"/><path d="M45.518 14.638h-9.183m9.183 2.477h-9.183m9.183 2.477h-5.273" stroke="#213555" stroke-width="1.8" stroke-miterlimit="10" stroke-linecap="round" stroke-linejoin="round"/></svg>