<svg width="676" height="532" viewBox="0 0 676 532" fill="none" xmlns="http://www.w3.org/2000/svg"><g opacity=".9"><path d="m585.555 434.258-505.04-14.359c-23.504-.675-42.831-18.503-45.162-41.729L10.975 139.172c-2.72-27.08 18.453-50.69 45.842-51.076l562.149-7.71c28.36-.385 50.601 24.189 47.104 52.137l-32.73 261.163c-3.011 23.707-23.698 41.343-47.785 40.572Z" fill="#EBDFD7"/><mask id="a" style="mask-type:alpha" maskUnits="userSpaceOnUse" x="10" y="80" width="657" height="355"><path d="m585.555 434.258-505.04-14.359c-23.504-.675-42.831-18.503-45.162-41.729L10.975 139.172c-2.72-27.08 18.453-50.69 45.842-51.076l562.149-7.71c28.36-.385 50.601 24.189 47.104 52.137l-32.73 261.163c-3.011 23.707-23.698 41.343-47.785 40.572Z" fill="#EAF9F3"/></mask><g mask="url(#a)"><path d="M173.365 477.721h-403.547c-8.061 0-14.568-6.457-14.568-14.456V236.12c0-7.998 6.507-14.455 14.568-14.455h403.547c8.061 0 14.568 6.457 14.568 14.455v227.049c0 7.999-6.507 14.552-14.568 14.552Zm533.303-15.323H299.625c-8.061 0-14.569-6.457-14.569-14.456V116.14c0-7.999 6.508-14.456 14.569-14.456h407.043c8.061 0 14.568 6.457 14.568 14.456v331.802c0 7.999-6.507 14.456-14.568 14.456ZM61.867 221.665H42.151c-2.136 0-3.885-1.542-4.176-3.662l-1.554-13.877c-.291-2.41 1.651-4.626 4.176-4.626h22.824c2.526 0 4.37 2.12 4.177 4.626l-1.554 13.877c-.292 2.12-2.04 3.662-4.177 3.662Z" stroke="#D8C4B6" stroke-width="1.8" stroke-miterlimit="10" stroke-linecap="round" stroke-linejoin="round"/><path d="M49.63 199.596s-7.77-.771-9.324-11.179c0 0 6.993 2.024 9.227 6.939 0 0 .971-10.986 6.216-12.046 0 0 2.33 8.191-1.36 12.239 0 0 2.816-4.626 10.004-4.53 0 0-1.846 6.553-8.936 8.481" fill="#D8C4B6"/><path d="M170.354 269.561H82.749c-2.234 0-4.08-1.831-4.08-4.048v-26.405c0-2.217 1.846-4.048 4.08-4.048h87.605c2.234 0 4.079 1.831 4.079 4.048v26.405c0 2.217-1.845 4.048-4.079 4.048Z" stroke="#D8C4B6" stroke-width="1.8" stroke-miterlimit="10" stroke-linecap="round" stroke-linejoin="round"/><path d="M136.555 244.408h-20.201c-.777 0-1.457-.674-1.457-1.445s.68-1.446 1.457-1.446h20.201c.777 0 1.457.675 1.457 1.446 0 .771-.583 1.445-1.457 1.445Z" fill="#D8C4B6"/><path d="M170.354 313.699H82.749c-2.234 0-4.08-1.831-4.08-4.048v-26.405c0-2.217 1.846-4.048 4.08-4.048h87.605c2.234 0 4.079 1.831 4.079 4.048v26.405c0 2.217-1.845 4.048-4.079 4.048Z" stroke="#D8C4B6" stroke-width="1.8" stroke-miterlimit="10" stroke-linecap="round" stroke-linejoin="round"/><path d="M136.555 288.546h-20.201c-.777 0-1.457-.675-1.457-1.446 0-.771.68-1.445 1.457-1.445h20.201c.777 0 1.457.674 1.457 1.445s-.583 1.446-1.457 1.446Z" fill="#D8C4B6"/><path d="M620.131 344.923h-87.605c-2.234 0-4.079-1.831-4.079-4.048V314.47c0-2.217 1.845-4.048 4.079-4.048h87.605c2.234 0 4.079 1.831 4.079 4.048v26.405c.097 2.217-1.748 4.048-4.079 4.048Z" stroke="#D8C4B6" stroke-width="1.8" stroke-miterlimit="10" stroke-linecap="round" stroke-linejoin="round"/><path d="M586.429 319.673h-20.201c-.777 0-1.457-.674-1.457-1.445s.68-1.446 1.457-1.446h20.201c.777 0 1.457.675 1.457 1.446 0 .867-.68 1.445-1.457 1.445Z" fill="#D8C4B6"/><path d="M507.663 344.923h-87.605c-2.234 0-4.08-1.831-4.08-4.048V314.47c0-2.217 1.846-4.048 4.08-4.048h87.605c2.233 0 4.079 1.831 4.079 4.048v26.405c.097 2.217-1.748 4.048-4.079 4.048Z" stroke="#D8C4B6" stroke-width="1.8" stroke-miterlimit="10" stroke-linecap="round" stroke-linejoin="round"/><path d="M473.961 319.673h-20.202c-.777 0-1.457-.674-1.457-1.445s.68-1.446 1.457-1.446h20.202c.777 0 1.457.675 1.457 1.446 0 .867-.68 1.445-1.457 1.445Z" fill="#D8C4B6"/><path d="M58.662 269.561h-87.605c-2.233 0-4.079-1.831-4.079-4.048v-26.405c0-2.217 1.845-4.048 4.08-4.048h87.604c2.234 0 4.08 1.831 4.08 4.048v26.405c0 2.217-1.846 4.048-4.08 4.048Z" stroke="#D8C4B6" stroke-width="1.8" stroke-miterlimit="10" stroke-linecap="round" stroke-linejoin="round"/><path d="M24.863 244.408H4.662c-.777 0-1.457-.674-1.457-1.445s.68-1.446 1.457-1.446h20.201c.777 0 1.457.675 1.457 1.446 0 .771-.582 1.445-1.457 1.445Z" fill="#D8C4B6"/><path d="M58.662 313.699h-87.605c-2.233 0-4.079-1.831-4.079-4.048v-26.405c0-2.217 1.845-4.048 4.08-4.048h87.604c2.234 0 4.08 1.831 4.08 4.048v26.405c0 2.217-1.846 4.048-4.08 4.048Z" stroke="#D8C4B6" stroke-width="1.8" stroke-miterlimit="10" stroke-linecap="round" stroke-linejoin="round"/><path d="M24.863 288.546H4.662c-.777 0-1.457-.675-1.457-1.446 0-.771.68-1.445 1.457-1.445h20.201c.777 0 1.457.674 1.457 1.445s-.582 1.446-1.457 1.446Z" fill="#D8C4B6"/><path d="M747.751 202.776h-441.91c-2.428 0-4.468-2.023-4.468-4.433v-76.807c0-2.409 2.04-4.433 4.468-4.433h441.91c2.428 0 4.468 2.024 4.468 4.433v76.807c0 2.41-2.04 4.433-4.468 4.433Zm0 95.311h-441.91c-2.428 0-4.468-2.024-4.468-4.433v-76.808c0-2.409 2.04-4.433 4.468-4.433h441.91c2.428 0 4.468 2.024 4.468 4.433v76.808c0 2.409-2.04 4.433-4.468 4.433Z" stroke="#D8C4B6" stroke-width="1.8" stroke-miterlimit="10" stroke-linecap="round" stroke-linejoin="round"/><path d="M340.708 154.302h-9.615v48.474h9.615v-48.474Z" stroke="#D8C4B6" stroke-width="1.8" stroke-miterlimit="10" stroke-linecap="round" stroke-linejoin="round"/><path d="M350.614 167.505h-10.003v35.271h10.003v-35.271Zm279.909 82.011h-9.615v48.474h9.615v-48.474Z" stroke="#D8C4B6" stroke-width="1.8" stroke-miterlimit="10" stroke-linecap="round" stroke-linejoin="round"/><path d="M640.43 262.719h-10.004v35.271h10.004v-35.271Zm-29.525-13.203h-9.616v48.474h9.616v-48.474Z" stroke="#D8C4B6" stroke-width="1.8" stroke-miterlimit="10" stroke-linecap="round" stroke-linejoin="round"/><path d="m601.418 251.31-9.169-2.872-14.709 46.225 9.169 2.872 14.709-46.225Zm19.49 11.409h-10.003v35.271h10.003v-35.271ZM500.767 154.302h-9.615v48.474h9.615v-48.474Zm10.003 13.203h-10.003v35.271h10.003v-35.271Zm-104.892-13.203h-9.616v48.474h9.616v-48.474Z" stroke="#D8C4B6" stroke-width="1.8" stroke-miterlimit="10" stroke-linecap="round" stroke-linejoin="round"/><path d="m396.412 156.019-9.169-2.873-14.71 46.225 9.169 2.873 14.71-46.225Zm19.372 11.486H405.78v35.271h10.004v-35.271Z" stroke="#D8C4B6" stroke-width="1.8" stroke-miterlimit="10" stroke-linecap="round" stroke-linejoin="round"/><path d="m630.329 160.566 1.068-14.359c.098-.964-.679-1.735-1.651-1.735h-8.352c-.971 0-1.651.771-1.651 1.735l1.068 14.359s-8.741 5.59-8.644 10.216c.097 3.565 2.234 20.623 3.205 28.14.291 2.12 2.04 3.662 4.176 3.662h12.044c2.136 0 3.885-1.542 4.176-3.662.971-7.517 3.108-24.575 3.205-28.14.097-4.626-8.644-10.216-8.644-10.216Zm-38.655 0 1.068-14.359c.098-.964-.679-1.735-1.651-1.735h-8.352c-.972 0-1.651.771-1.651 1.735l1.068 14.359s-8.741 5.59-8.644 10.216c.097 3.565 2.234 20.623 3.205 28.14.291 2.12 2.04 3.662 4.176 3.662h12.044c2.136 0 3.885-1.542 4.176-3.662.971-7.517 3.108-24.575 3.205-28.14.097-4.626-8.644-10.216-8.644-10.216Z" fill="#D8C4B6"/><path d="M9.615 389.06h928.303" stroke="#D8C4B6" stroke-width="1.8" stroke-miterlimit="10" stroke-linecap="round" stroke-linejoin="round"/></g><path d="M106.933 306.085 94.598 477.239a2.542 2.542 0 0 0 2.525 2.698c1.36 0 2.428-.963 2.525-2.313l14.86-171.539h-7.575Zm499.31 0 12.334 171.154a2.542 2.542 0 0 1-2.525 2.698c-1.36 0-2.428-.963-2.525-2.313l-14.86-171.539h7.576Z" fill="#D8C4B6"/><path d="M214.934 94.263s8.643 17.444 14.859 33.152c6.216 15.708 7.285 30.26 1.263 33.344-8.45 4.337-17.871 4.626-28.749-15.805-10.877-20.43-2.719-66.592 12.627-50.69Z" fill="#213555"/><path d="M168.412 412.864c.097 1.156-3.4 20.719-3.206 22.165.292 1.446-14.859 5.204-22.144-1.253 0 0 1.069-25.538 1.069-29.393 0-3.758 23.601-2.313 24.281 8.481Z" fill="#F4C2C9"/><path d="M165.498 431.559s1.651 7.228 4.079 11.661 15.831 16.865 14.374 21.105c-1.457 4.241-13.791 4.626-23.309 4.241-9.518-.386-13.792-3.662-17.58-10.408-3.885-6.746-1.262-11.276-.777-24.382 0 0 .292-2.216.874-2.602 0 0 1.943 3.373 4.177 3.662 2.234.193 4.467-5.108 9.906-5.686 5.439-.482 6.119 4.819 6.702 4.819.68 0 1.36-.868 1.554-2.41Z" fill="#4F709C"/><path d="M174.336 452.279s-6.799-2.891-19.425 1.831m16.997-7.131s-6.799-2.891-19.425 1.831" stroke="#213555" stroke-width="1.8" stroke-miterlimit="10" stroke-linecap="round" stroke-linejoin="round"/><path d="M216.973 409.491c.097 1.156-3.399 20.719-3.205 22.165.291 1.445-14.86 5.204-22.144-1.253 0 0 1.068-25.538 1.068-29.393 0-3.758 23.698-2.313 24.281 8.481Z" fill="#F4C2C9"/><path d="M214.157 428.09s1.651 7.228 4.079 11.661 15.831 16.865 14.374 21.105c-1.457 4.24-13.792 4.626-23.31 4.24-9.518-.385-13.791-3.662-17.579-10.408-3.885-6.746-1.263-11.275-.777-24.381 0 0 .291-2.217.874-2.602 0 0 1.943 3.373 4.177 3.662 2.233.192 4.467-5.108 9.906-5.686 5.439-.482 6.119 4.818 6.702 4.818.679.097 1.359-.771 1.554-2.409Z" fill="#4F709C"/><path d="M222.898 448.906s-6.799-2.891-19.425 1.831m17.094-7.131s-6.799-2.891-19.425 1.831" stroke="#213555" stroke-width="1.8" stroke-miterlimit="10" stroke-linecap="round" stroke-linejoin="round"/><path d="M124.997 201.524s-2.913 16.864 5.439 56.473c2.526 12.046 4.565 27.754 6.022 44.234 3.399 37.584.486 75.939-1.263 91.069-2.525 21.684 8.644 25.828 20.688 26.791 12.043.964 16.511-4.529 17.093-10.6.583-6.072 7.77-87.023 10.49-105.333 2.816-18.31 3.01-43.367 2.136-47.029-.874-3.662 9.615-2.891 5.245-48.185-4.273-45.487-62.353-19.467-65.85-7.42Z" fill="#EA5455"/><path d="M208.62 203.74s14.569 61.87 16.317 81.144c1.748 19.274-1.845 113.813-1.748 119.499.194 5.686-5.148 10.794-18.162 11.083-13.015.289-18.259-8.288-18.162-12.914.291-15.419.486-76.807-.486-86.251-.971-9.445-15.151-55.895-17.968-60.328-2.816-4.53-9.032-37.777 3.206-43.56 12.237-5.782 31.467-14.455 37.003-8.673Z" fill="#EA5455"/><path d="M190.264 80.29s-24.863-.868-36.421-2.41c-11.558-1.541-33.119-1.638-41.666 15.613-8.547 17.25 17.968 25.73 17.288 37.969-.583 12.143-2.428 32.959-2.428 32.959s-2.428 23.225-5.147 31.995c-2.72 8.77 2.428 13.203 4.856 13.974 2.428.771 27.68 5.878 46.813 4.818 19.133-1.06 34.77-5.397 36.13-9.637 1.457-4.24-.874-16.672 0-29.682.874-13.01 3.399-35.753 3.399-44.427 0-8.673 4.274-30.645 0-39.704-4.273-9.059-14.568-11.18-22.824-11.468Z" fill="#4F709C"/><path d="M157.631 70.075s-3.982.578-5.342 3.18c-.874 1.638-1.942 4.626-1.845 7.71.097 3.083 4.759 11.564 18.259 13.106 13.597 1.542 18.356-5.012 18.939-7.517.583-2.506-.389-9.252-1.36-10.408-.874-1.253-2.331-2.506-7.187-3.084-4.759-.771-19.91-3.566-21.464-2.987Z" fill="#213555"/><path d="M177.153 128.668s3.982-4.144 6.021-7.228c2.04-3.084 4.759-6.457 6.993-7.71 2.234-1.349 6.896-2.12 8.158-2.794 1.36-.675 2.72 1.734 0 3.951-2.719 2.216-1.554 8.673-5.341 12.142-3.885 3.47-14.472 5.59-15.831 1.639Z" fill="#B28D93"/><path d="m205.415 71.617 49.048-3.18a2.293 2.293 0 0 1 2.428 2.601l-12.044 73.434c-.291 1.639-1.554 2.892-3.205 3.084l-46.91 6.361c-1.457.192-2.72-1.06-2.622-2.506l9.906-76.518c.097-1.831 1.554-3.18 3.399-3.276Z" fill="#EA5455"/><path d="m240.088 71.81-18.55.963c-.68 0-1.263-.578-1.166-1.253l.292-1.927c.097-.771.777-1.35 1.457-1.35l18.55-.963c.68 0 1.263.578 1.166 1.253l-.292 1.927c-.097.771-.777 1.253-1.457 1.35Z" fill="#4F709C"/><path d="M131.893 146.207s6.119-24.382 7.673-33.73c1.554-9.347-4.371-19.755-13.5-22.068-10.684-2.602-13.986 2.987-13.986 2.987s-4.273 7.421-8.547 30.742c-4.273 23.322-6.701 45.005 8.547 50.306 15.248 5.3 46.522-11.95 56.526-19.371 10.003-7.324 13.694-10.504 15.637-10.986 1.942-.482 9.615 1.542 13.694-2.988 4.079-4.529 7.576-8.095 7.964-8.095.389 0 10.101 1.446 11.752.193 1.845-1.445-.874-2.891-2.817-3.18-1.845-.289-7.478-2.12-7.478-2.12s4.37-1.349 7.478-2.506c3.108-1.253 6.313-1.831 6.119-3.469-.194-1.735-2.137-1.446-4.079-1.542-1.942-.097-4.565.482-4.565.482s5.342-1.446 6.702-2.988c1.457-1.638.194-2.891-2.623-2.602-2.233.193-5.341.964-5.341.964s5.438-.482 5.05-2.891c-.291-1.638-5.148-.771-8.353-.386-3.205.386-7.284 1.157-10.78 2.024-2.331.578-4.468 1.253-5.925 1.928-3.399 1.638-11.946 9.733-13.306 11.371-1.359 1.639-18.453 4.337-32.439 7.421-13.986 2.987-22.144 5.589-26.417 9.54l13.014.964Z" fill="#B28D93"/><path d="M207.941 112.863c-3.205.386-7.285 1.156-10.781 2.024-2.331.578-4.468 1.253-5.925 1.927" stroke="#896068" stroke-width="1.8" stroke-miterlimit="10" stroke-linecap="round" stroke-linejoin="round"/><path d="M180.649 146.207c-2.428 1.735-6.119 4.626-11.946 8.866-10.004 7.324-41.277 24.575-56.526 19.371-15.151-5.301-12.723-26.984-8.547-50.306 4.274-23.321 8.547-30.742 8.547-30.742s3.302-5.59 13.986-2.987c9.032 2.216 15.054 12.624 13.5 22.068-.971 5.879-3.788 17.829-5.73 25.828 3.399-.964 7.284-1.831 11.752-2.795 9.906-2.12 21.464-4.144 27.777-5.686-.097.289-1.36 5.493 1.068 10.408 2.234 5.011 6.119 5.975 6.119 5.975Z" fill="#213555"/><path d="M102.659 165.288s-.194-5.204 6.216-4.529c6.313.675 23.018 6.65 18.259 13.685m38.558-42.885s-1.457 5.589 1.166 11.275c2.622 5.59 7.381 8.288 7.381 8.288" stroke="#4F709C" stroke-width="1.8" stroke-miterlimit="10" stroke-linecap="round" stroke-linejoin="round"/><path d="M156.854 54.944s-.292 12.336-1.069 20.045c-.777 7.71 13.695 10.89 20.688 9.541 6.993-1.35 8.061-3.47 8.061-3.47s-.583-10.407 0-14.166c.583-3.758-27.583-15.997-27.68-11.95Z" fill="#B28D93"/><path d="M184.34 78.266c-.097-1.542-.097-3.566-.097-5.59-5.925.29-11.17-5.107-15.443-9.54-1.165 9.251 6.896 15.226 15.54 15.13Z" fill="#896068"/><path d="M195.8 38.562s4.856-2.506 6.313-10.408c1.457-8-.291-19.66-5.73-21.01-5.536-1.445-1.651 15.227-5.342 18.311-3.69 2.988 4.759 8.77 4.759 13.107Z" fill="#213555"/><path d="M195.606 24.973s1.651 6.65 1.068 16.383c-.582 9.83 1.36 26.406-9.421 31.224-10.78 4.819-25.057-.193-30.885-15.997-5.827-15.805-5.924-31.513 3.011-38.26 9.033-6.842 33.022-5.878 36.227 6.65Z" fill="#B28D93"/><path d="M157.534 43.958s3.302-1.06 3.399-6.938c0-5.975 3.205-10.89 9.615-9.156 6.41 1.735 15.346 6.65 20.59 6.553 6.216-.192 8.159-6.842 8.644-15.033.486-8.288-2.234-13.3-5.439-12.432-3.205.867-5.924 3.566-9.906-1.446-5.439-6.745-10.295-6.553-14.18-3.373-6.799 5.686-5.245 8.674-11.461 6.265-3.593-1.446-6.118-1.06-7.867 5.589-1.748 6.65-1.068 8.48-5.244 7.902-4.274-.578-1.554 21.395 5.244 26.31.097 0 5.342-4.723 6.605-4.24Zm33.41 1.638c.389 1.06.583 2.12.874 3.084.292.964.583 2.024.874 2.795.195.482.486 1.157.486 1.831 0 .675-.097 1.446-.583 1.928-.874 1.06-2.137 1.349-3.302 1.252.971-.578 1.845-1.252 2.137-1.927.291-.675.097-1.446-.389-2.313a8.386 8.386 0 0 1-.68-3.373 17.82 17.82 0 0 1 .583-3.277Z" fill="#213555"/><path d="M181.523 37.212c.874.097 1.554-.674 1.263-1.542-.292-.867-.486-1.638-1.457-1.83-2.04-.483-6.41-.097-9.033 1.83-2.622 1.928-.097 2.313 3.206 1.639 2.33-.386 4.467-.29 6.021-.097Z" fill="#213555"/><path d="M177.055 56.583c5.311 0 9.616-4.444 9.616-9.926s-4.305-9.926-9.616-9.926c-5.31 0-9.615 4.444-9.615 9.926s4.305 9.926 9.615 9.926Zm20.105-.868c3.433 0 6.216-4.055 6.216-9.058s-2.783-9.06-6.216-9.06c-3.433 0-6.216 4.056-6.216 9.06 0 5.003 2.783 9.058 6.216 9.058Z" stroke="#213555" stroke-width="1.8" stroke-miterlimit="10" stroke-linecap="round" stroke-linejoin="round"/><path d="M191.138 44.633s-1.262-1.735-4.662 0m-18.647-.771-11.558-.867m26.612 20.334s-4.371-.29-6.605-4.53" stroke="#213555" stroke-width="1.8" stroke-miterlimit="10" stroke-linecap="round" stroke-linejoin="round"/><path d="M178.512 50.319c.874.096 1.651-.579 1.749-1.542l.097-.964c.097-.867-.583-1.638-1.554-1.735-.874-.096-1.651.579-1.749 1.542l-.097.964c-.097.964.583 1.638 1.554 1.735Zm14.375.289c.874.096 1.651-.578 1.748-1.542l.097-.964c.097-.867-.583-1.638-1.554-1.735-.874-.096-1.651.579-1.748 1.542l-.097.964a1.77 1.77 0 0 0 1.554 1.735Z" fill="#213555"/><path d="M157.145 44.247s-2.816-4.818-6.604-3.565c-3.788 1.252-3.691 7.035-1.845 10.504 2.33 4.433 7.672 5.782 10.489 5.3" fill="#B28D93"/><path d="M150.444 47.717c-.195-.482-.292-.964-.195-1.542 0-.29.195-.578.389-.868.291-.289.68-.481 1.068-.481.68 0 1.36.289 1.749.77.388.386.679.868.971 1.35.485.867.68 1.734.971 2.505.194.386.291.675.486.868.194.192.679.192 1.165.192-.291.386-.777.771-1.457.675-.68-.193-1.068-.578-1.457-.964-.582-.867-.971-1.638-1.359-2.409-.389-.77-.777-1.35-1.166-1.446-.097 0-.194-.096-.291 0-.097 0-.194.097-.292.29-.194.096-.388.578-.582 1.06Z" fill="#213555"/><path d="M207.941 127.993s-1.846-.482-3.205-.578c-1.36-.193-2.331 0-2.331 0m10.003-6.65s-9.906 2.12-10.78 2.795m9.615-7.42s-6.799 1.445-7.187 1.541a345.367 345.367 0 0 1-3.594 1.061" stroke="#896068" stroke-width="1.8" stroke-miterlimit="10" stroke-linecap="round" stroke-linejoin="round"/><path d="M133.933 241.132s11.363-4.819 11.363-21.202" stroke="#213555" stroke-width="1.8" stroke-miterlimit="10" stroke-linecap="round" stroke-linejoin="round"/><path d="m24.96 375.279-5.633 116.03c-.097 1.349.972 2.409 2.331 2.409 1.166 0 2.234-.867 2.331-2.12l9.81-116.415H24.96v.096Zm55.458 0 5.633 116.03c.097 1.349-.971 2.409-2.33 2.409-1.166 0-2.235-.867-2.332-2.12l-9.81-116.415h8.839v.096Zm-17.579-22.84-.097 116.127c0 1.349-1.069 2.313-2.428 2.313-1.166-.097-2.137-1.061-2.234-2.217L54 351.958l8.839.481Z" fill="#D8C4B6"/><path d="M84.303 364.004c-8.935-1.253-20.396-2.024-33.022-2.024-12.529 0-24.086.771-33.022 2.024H0v6.553c0 4.722 22.921 8.577 51.281 8.577 28.263 0 51.281-3.855 51.281-8.577v-6.553h-18.26Z" fill="#213555"/><path d="M51.281 372.581c28.322 0 51.281-3.84 51.281-8.577s-22.96-8.577-51.281-8.577c-28.322 0-51.281 3.84-51.281 8.577s22.96 8.577 51.281 8.577Z" fill="#4F709C"/><path d="M87.896 454.592s-1.262 9.252-3.01 12.046c-1.846 2.795-4.662 9.734-4.565 11.372.291 2.988 9.615 10.601 15.054 15.227 5.439 4.625 9.906 4.818 20.007 5.589 10.101.771 14.18-.771 14.18-3.855 0-2.987-2.039-4.529-6.507-9.637-4.371-5.107-11.461-12.335-13.791-16.479-2.331-4.144 2.33-10.408 4.467-14.263 2.137-3.855-21.367-10.89-25.835 0Z" fill="#213555"/><path d="M113.731 454.592c-2.039 3.855-6.701 10.119-4.467 14.263.194.385.485.771.679 1.156-.582-.771-2.622-3.276-6.604-3.276-4.662 0-7.187 5.396-10.78 2.794-2.332-1.734-5.342-3.662-7.09-4.722 1.36-3.758 2.233-10.311 2.233-10.311 4.662-10.794 28.166-3.759 26.029.096Z" fill="#F4C2C9"/><path d="M84.4 297.219s4.08 9.83 6.119 12.625c2.04 2.795 52.058 7.613 57.4 27.755 5.341 20.141-26.321 105.14-29.72 113.138-3.399 7.999-3.885 15.034-15.346 13.878-11.557-1.253-20.687-8.481-18.453-16.48 2.234-7.998 10.975-29.296 14.569-54.834 3.69-25.539 16.608-30.935-6.702-38.741-23.31-7.806-41.86-5.301-35.45-26.888 6.41-21.587 23.115-32.766 27.583-30.453Z" fill="#4F709C"/><path d="M120.53 468.662s4.079 14.456 4.079 15.998c0 1.638-2.622 13.973-2.04 17.635.583 3.663 5.634 5.686 12.335 11.758 7.187 6.649 13.015 6.264 21.853 5.589 7.575-.578 17.676-4.24 18.745-7.228 1.165-3.084-.098-5.107-6.119-8.288-5.342-2.891-18.745-17.635-19.425-19.274-.68-1.638-4.759-23.128-4.953-25.152-.194-2.12-26.903 3.469-24.475 8.962Z" fill="#213555"/><path d="M149.278 482.829c-2.039-2.506-4.953-4.626-8.838-2.313-4.079 2.409-4.468 7.613-6.604 7.902-2.137.289-2.331-2.698-5.148-3.566-2.816-.771-4.565-2.698-4.565-2.698-1.068-4.529-3.593-13.588-3.593-13.588-2.428-5.493 24.281-11.083 24.378-8.963.194 1.831 3.108 17.443 4.37 23.226Z" fill="#F4C2C9"/><path d="M155.785 493.333s-5.05-1.927-14.956 2.987m21.949 3.181s-7.478-1.928-17.385 2.987" stroke="#fff" stroke-width="1.8" stroke-miterlimit="10" stroke-linecap="round" stroke-linejoin="round"/><path d="M16.025 295.677s-4.662 12.143-7.478 19.756c-2.817 7.614-6.41 23.226 1.65 35.85 8.062 12.625 23.602 14.841 48.563 17.925 24.669 2.987 30.01 4.915 30.01 4.915s5.634 24.96 14.763 49.438c9.13 24.478 12.529 38.741 12.918 42.21.388 3.373 2.233 6.842 8.352 8.288 6.119 1.445 22.047-2.024 23.116-9.059.971-7.035-5.828-28.526-10.296-57.051-4.467-28.526-6.507-52.426-14.956-63.508-8.547-11.083-41.763-12.239-41.763-15.419-.098-3.084-48.66-41.054-64.879-33.345Z" fill="#4F709C"/><path d="M137.526 407.949c-4.467-28.526-6.507-52.426-14.957-63.508-8.546-11.083-40.112-14.167-41.763-15.419 0 0-7.77-5.301-18.55-5.204" stroke="#213555" stroke-width="1.8" stroke-miterlimit="10" stroke-linecap="round" stroke-linejoin="round"/><path d="M80.806 329.022s.777-5.012 0-7.324M10.198 332.78s16.22-.289 19.813-17.828m58.662 59.171s-.194-4.433 3.691-7.806" stroke="#213555" stroke-width="1.8" stroke-miterlimit="10" stroke-linecap="round" stroke-linejoin="round"/><path d="M122.084 484.081s-2.04-5.493-18.356-1.06m10.197-7.613s-1.554-4.048-14.568 1.446" stroke="#fff" stroke-width="1.8" stroke-miterlimit="10" stroke-linecap="round" stroke-linejoin="round"/><path d="m509.314 122.211-130.728-5.3c-2.817-.097-4.759-2.699-4.371-5.879l10.684-77.964c.388-3.083 3.108-5.59 5.924-5.782l130.728-5.3c3.594-.193 6.119 2.505 5.73 5.975l-10.683 87.986c-.389 3.662-3.691 6.457-7.284 6.264Z" fill="#F8AB5D"/><path d="m507.08 120.573-130.728-5.301c-2.816-.096-4.759-2.698-4.37-5.878l10.683-77.964c.389-3.084 3.108-5.59 5.925-5.782l130.727-5.3c3.594-.193 6.119 2.505 5.731 5.974l-10.684 87.987c-.388 3.662-3.691 6.36-7.284 6.264Z" fill="#EA5455"/><path d="M403.255 70.267h34.576m-3.691 28.237-18.647-.482c-2.914-.096-4.856-2.602-4.468-5.59L416.95 48.2c.388-2.988 3.01-5.494 5.924-5.59l18.648-.482" stroke="#F8AB5D" stroke-width="1.8" stroke-miterlimit="10" stroke-linecap="round" stroke-linejoin="round"/><path d="m461.918 47.235-21.659.385c-1.262 0-2.039-.963-1.942-2.216l.874-6.457c.194-1.253 1.262-2.313 2.525-2.313l21.658-.675c1.263 0 2.137.964 2.04 2.217l-.874 6.553c-.194 1.446-1.36 2.506-2.622 2.506Zm37.295 28.815L476 75.953c-1.262 0-2.233-1.06-2.039-2.41l.874-6.745c.194-1.35 1.36-2.41 2.622-2.41l23.213-.096c1.359 0 2.331 1.06 2.136 2.41l-.874 6.842c-.097 1.446-1.359 2.505-2.719 2.505Zm-44.58 28.621-21.658-.578c-1.263 0-2.04-1.06-1.943-2.313l.875-6.553c.194-1.253 1.262-2.313 2.525-2.216l21.658.385c1.263 0 2.137 1.06 2.04 2.41l-.874 6.649c-.195 1.253-1.36 2.216-2.623 2.216Z" fill="#4F709C"/><path d="M461.335 70.17h13.112" stroke="#F8AB5D" stroke-width="1.8" stroke-miterlimit="10" stroke-linecap="round" stroke-linejoin="round"/><path d="m458.324 75.857-21.658-.097c-1.263 0-2.04-1.06-1.943-2.313l.874-6.456c.195-1.253 1.263-2.313 2.525-2.313l21.659-.097c1.262 0 2.137 1.06 2.04 2.313l-.875 6.65c-.194 1.253-1.359 2.313-2.622 2.313Z" fill="#F4C2C9"/><path d="M403.255 70.267c.486-3.565-1.845-6.36-5.147-6.36-3.303 0-6.313 2.891-6.799 6.36-.486 3.47 1.748 6.36 5.05 6.36 3.303 0 6.411-2.794 6.896-6.36Z" fill="#4F709C"/><path d="M496.493 356.68v6.553c0 4.24-21.464 7.71-48.076 7.71-26.514 0-48.075-3.47-48.075-7.71v-6.553h22.629c7.382-.771 16.123-1.157 25.446-1.157 9.324 0 18.065.386 25.447 1.157h22.629Z" fill="#213555"/><path d="M448.417 364.389c26.552 0 48.076-3.451 48.076-7.709 0-4.258-21.524-7.71-48.076-7.71-26.551 0-48.075 3.452-48.075 7.71s21.524 7.709 48.075 7.709Z" fill="#4F709C"/><path d="M448.417 442.257c-1.262 0-2.233-.964-2.233-2.217v-75.554h4.564v75.554c0 1.253-1.068 2.217-2.331 2.217Z" fill="#213555"/><path d="M448.417 439.847s-26.417 1.928-34.77 19.371m69.638 0c-8.45-17.443-34.77-19.371-34.77-19.371s-4.371 3.373-6.216 23.322" stroke="#213555" stroke-width="4" stroke-miterlimit="10" stroke-linecap="round" stroke-linejoin="round"/><path d="M443.825 472.176c3.811-.893 6.171-4.682 5.271-8.463-.9-3.781-4.719-6.123-8.529-5.23-3.811.893-6.171 4.682-5.271 8.463.9 3.781 4.718 6.123 8.529 5.23Zm44.428-6.557a6.996 6.996 0 0 0 0-9.949c-2.768-2.747-7.257-2.747-10.026 0a6.996 6.996 0 0 0 0 9.949c2.769 2.748 7.258 2.748 10.026 0Z" fill="#4F709C"/><path d="M415.268 467.455c3.811-.893 6.17-4.682 5.271-8.463-.9-3.781-4.719-6.123-8.53-5.23-3.81.893-6.17 4.682-5.27 8.463.9 3.781 4.718 6.123 8.529 5.23Z" stroke="#213555" stroke-width="1.8" stroke-miterlimit="10" stroke-linecap="round" stroke-linejoin="round"/><path d="M474.641 285.655c4.662 11.083 12.917 28.911 12.82 48.956 0 24.285-29.623 34.211-32.633 38.066-3.011 3.951-64.684 8.095-70.997-4.144-6.313-12.335-5.925-25.152 10.975-56.087 11.266-20.72 9.809-26.502 9.906-26.791 0 0 1.554 1.638 2.234-4.819.68-6.456 64.878-1.734 67.695 4.819Z" fill="#213555"/><path d="M398.496 343.381c-6.021.963-16.122 4.144-17.191 20.045-.971 15.901 11.752 77.578 11.947 88.468.194 10.889-.875 11.371-8.353 18.021-7.478 6.649-22.338 13.877-21.076 18.985 1.263 5.107 18.259 9.444 29.429 7.42 11.266-2.024 13.694-14.648 15.831-15.708 2.136-1.06 3.496-5.011 3.787-7.517.292-2.602 8.159-90.974 8.936-103.984 1.068-16.093-5.633-28.525-23.31-25.73Z" fill="#F4C2C9"/><path d="M413.647 465.578c-.388 4.24-.68 6.939-.68 7.421-.291 2.602-1.651 6.456-3.787 7.517-2.137 1.06-4.565 13.684-15.831 15.708-11.267 2.024-28.263-2.313-29.429-7.421-.971-3.951 7.867-9.251 15.346-14.552-.194.193-2.331 2.313 0 2.795 2.428.482 6.798-1.349 15.151 3.277s10.781-2.602 12.432-7.517c1.457-4.144 4.37-2.795 6.798-7.228Z" fill="#213555"/><path d="M427.827 346.272c-7.284 4.818-10.198 10.697-11.557 32.862-1.846 30.453-5.148 78.349-6.702 83.457-1.554 5.107-3.496 7.42-5.342 12.528-1.845 5.107-17.482 19.852-16.51 25.442.874 5.589 9.906 11.179 15.539 13.01 5.633 1.831 12.335 2.602 16.414 0 4.079-2.602 6.119-18.889 7.187-22.744 1.069-3.951 2.234-6.746 3.205-13.588.874-6.746 8.061-37.681 11.072-46.547 3.011-8.77 16.511-51.944 16.9-68.808.194-16.865-19.522-22.551-30.206-15.612Z" fill="#F4C2C9"/><path d="M427.827 346.272c-7.284 4.818-10.198 10.697-11.557 32.862-1.846 30.453-5.148 78.349-6.702 83.457-1.554 5.107-3.496 7.42-5.342 12.528" stroke="#EBDFD7" stroke-width="1.8" stroke-miterlimit="10" stroke-linecap="round" stroke-linejoin="round"/><path d="M431.13 471.168c-.583 2.698-.972 4.818-1.069 6.071-.874 6.746-2.136 9.637-3.205 13.588-1.068 3.951-3.011 20.238-7.09 22.744-4.079 2.602-10.781 1.831-16.414 0-5.633-1.832-14.568-7.421-15.539-12.914-.68-4.048 7.284-12.817 12.431-19.371-.291.386-3.982 5.879 2.623 10.698 5.73 4.24 16.414 6.842 19.133.481 2.719-6.36 4.176-12.335 5.439-14.262 1.262-1.831 2.816-3.855 3.691-7.035Z" fill="#213555"/><path d="M411.748 495.36c.758-2.048-.872-4.527-3.641-5.536-2.77-1.009-5.629-.167-6.388 1.881-.758 2.049.872 4.528 3.642 5.537 2.769 1.009 5.629.167 6.387-1.882Zm-21.604-16.386c-.292 2.023-2.817 3.276-5.536 2.891-2.72-.386-4.759-2.41-4.468-4.433.291-2.024 2.816-3.277 5.536-2.891 2.817.385 4.759 2.409 4.468 4.433Z" fill="#fff"/><path d="M407.043 205.089s-13.209.193-22.144 19.756c-8.935 19.467-23.115 47.125-21.076 58.786 2.04 11.661 29.137 0 41.957-21.876 12.724-21.876 11.558-56.087 1.263-56.666Z" fill="#4F709C"/><path d="M417.241 166.156s-6.702-.386-8.838-8.963c-2.137-8.577 6.701-19.274 14.86-21.876 8.158-2.602 10.198 2.409 15.539 2.988 5.342.578 19.619-.964 25.349 11.66 5.731 12.625-3.787 24.575 3.497 34.019 7.284 9.541 13.403 26.984-8.061 34.501-21.465 7.517-46.134 1.638-53.807-11.95-7.575-13.588 7.09-21.587 9.324-28.622 2.428-6.939 3.497-8.673 2.137-11.757Z" fill="#213555"/><path d="M438.997 200.078s-19.814-.193-30.594 3.855c-3.205 1.156-5.925 3.18-6.702 13.203-.68 9.058-1.165 8.962-3.69 13.395-3.982 7.131-5.634 15.323 2.039 28.622 4.953 8.673 3.399 24.96 2.622 33.151-.777 8.288.195 11.854 16.22 15.901 16.025 4.048 50.407 0 54.292-3.854 3.885-3.855 5.633-42.018 4.856-49.438-.777-7.421 13.597-27.177 12.529-34.983-.971-7.806-10.392-18.503-51.572-19.852Z" fill="#EA5455"/><path d="M428.119 198.44s-8.936.385-11.849 3.373c-2.04 2.12-.389 3.469 2.039 5.3 1.651 1.253-4.176 4.53-1.165 8.288 2.234 2.795 7.284-.675 9.227 1.927 2.233 3.084 2.622 4.241 6.021 4.337 4.274.096 4.662-4.433 7.867-3.951 3.885.578 4.759 1.927 7.576 1.638 4.37-.482 4.467-4.818 3.885-7.42-.583-2.602.971-2.699 4.37-3.662 3.4-.964 4.079-7.517-8.449-9.348-12.432-1.831-19.522-.482-19.522-.482Z" fill="#fff"/><path d="M450.263 180.997s-2.04 9.733-1.846 20.141c0 0-3.399 10.119-15.054 9.444-10.877-.578-8.352-9.251-8.352-9.251s2.622-9.637 2.719-12.143c.194-2.506 19.813-10.793 22.533-8.191Z" fill="#F4C2C9"/><path d="M441.619 191.983c-4.662 3.084-10.101 4.915-15.248 4.529-.68 2.602-1.263 4.819-1.263 4.819s-.097.482-.194 1.253c7.575-.193 14.374-3.566 16.705-10.601Z" fill="#EBDFD7"/><path d="M415.978 156.519c0 .289.292 7.709-1.068 15.997s.097 21.394 9.13 24.478c12.528 4.24 25.543-4.24 28.748-16.575 3.205-12.336 4.856-27.466-11.072-31.995-16.025-4.626-24.864 2.023-25.738 8.095Z" fill="#F4C2C9"/><path d="M415.493 159.988s-.68-2.988 2.136-3.566c2.817-.578 5.439-1.831 8.062-2.987 1.845-.868 4.176-.578 6.021 3.469 4.079 8.673 9.227 21.683 19.911 18.021 0 0 4.079.868 5.244-5.878 1.166-6.746.68-15.805-11.169-21.298-11.849-5.397-25.446-1.735-27.971 1.06-3.885 4.337-2.234 11.179-2.234 11.179Z" fill="#213555"/><path d="M447.058 176.275s4.37-5.975 8.45-2.506c4.079 3.469-1.554 12.239-7.188 11.95" fill="#F4C2C9"/><path d="M453.371 186.394c0-1.35-1.166-3.855-2.525-3.855-1.36 0-2.526 2.505-2.526 3.855 0 1.349 1.166 2.505 2.526 2.505 1.359 0 2.525-1.06 2.525-2.505Z" fill="#EA5455"/><path d="M454.051 177.816c-.389-.192-.68-.481-.972-.578-.291-.193-.582-.096-.679 0-.098 0-.098.097-.195.193s-.194.193-.194.289c-.097.193-.097.386-.194.675-.097.578 0 1.349-.194 2.216a1.895 1.895 0 0 1-.875 1.253c-.485.289-.971.096-1.359 0 .388-.193.68-.385.777-.675.097-.192.097-.481.097-.771 0-.578-.194-1.349-.097-2.216 0-.482.194-.964.582-1.446l.583-.578c.292-.096.583-.289.874-.289.68 0 1.166.386 1.36.771.389.385.486.771.486 1.156Zm-34.77-5.878c.388.867.388 1.831.194 2.795-.194.963-.583 1.831-1.263 2.602-.194.289-.291.289-.291.578 0 .193.097.482.291.867.194.289.389.675.68.964.291.289.583.674.971.771-.485.193-.971.096-1.457-.097-.485-.192-.874-.481-1.262-.771a2.606 2.606 0 0 1-.777-1.541v-.482c0-.193.097-.386.097-.482.097-.193.097-.289.194-.482.097-.096.195-.289.292-.385.971-1.157 1.651-2.602 2.331-4.337Z" fill="#213555"/><path d="M423.651 185.622s3.594.482 6.216-1.734" stroke="#213555" stroke-width="1.8" stroke-miterlimit="10" stroke-linecap="round" stroke-linejoin="round"/><path d="M427.827 164.614c-.194-.578.098-1.446.389-1.831.777-.964 3.302-1.06 5.245.192 1.942 1.157 2.719 2.988 2.136 3.181-.874.289-1.748-.868-3.788-1.06-2.039-.29-3.593.578-3.982-.482Zm-10.003-.289c.485.096.971-.193.971-.675.097-.675.097-1.445-.194-1.927-.583-.868-2.137.096-2.623.771-.485.674-.291 1.831 0 1.831.195 0 1.069-.193 1.846 0Zm11.946 9.348c.777.096 1.36-.482 1.457-1.253l.097-.771c.097-.771-.486-1.349-1.263-1.446-.777-.096-1.359.482-1.457 1.253l-.097.771c0 .771.486 1.446 1.263 1.446Zm-12.529-.964c.777.096 1.36-.482 1.457-1.253l.097-.771c.097-.771-.486-1.349-1.263-1.445-.777-.097-1.359.481-1.457 1.252l-.097.771c0 .771.583 1.349 1.263 1.446Z" fill="#213555"/><path d="m284.571 322.758 5.633 130.678c.097 1.445-.971 2.698-2.331 2.698-1.166 0-2.234-1.06-2.331-2.409l-9.809-131.064h8.838v.097Zm12.14-15.323 5.342 124.317c.097 1.446-.971 2.602-2.234 2.602-1.165 0-2.137-.963-2.234-2.216l-9.324-124.703h8.45Zm-100.425 15.419-17.677 129.618c-.194 1.445.777 2.795 2.04 2.891 1.166.096 2.331-.867 2.525-2.12l21.853-129.618-8.741-.771Z" fill="#D8C4B6"/><path d="M314.193 184.177s5.731 2.602.777 25.442c-4.953 22.839-14.083 53.1-12.82 87.311 1.166 34.212-21.367 48.378-58.371 45.776-37.004-2.602 21.076-106.296 21.076-106.296s41.666-61.581 49.338-52.233Z" fill="#D8C4B6"/><path d="M214.934 191.116c.971-4.241 3.01-11.083 10.683-13.878 7.673-2.794 88.285-1.445 89.353 8.481.972 9.83-20.007 56.184-19.91 89.335.097 33.055 6.022 60.617-33.313 66.11-39.335 5.493-81.486-2.602-77.213-15.901 4.273-13.203 17.288-31.128 21.27-67.652 3.982-36.524 5.536-50.112 9.13-66.495Z" fill="#fff"/><path d="M196.674 297.219s-29.622 36.814-30.496 49.053c-.874 12.239 48.658 11.757 48.756 9.251.194-2.505 8.352-16.768 12.237-17.057 2.525-.193 6.41-.386 7.09 2.698.971 4.337 0 13.396 0 13.396l42.637 19.852 4.176-17.636s7.187-11.468 7.187-30.356c0-18.889-5.536-46.74-5.536-46.74s-81.195 8.48-86.051 17.539Zm34.965 177.514s-2.623 1.735-3.205 6.072c-.583 4.336-2.914 10.793-4.468 16.094-1.554 5.3-6.119 15.612-3.788 17.346 3.302 2.602 12.043 4.433 22.144 5.301 10.101.867 14.957.289 16.511-2.602 1.457-2.892-1.748-19.467-2.331-25.731-.583-6.264 0-12.818-1.165-15.034-1.166-2.12-19.036-7.421-23.698-1.446Zm-35.839-5.589s-1.165 1.831-2.331 5.686c-1.165 3.758-11.46 19.563-11.363 24.574.194 5.108 9.906 5.108 13.694 5.301 4.565.192 16.123-.675 19.91-3.277 3.788-2.602 3.885-11.565 4.177-14.456.583-5.782.485-9.251-.874-17.924-.389-2.795-4.662-3.566-6.993-1.928-2.331 1.542-14.472-1.735-16.22 2.024Z" fill="#213555"/><path d="M233.193 463.265s-1.749 12.625-1.943 14.167c-.194 1.445 2.622 4.915 10.781 6.649 6.993 1.542 11.169-1.06 11.849-2.023.68-.964 3.885-17.058 4.953-20.72 1.068-3.566-23.407-2.409-25.64 1.927Zm-39.724-2.698s2.623 8.866 2.623 10.022c0 1.157 4.467 3.566 10.683 3.373 6.119-.192 11.461-3.565 11.461-5.204 0-1.638-1.846-17.346-1.846-17.346s-22.338 4.722-22.921 9.155Z" fill="#F4C2C9"/><path d="M229.599 497.188s11.946-3.952 23.213 5.3m-20.105-12.335s11.752-2.121 19.23 3.951" stroke="#fff" stroke-width="1.8" stroke-miterlimit="10" stroke-linecap="round" stroke-linejoin="round"/><path d="M231.736 479.841s1.942 1.156 4.176 0 4.565-3.277 9.13-2.409c5.536 1.06 6.604 6.746 9.615 4.24 0 0 .097 3.855-7.479 4.24-7.575.386-15.345-4.818-15.442-6.071Zm-36.033-9.059s1.068 1.157 2.817-.482c1.748-1.542 1.554-3.469 6.313-4.144 3.108-.385 5.73 1.831 8.061 3.662 2.331 1.832 4.662-.674 5.147-2.794 0 0 1.554 5.493-.582 8.191-1.554 2.024-7.576.578-11.169.675-3.497.096-11.364-1.638-11.364-1.638l.777-3.47Z" fill="#213555"/><path d="M189.099 484.949s9.129-5.59 21.658 1.927m-17.288-7.71s7.964-5.589 18.939 1.928" stroke="#fff" stroke-width="1.8" stroke-miterlimit="10" stroke-linecap="round" stroke-linejoin="round"/><path d="M245.722 335.575s-11.752 1.638-12.529 30.742c-.777 29.104-3.205 75.843-6.508 82.396-3.205 6.554-2.136 14.263 3.982 17.347 6.119 3.084 13.209 6.65 22.145 5.686 8.935-.867 13.208-6.071 13.208-16.383 0-10.408 3.788-39.223 9.615-62.737 5.731-23.514 9.713-46.74-2.136-55.124s-27.777-1.927-27.777-1.927Zm-69.638-2.313s-17.676 2.216-7.673 45.679c10.004 43.367 16.706 66.303 15.152 72.953-1.554 6.649 3.302 10.215 8.838 11.468 5.439 1.252 16.122 1.06 22.144-2.313 6.119-3.373 6.701-8.77 4.273-19.082-2.428-10.311-3.01-51.558-3.302-65.724-.291-14.166 3.302-38.259-13.986-45.198-17.385-7.035-25.446 2.217-25.446 2.217Z" fill="#213555"/><path d="M187.156 361.98c7.778 0 14.083-6.17 14.083-13.781 0-7.611-6.305-13.781-14.083-13.781-7.777 0-14.083 6.17-14.083 13.781 0 7.611 6.306 13.781 14.083 13.781Zm69.638 10.601c7.777 0 14.082-6.17 14.082-13.781 0-7.611-6.305-13.781-14.082-13.781-7.778 0-14.083 6.17-14.083 13.781 0 7.611 6.305 13.781 14.083 13.781Z" stroke="#4F709C" stroke-width="1.8" stroke-miterlimit="10" stroke-linecap="round" stroke-linejoin="round"/><path d="M289.233 153.531s5.73-1.831 7.575-5.975c1.943-4.144 1.651-16.672-1.748-20.623-3.399-3.951-12.917-2.217-18.939-3.951-6.022-1.735-10.198-5.59-21.367-3.47-11.169 2.121-21.464 12.047-21.95 17.443-.485 5.397 2.72 7.614 1.554 11.083-1.262 3.373-2.719 6.842 2.72 12.143 5.438 5.3 3.302 8.769 7.381 8.769 4.079 0-3.302-12.335 1.942-22.936 5.342-10.504 39.918-4.433 42.832 7.517Z" fill="#213555"/><path d="M176.376 217.328s-12.821 16.769-15.054 29.393c-2.234 12.625 4.661 20.816 13.208 22.166 8.547 1.349 37.198-35.754 38.558-43.271 1.263-7.517-32.633-14.166-36.712-8.288Z" fill="#F4C2C9"/><path d="M217.264 184.562s-6.507-1.831-22.144 11.565c-13.111 11.179-23.503 21.876-23.503 21.876s27.583 24.863 31.37 31.32c0 0 16.997-19.467 18.454-39.126 1.457-19.756-1.748-26.406-4.177-25.635Z" fill="#4F709C"/><path d="M176.376 213.57s19.91 15.901 30.691 30.549" stroke="#213555" stroke-width="1.8" stroke-miterlimit="10" stroke-linecap="round" stroke-linejoin="round"/><path d="M209.592 192.754c2.428-5.397 7.284-9.348 13.306-9.541 5.827-.192 14.665-.096 27.485.771 27.583 1.928 48.853 9.734 54.486 13.781 5.634 4.048-1.262 29.104-7.089 42.981-5.828 13.878-12.141 26.502-13.209 31.321-.971 4.818 2.816 27.562.777 32.187-2.04 4.626-23.698 12.625-51.281 11.083-27.583-1.638-39.044-10.408-39.918-13.685-.777-3.18 2.622-31.705 4.274-41.439 1.651-9.733 2.816-31.127 3.01-34.211 1.749-19.853 5.634-27.659 8.159-33.248Z" fill="#213555"/><path d="M330.024 237.566c-6.895-11.757-30.788 11.661-30.205 16.865 0 0 4.274 8.866 4.274 9.83 0 .963-4.274 25.345-7.188 39.03-.874 4.24-3.496 8.962-6.701 13.491 7.576 2.795 15.248 5.108 23.115 6.65 10.295-17.829 22.144-45.101 23.99-51.847 3.399-12.625-.389-22.262-7.285-34.019Z" fill="#F4C2C9"/><path d="M304.093 264.261s1.748-4.144 6.215-5.975" stroke="#EBDFD7" stroke-width="1.8" stroke-miterlimit="10" stroke-linecap="round" stroke-linejoin="round"/><path d="M304.869 197.669s7.867 4.337 15.637 17.347c7.673 13.009 13.792 24.863 13.792 24.863l-34.188 17.732s-9.906-16.094-13.985-23.321c-4.079-7.228-4.468-22.069 1.262-30.357 5.536-8.192 14.763-8.095 17.482-6.264Z" fill="#4F709C"/><path d="M296.905 252.504s19.911-13.01 34.576-17.829" stroke="#213555" stroke-width="1.8" stroke-miterlimit="10" stroke-linecap="round" stroke-linejoin="round"/><path d="M294.963 308.687s-13.694 1.35-16.802 3.084c-3.011 1.735-7.77 12.239-7.382 13.203.292.964 3.302 0 3.302 0s-.388 2.024 1.943 2.024 2.719-.964 2.719-.964-.388 2.506 2.331 2.409c2.72-.192 8.353-5.011 8.353-5.011s-3.011 5.3-1.166 6.553c1.749 1.253 5.828-3.18 6.411-4.047.582-.868 16.025 8.384 21.949-8.674 0 0-11.169-12.046-21.658-8.577Z" fill="#F4C2C9"/><path d="M237.369 182.635s-4.662.482-5.633 1.349c-.971.868-3.885 8.384 0 16.19 3.885 7.71 15.151 11.661 26.612 8.096 11.46-3.47 16.316-14.456 15.928-17.829-.389-3.373-2.428-4.433-6.605-5.493-4.176-1.06-30.302-2.313-30.302-2.313Z" fill="#4F709C"/><path d="M242.905 158.446s.291 8.866-1.943 16.094c-.971 3.277-2.525 6.264-3.496 7.999-.777 1.445-1.36 2.987-1.554 4.529-.583 3.951-.291 10.794 6.993 14.07 11.655 5.204 23.892-4.337 25.543-11.95 0 0 .68-7.902 2.428-11.082 1.749-3.084-22.338-22.647-27.971-19.66Z" fill="#F4C2C9"/><path d="M267.671 191.405c.389-.771.583-1.542.777-2.217 0 0 .097-1.542.486-3.566-8.061-1.349-15.151-5.975-19.522-12.239.583 9.445 8.741 16.672 18.259 18.022Z" fill="#EBDFD7"/><path d="M169.771 267.345s4.759 5.3 25.932 0c21.076-5.301 48.465-19.949 52.544-21.395 4.079-1.542 5.633-.771 10.003-.771 10.393.193 14.666-.771 16.026-1.445 2.719-1.349 3.982-3.373 3.496-5.108-.485-1.734.971-2.216 1.263-3.758.485-2.891-.583-3.277-.292-3.47.292-.192 3.205-1.06 3.788-1.831 1.457-2.216.292-3.662.292-3.662s3.69-.963 8.061-1.349c4.37-.385 6.993-1.927 5.73-3.469-1.263-1.542-9.809-1.06-15.345-1.06-5.536 0-7.479.096-7.867-.097-2.137-.674-6.313-1.927-8.353-1.734-2.04.192-4.371 1.831-8.353 3.951-3.982 2.12-8.449 3.855-14.277 5.3-4.467 1.157-34.478 3.47-53.029 6.939-2.622.482-5.05.964-7.09 1.542-2.525.674-4.565 1.349-5.924 2.024-10.101 5.396-18.939 19.563-6.605 29.393Z" fill="#F4C2C9"/><path d="M282.725 225.905s-2.525-.385-3.399-.578c-.971-.193-2.331-.193-2.331-.193m1.748 6.264s-1.748.482-2.428.771m1.457 5.397s-1.845 1.06-2.622 1.349" stroke="#EBDFD7" stroke-width="1.8" stroke-miterlimit="10" stroke-linecap="round" stroke-linejoin="round"/><path d="M248.247 245.95c-7.479-8.769-3.691-19.081-3.691-19.081l-8.353 1.542c-4.759 11.661 3.691 21.491 3.691 21.491l8.353-3.952Z" fill="#213555"/><path d="M273.304 219.93s-5.244.097-6.118.482m-77.796 13.974c-2.622.482-5.05.964-7.09 1.542-2.525.674-4.565 1.349-5.924 2.024" stroke="#EBDFD7" stroke-width="1.8" stroke-miterlimit="10" stroke-linecap="round" stroke-linejoin="round"/><path d="M244.362 237.566c0-2.795-2.234-5.011-5.051-5.011-2.816 0-5.05 2.216-5.05 5.011s2.234 5.011 5.05 5.011c2.72-.096 5.051-2.313 5.051-5.011Z" fill="#fff"/><path d="M290.398 137.148s2.137 6.361-.874 15.805c-3.011 9.541-5.05 13.01-7.576 20.527-2.622 7.517-8.644 14.07-19.036 13.01-10.877-1.157-19.424-10.986-19.91-23.225-.486-12.239-1.554-31.321 13.112-34.694 14.471-3.276 31.759 5.301 34.284 8.577Z" fill="#F4C2C9"/><path d="M280.783 157.579c0 1.156 0 2.216.194 3.276.097.482.194 1.06.292 1.542.097.289.097.482.194.771l.097.386.097.482c.194.674.194 1.349 0 2.12-.291.674-.777 1.349-1.36 1.638-1.165.675-2.428.771-3.593.482 1.068-.482 2.137-.964 2.719-1.542.68-.675.777-1.349.486-2.217l-.097-.289-.097-.482c-.098-.289-.097-.578-.195-.867-.097-.578-.097-1.253-.097-1.831.292-1.349.68-2.602 1.36-3.469Zm-35.256-5.204s3.205-.771 5.245-9.155c0 0 .68-1.928 4.079.674 3.302 2.602 9.033 6.843 18.939 2.217 9.907-4.626 11.169-6.168 12.529-4.53 0 0 1.457 7.324 6.507 5.012 5.051-2.217 2.331-15.323-14.374-19.564-16.705-4.24-28.554-2.794-33.896 6.457-5.439 9.348-3.302 18.311.971 18.889Z" fill="#213555"/><path d="M276.024 149.291c.583-.675 1.165-2.217.388-3.277-1.068-1.638-8.352-2.794-10.1-1.349-1.749 1.446 2.622 1.638 4.662 2.602 2.039 1.06 4.467 2.698 5.05 2.024Zm9.032 4.144c.195-.578.777-1.253 1.457-1.542 1.069-.482 3.302 1.735 2.914 3.18-.389 1.446-1.457-.193-2.428-.385-.971-.386-2.234-.675-1.943-1.253Zm-14.568 1.445c.291-.771-.097-1.638-.971-1.927-.777-.289-1.651.096-1.943.964l-.194.482 2.817 1.06.291-.579Zm14.568 5.397c.292-.771-.097-1.638-.971-1.927-.777-.289-1.651.096-1.942.963l-.195.482 2.817 1.06.291-.578Z" fill="#213555"/><path d="M247.275 154.013s-1.651-6.553-6.507-6.457c-4.856.097-7.09 13.203 4.079 15.227" fill="#F4C2C9"/><path d="M239.991 153.531c0-.482.097-.867.486-1.349.194-.193.485-.385.874-.385.291 0 .68.096.874.192.097 0 .291.193.389.289.194.097.194.289.291.386.097.193.097.289.194.385 0 .097.097.289.097.386.097.482.097.867.097 1.253v2.216c0 .289.098.578.292.867.194.29.485.482.874.675-.389.193-.874.193-1.36 0-.485-.193-.874-.675-1.068-1.156-.389-.868-.486-1.735-.486-2.602a17.3 17.3 0 0 0-.097-1.639c-.194-.192-.291-.289-.583-.289a7.809 7.809 0 0 1-.874.771Zm30.206 21.009c.388-.578.777-1.156.971-1.638.388-.868 0-1.831-.874-2.12-.972-.386-2.234-1.061-3.691-2.217-3.011-2.409-4.371-.289-4.176 2.409 2.913.289 5.536 2.12 7.77 3.566Z" fill="#213555"/><path d="M262.427 170.878c.194 2.313 1.457 5.107 3.982 5.493 1.651.289 2.913-.675 3.788-1.831-2.234-1.446-4.857-3.277-7.77-3.662Z" fill="#EBDFD7"/><path d="M68.472 330.467 54.195 528.026c-.097 1.638 1.262 3.084 2.913 3.084 1.554 0 2.817-1.156 2.914-2.602l17.19-197.945h-8.74v-.096Zm576.231 0 14.278 197.559c.097 1.638-1.263 3.084-2.914 3.084-1.554 0-2.817-1.156-2.914-2.602l-17.191-197.945h8.741v-.096Z" fill="#D8C4B6"/><path d="M675.103 326.323H38.073l72.842-29.104h491.248l72.94 29.104Z" fill="#fff"/><path d="M675.2 326.323H38.072v7.228H675.2v-7.228Z" fill="#D8C4B6"/><path d="M291.369 292.401h40.889c1.069 0 2.137.289 3.108.963l37.101 24.575c1.263.771.68 2.698-.777 2.698h-59.148c-1.36 0-2.622-.578-3.496-1.734l-18.842-24.093c-.777-.964-.097-2.409 1.165-2.409Z" fill="#EA5455"/><path d="M316.621 313.024h38.17" stroke="#4F709C" stroke-width="1.8" stroke-miterlimit="10" stroke-linecap="round" stroke-linejoin="round"/><path d="m344.204 305.796-7.964-5.975a1.875 1.875 0 0 0-1.165-.385h-10.392c-.389 0-.486.385-.292.674l6.022 5.783c.388.385.874.578 1.36.578h12.237c.389 0 .486-.386.194-.675Z" fill="#213555"/><path d="M322.643 306.471h-10.489m7.09-3.951h-9.421" stroke="#4F709C" stroke-width="1.8" stroke-miterlimit="10" stroke-linecap="round" stroke-linejoin="round"/><path d="m527.476 324.588-11.655.868a8.03 8.03 0 0 1-3.011-.289l-53.223-14.456c-1.166-.289-2.04-1.445-2.04-2.698l90.519-2.217-20.59 18.792Z" fill="#4F709C"/><path d="m514.461 321.312 22.533-59.461c.777-2.12 2.913-3.565 5.147-3.469l92.462 1.735c2.039 0 3.496 2.12 2.622 4.047l-21.367 51.944c-.777 1.927-2.623 3.18-4.662 3.373l-93.821 5.878c-2.04 0-3.594-2.12-2.914-4.047Z" fill="#213555"/><path d="m517.763 325.359-1.942.097a8.03 8.03 0 0 1-3.011-.289l-53.223-14.456c-1.166-.385-2.04-1.445-2.04-2.698l58.371 13.877 1.845 3.469Z" fill="#213555"/><path d="M592.645 290.473c-1.068 3.662-4.856 6.65-8.547 6.65-3.69 0-5.827-2.988-4.759-6.65 1.069-3.662 4.857-6.649 8.547-6.649 3.691-.097 5.828 2.987 4.759 6.649Z" fill="#4F709C"/><path d="M71.094 198.536s9.518-2.602 17.87 12.239c8.353 14.841 12.53 42.403 15.152 45.198 2.622 2.795 6.896 4.915 20.687 13.684 13.792 8.77 14.569 9.059 26.515 10.505 11.946 1.445 12.723 5.493 16.414 9.541 3.69 4.047 6.313 6.842 2.816 7.131-3.399.289-7.284-4.722-9.518-3.277-2.234 1.446-3.885 2.602-7.867 3.662-4.079.964-2.816 2.602-6.604 2.217-3.788-.386-11.169-.193-8.838-2.217 2.233-2.023 0-2.505 0-2.505s-41.084-5.493-54.39-16.19c-13.402-10.698-16.802-46.162-19.424-57.919-2.72-11.854 3.885-22.069 7.187-22.069Z" fill="#FFE7CA"/><path d="M104.116 255.973s-3.691-.386-6.313.964" stroke="#F8AB5D" stroke-width="1.8" stroke-miterlimit="10" stroke-linecap="round" stroke-linejoin="round"/><path d="M75.756 151.604s7.187-6.746 4.37-15.516c-2.816-8.866-11.557-9.637-18.647-7.517-7.09 2.217-26.515-1.445-33.605 9.252-7.09 10.697-2.622 20.334-7.09 23.129-4.467 2.794-10.78 4.818-9.712 11.853.971 7.035 20.007 17.251 14.18 25.346-5.827 7.998-11.363 26.887 11.17 37.584 22.435 10.697 23.892-14.841 25.348-29.682 1.457-14.841-3.01-31.995 3.4-38.355 6.507-6.554 11.849-10.119 10.586-16.094Z" fill="#213555"/><path d="M42.928 195.067s25.738.578 30.206 2.602c4.467 2.024 6.507 8.866 7.867 14.07 1.456 5.204 11.557 11.468 13.403 22.936 1.845 11.468-8.061 24.767-8.547 26.887-.389 2.217-.583 23.707.583 28.14 1.262 4.434 3.205 11.661 3.01 14.842-.194 3.18-13.791 9.444-33.993 8.287-20.201-1.156-41.374-11.275-42.054-13.491-.583-2.217 6.022-12.625 4.176-34.405-1.845-21.683-12.334-45.197-4.662-58.111 7.673-12.721 26.127-11.854 30.011-11.757Z" fill="#213555"/><path d="M41.957 176.756s1.069 11.179.874 18.311c0 0 2.817 5.975 11.655 7.709 10.684 2.217 12.82-3.854 11.364-6.456 0 0-2.526-9.252-2.817-15.612-.194-6.168-20.59-4.819-21.076-3.952Z" fill="#FFE7CA"/><path d="M50.698 186.008c3.982 6.168 8.062 8.673 15.054 9.155-.388-1.349-.874-3.758-1.456-6.36-5.537.674-8.159-1.253-13.598-2.795Z" fill="#F8AB5D"/><path d="M38.267 195.067s5.633 3.662 11.266 11.564c5.536 7.903 12.626 13.781 17.58 13.203 4.952-.578 7.283-7.035.873-23.225 0 0-15.54-2.506-29.72-1.542Z" fill="#FFE7CA"/><path d="m129.854 286.233 40.694-2.506c.486 0 1.069-1.06 1.263-.674.097.096 0 1.638 0 1.734 0 .29-.097.675-.292.868l-30.69 31.224c-1.263 1.253-3.011 1.927-4.857 1.734l-40.014-3.951c-.389 0-.777-.289-.874-.578-.098-.193-1.651-2.795-1.554-3.084 0-.289 2.233-.289 2.525-.482l31.079-23.225c.68-.578 1.651-.964 2.72-1.06Z" fill="#4F709C"/><path d="m129.368 283.727 41.277-1.734c1.069 0 1.651 1.252.874 2.023l-31.759 31.032c-1.262 1.252-3.108 1.927-4.953 1.638l-40.5-4.915c-1.069-.096-1.457-1.445-.583-2.12l32.73-24.96a5.023 5.023 0 0 1 2.914-.964Z" fill="#213555"/><path d="M147.627 281.896s-1.068.193-1.068 2.217c0 1.927.777 7.42-1.263 7.806-1.942.385-2.913-2.024-3.885-4.144-.971-2.12-3.885-2.217-5.73-5.3M73.23 141.292s2.817 7.421 3.109 15.805c.291 8.481 3.205 13.299 1.554 20.623-1.651 7.421-7.479 13.01-14.666 13.299-7.187.289-17.676-6.071-23.406-13.684-5.73-7.71-7.479-23.515-4.08-31.224 3.205-7.614 28.652-15.612 37.49-4.819Z" fill="#FFE7CA"/><path d="M76.533 149.58s-4.176.482-6.799-3.759c0 0-6.313 14.456-16.51 15.42-6.993.674-8.353-2.602-11.267 0-2.913 2.602 5.536 17.635 2.914 29.875-2.622 12.239-15.054 15.612-23.795 8.095-10.975-9.541.971-11.372 3.205-24.864 2.234-13.395 0-23.707 7.187-31.513 7.187-7.806 14.277-12.624 25.64-11.564 11.46 1.06 16.123 2.794 19.425 18.31Z" fill="#213555"/><path d="M46.522 159.41s-.68 5.107-.389 6.746c.292 1.638-3.01-1.831-6.021.385-1.651 1.253-3.205-6.649 0-9.059 3.108-2.409 4.953-.385 6.41 1.928Z" fill="#213555"/><path d="M44.677 166.252s-3.691-4.722-7.673-1.831c-3.982 2.988 1.165 11.661 7.187 10.986m82.166 132.895s5.536 4.529 7.673 6.071c2.04 1.542.777 2.891-1.554 2.891-2.428.097-10.004-6.071-6.119-8.962Z" fill="#FFE7CA"/><path d="M16.317 202.873c-2.331 1.06-4.177 2.891-5.44 5.107-2.33 4.337-5.632 12.818-3.204 23.804 3.593 16.287 12.043 40.765 15.83 46.547 3.789 5.782 21.562 17.346 34.091 25.056 12.529 7.71 22.144 11.95 24.475 13.685 2.428 1.734 6.993 6.167 15.831 7.227 8.935 1.06 11.752-2.12 14.471-1.445 2.817.674 7.285 3.758 9.81 3.469 2.525-.385 1.165-2.216.194-3.18-.971-.964-6.701-6.071-6.701-6.071s3.496 1.445 8.546 4.433c4.274 2.505 6.313 2.602 7.479 2.505 1.165 0 2.525-.482 2.331-1.542 0 0 1.165.675 2.137-.192.971-.868 1.262-1.639-1.069-4.241-2.428-2.602-8.255-9.444-11.169-12.431-3.011-3.084-6.313-3.277-13.5-2.892-7.187.29-17.288-1.156-17.58-.867-.29.289-31.176-32.188-40.5-41.439 0 0-7.478-24.189-9.712-34.597-4.565-20.912-15.637-27.947-26.32-22.936Z" fill="#FFE7CA"/><path d="M134.03 322.565s0-1.157-2.914-3.181c-2.913-1.927-7.478-6.36-8.935-7.42-1.457-1.156-3.205-2.409-3.497-2.409m-3.01 7.613s-2.234-1.927-3.303-1.638M52.35 260.406s-4.565-.482-8.159 3.18" stroke="#F8AB5D" stroke-width="1.8" stroke-miterlimit="10" stroke-linecap="round" stroke-linejoin="round"/><path d="M72.745 162.205c.68.867 1.263 1.734 1.846 2.505.29.386.582.771.97 1.06l.486.482.292.193c.097.096.291.193.388.385.486.579.68 1.35.68 2.024 0 .675-.291 1.253-.583 1.735-.582.964-1.456 1.831-2.622 2.12.68-.867 1.068-1.735 1.36-2.698.291-.868.194-1.735-.194-2.121 0-.096-.098-.096-.195-.192a1.321 1.321 0 0 0-.388-.289c-.194-.193-.486-.482-.583-.675a5.743 5.743 0 0 1-.874-1.446c-.291-.867-.583-1.927-.583-3.083Z" fill="#213555"/><path d="M69.734 179.551s-2.816.868-5.341-1.734" stroke="#213555" stroke-width="1.8" stroke-miterlimit="10" stroke-linecap="round" stroke-linejoin="round"/><path d="M63.13 166.637c.874-.096 1.457-.963 1.263-1.831l-.195-.867c-.097-.867-.97-1.445-1.845-1.253-.874.097-1.457.964-1.263 1.831l.195.868c.194.771.97 1.349 1.845 1.252Zm11.85-1.927c.873-.096 1.456-.964 1.262-1.831l-.195-.867c-.097-.868-.97-1.446-1.845-1.253-.874.096-1.457.964-1.263 1.831l.195.867c.194.771.971 1.446 1.845 1.253Zm-12.724-8.095c.874.096 1.554-.675 1.457-1.542-.097-.771-.292-1.542-.68-2.024-.874-.963-4.273-.674-6.799 1.253-2.622 1.928-3.593 4.433-2.33 4.53 1.262.096 3.107-1.542 5.147-2.024.971-.386 2.234-.289 3.205-.193Zm12.724-1.445c-.39.289-.875 0-.972-.386-.194-.771-.389-1.927-.097-2.216.485-.579 1.942-.193 2.233.674.292.867.389 1.349.098 1.349-.195-.096-.777.193-1.263.579Zm-36.422 13.588c-.291-.289-.389-.675-.389-1.157 0-.193.098-.482.292-.771.194-.289.388-.385.68-.578.097 0 .194-.096.388-.096s.486 0 .68.096c.388.193.583.482.68.675.291.385.388.771.583 1.156.291.675.388 1.349.582 1.831.097.289.195.482.389.675.194.192.583.289.971.289-.291.289-.68.482-1.165.482-.486 0-.972-.289-1.263-.675-.583-.675-.874-1.446-1.165-2.024-.098-.289-.195-.674-.292-.867 0-.096-.097-.193 0-.193h.097-.097c-.194 0-.291 0-.486.193-.29.193-.388.578-.485.964Z" fill="#213555"/><path d="M313.125 109.104h-34.187l-3.497 2.217c-1.068.675-2.622-.096-2.622-1.349V85.976a4.438 4.438 0 0 1 4.468-4.433h35.741c2.428 0 4.468 1.927 4.468 4.433v18.695c0 2.506-1.943 4.433-4.371 4.433Z" fill="#F4C2C9"/><path d="m283.017 100.238 3.399-3.373a4.656 4.656 0 0 1 6.604 0 4.658 4.658 0 0 0 6.605 0l6.507-6.456" stroke="#213555" stroke-width="1.8" stroke-linecap="round" stroke-linejoin="round"/><path d="m307.2 92.336 1.166-4.144-4.176 1.157 3.01 2.987Z" fill="#213555"/><path d="m613.235 221.087-89.547-10.408c-2.622-.289-4.176-2.602-3.594-5.204l20.688-93.865c.485-2.216 2.622-4.047 4.953-4.337l93.432-9.733c2.428-.29 4.274 1.638 3.788 3.951l-24.766 116.03c-.583 2.217-2.72 3.855-4.954 3.566Z" fill="#4F709C"/><path d="m609.642 221.087-90.325-10.505c-2.622-.289-4.273-2.602-3.69-5.204l20.881-94.539c.486-2.313 2.622-4.144 5.051-4.337l94.112-9.83c2.428-.288 4.273 1.639 3.788 3.952l-25.058 116.993c-.389 2.121-2.622 3.759-4.759 3.47Z" fill="#213555"/><path d="m576.329 130.402-33.993 1.639c-.875 0-1.554-.675-1.36-1.542l2.719-12.528c.195-.675.777-1.253 1.554-1.35l34.285-2.891c.971-.096 1.554.675 1.359 1.542l-3.01 13.878c-.097.578-.777 1.156-1.554 1.252Z" fill="#4F709C"/><path d="M531.361 200.656c-.777-.096-1.263-.771-1.069-1.445l5.051-23.515c.194-.771.874-1.349 1.651-1.252.777.096 1.262.674 1.068 1.445l-5.05 23.611c-.097.674-.874 1.253-1.651 1.156Z" fill="#F4C2C9"/><path d="m543.404 200.367 6.022-27.754c.194-.771.874-1.349 1.651-1.253h.194c.777 0 1.262.674 1.165 1.445l-6.021 27.755c-.195.771-.972 1.349-1.748 1.253h-.195c-.777 0-1.262-.675-1.068-1.446Z" fill="#EA5455"/><path d="m556.516 201.427 6.798-31.705c.194-.868.971-1.446 1.845-1.446.875 0 1.457.771 1.263 1.638l-6.799 31.706c-.194.867-1.068 1.446-1.942 1.446-.777 0-1.36-.771-1.165-1.639Zm48.561-59.846 2.234 4.722c-2.72 3.084-6.022 5.012-9.13 5.012-6.021 0-9.226-7.228-7.284-16.19 1.943-8.963 8.353-16.576 14.471-17.058 3.206-.289 5.634 1.349 7.09 4.24l-4.273 5.012c-.874-1.735-2.331-2.795-4.176-2.602-3.691.289-7.576 4.818-8.838 10.311-1.166 5.397.776 9.83 4.467 9.734 1.943-.193 3.885-1.35 5.439-3.181Z" fill="#4F709C"/><path d="M613.43 134.064c-1.069 4.723-3.303 9.059-6.022 12.143l-2.234-4.722c1.651-1.831 3.011-4.433 3.594-7.228.583-2.795.388-5.3-.486-7.035l4.274-5.011c1.456 2.987 1.845 7.131.874 11.853Z" fill="#EA5455"/><path d="M579.145 188.321c-1.942 8.962 1.263 16.19 7.284 16.19 3.108 0 6.411-1.927 9.13-5.011l-2.234-4.722c-1.651 1.831-3.593 2.987-5.439 3.084-3.69.096-5.633-4.337-4.467-9.734.485-2.409 1.651-4.722 3.01-6.457l-2.039-4.433c-2.428 3.084-4.371 6.939-5.245 11.083Z" fill="#4F709C"/><path d="M592.257 177.913c1.845-.096 3.399.867 4.176 2.602l4.274-5.011c-1.457-2.891-3.983-4.53-7.09-4.241-3.303.29-6.605 2.602-9.324 5.975l2.039 4.433c1.749-2.12 3.788-3.662 5.925-3.758Z" fill="#EA5455"/><path d="M601.581 187.454c-1.069 4.722-3.303 9.058-6.022 12.142l-2.234-4.722c1.651-1.831 3.011-4.433 3.594-7.228.583-2.794.388-5.3-.486-7.035l4.274-5.011c1.456 2.891 1.942 7.131.874 11.854Z" fill="#F4C2C9"/><path d="m539.81 140.425 23.893-.867m-25.252 6.264 34.187-.386m-35.256 5.975h34.576" stroke="#4F709C" stroke-width="1.8" stroke-miterlimit="10" stroke-linecap="round" stroke-linejoin="round"/><path d="M626.736 106.021c.194-.771-.098-1.35-.68-1.35-.583.097-1.166.771-1.263 1.542-.194.771.097 1.349.68 1.349.583-.096 1.165-.77 1.263-1.541Zm5.633-.482c.194-.771-.195-1.349-.68-1.349-.583.096-1.166.771-1.36 1.541-.194.771.194 1.35.68 1.35.68-.097 1.263-.771 1.36-1.542Z" fill="#4F709C"/><path d="M272.819 318.999v.289c0 .964-.777 1.735-1.748 1.735H188.71a1.734 1.734 0 0 1-1.748-1.735c0-.578.291-1.156.68-1.638l15.928-15.612c.777-.771 1.748-1.157 2.72-1.157h54.097c1.36 0 2.72.771 3.399 1.928l8.742 14.937c.097.482.291.867.291 1.253Z" fill="#213555"/><path d="M231.736 314.855c0 .289-.583.578-1.36.578-.777 0-1.36-.289-1.36-.578s.583-.578 1.36-.578c.777 0 1.36.289 1.36.578Zm327.402 89.817s-7.479-15.901 11.266-25.923c18.745-10.023 44.774-.097 42.443 3.373-1.457 2.12-5.245 8.287-12.335 15.901-5.924 6.457-22.921 16.479-41.374 6.649Z" fill="#4F709C"/><path d="M609.545 381.447s-41.18-9.155-50.504 23.225c-9.227 32.381-6.41 63.412-6.41 63.412" stroke="#213555" stroke-width="1.8" stroke-miterlimit="10" stroke-linecap="round" stroke-linejoin="round"/><path d="m522.037 441.1 6.701 78.349c0 2.988 12.238 5.301 27.389 5.301 15.054 0 27.389-2.41 27.389-5.301l6.701-78.349h-68.18Z" fill="#213555"/><path d="M556.127 446.208c18.774 0 33.993-2.287 33.993-5.108 0-2.821-15.219-5.107-33.993-5.107s-33.993 2.286-33.993 5.107 15.219 5.108 33.993 5.108Z" fill="#4F709C"/><path d="M547.483 424.814s-10.975-5.397-18.065 6.745c-7.09 12.239-1.845 30.453 3.011 33.152 4.856 2.698 25.058-6.457 25.058-24.864 0-16.383-10.004-15.033-10.004-15.033Z" fill="#4F709C"/><path d="M547.483 424.814s-10.975-.771-14.277 37.391" stroke="#213555" stroke-width="1.8" stroke-miterlimit="10" stroke-linecap="round" stroke-linejoin="round"/><path d="M539.131 402.552s-11.558-17.828-34.673-6.36c-23.116 11.468-22.436 43.077-18.842 44.908 3.69 1.831 57.691-16.865 53.515-38.548Z" fill="#4F709C"/><path d="M557.487 439.847s-7.187-25.056-18.357-37.391c-11.266-12.336-45.842 1.831-51.96 31.609" stroke="#213555" stroke-width="1.8" stroke-miterlimit="10" stroke-linecap="round" stroke-linejoin="round"/><path d="M570.404 412.575s-9.809-3.373-14.277 8.673c-4.371 11.757.777 38.548 26.029 46.643 1.36.386 2.817 0 3.691-1.06 3.108-3.566 9.615-12.914 9.615-26.984-.097-19.563-10.975-33.729-25.058-27.272Z" fill="#4F709C"/><path d="M570.404 412.575s20.396 9.926 12.918 51.654" stroke="#213555" stroke-width="1.8" stroke-miterlimit="10" stroke-linecap="round" stroke-linejoin="round"/><path d="M363.823 283.631s.389 12.143 18.065 13.299c17.579 1.253 51.864-2.698 58.565-4.529 6.702-1.831 6.313-12.528 2.04-15.516-4.273-2.987-29.914-4.337-43.026-6.264-3.01-.482-6.507-1.06-10.1-1.349-3.108-.289-6.216-.482-9.227-.386-8.838.386-16.22 3.759-16.317 14.745Z" fill="#4F709C"/><path d="M363.629 280.258s0-2.506 3.788-1.831c8.255 1.542 15.248 19.178 6.798 16.961m25.155-24.767c-3.011-.482-6.507-1.06-10.1-1.349-3.108-.289-6.216-.482-9.227-.386" stroke="#213555" stroke-width="1.8" stroke-miterlimit="10" stroke-linecap="round" stroke-linejoin="round"/><path d="M486.101 214.341c3.205 1.06 5.536 3.566 9.615 15.805 5.342 15.997 12.141 49.919 8.644 59.075-3.496 9.155-10.489 13.877-33.993 14.937-23.503 1.06-46.327-.771-49.338-.771-3.011 0-8.061-10.986-4.856-18.214 0 0 19.91-4.819 31.176-7.806 11.266-2.988 23.698-6.168 28.846-6.746 0 0-8.353-20.334-11.072-27.465-2.72-7.132-.486-19.275 5.924-24.768 6.313-5.396 12.335-4.915 15.054-4.047Z" fill="#4F709C"/><path d="M476.098 270.621s9.615-1.927 15.345 0m13.889 13.01s-2.04-4.818-10.295.578c-6.508 4.241-8.45 16.962-1.36 16.191" stroke="#213555" stroke-width="1.8" stroke-miterlimit="10" stroke-linecap="round" stroke-linejoin="round"/><path d="M418.115 285.366s-5.147.482-10.392.482c-5.245 0-12.335.867-13.986 1.638-1.651.675-18.356 17.347-17.968 19.563.292 2.217 3.497.771 6.216-1.06 2.623-1.927 7.77-6.842 8.838-7.517 0 0-1.359 3.084-2.622 7.71-1.262 4.626-2.525 9.251-1.262 10.022 1.651.964 3.205-.674 3.69-1.638 0 0-.097 2.409 1.846 2.506 1.942.096 3.787-3.566 5.341-6.65 1.651-3.084 4.954-7.131 4.954-7.131s-1.554 4.915-2.137 7.613c-.583 2.698-.971 5.879.486 6.168 2.233.481 4.273-6.072 5.536-8.577 1.359-2.602 6.215-.868 9.809-3.084 3.691-2.313 5.633-2.891 5.633-2.891s2.428-2.41 2.428-7.614c0-5.3-4.37-9.733-6.41-9.54Z" fill="#F4C2C9"/><path d="M390.435 314.662s4.662-13.492 6.604-16.094c1.943-2.602 2.623-2.794 3.205-3.18m-9.615 3.18s.777-1.541 2.04-3.854c.68-1.157 2.137-2.313 2.137-2.313m7.769 10.89s1.36-3.277 2.72-3.662" stroke="#EBDFD7" stroke-width="1.8" stroke-miterlimit="10" stroke-linecap="round" stroke-linejoin="round"/><path d="M433.558 275.536s3.885-1.253 7.478-2.891c3.594-1.638 5.051-2.313 7.867-2.506 2.817-.289 11.655-.289 12.918.482 1.262.771 2.913 4.433 3.787 6.264.874 1.831-1.942 9.059-1.942 9.059s1.262 6.36-.292 7.035c-.971.385-1.845.193-3.107-3.18 0 0 .874 2.891-.875 3.084-1.748.192-3.69-4.819-4.953-7.035-1.262-2.217-3.691-5.012-3.691-5.012s1.069 3.47 1.263 4.626c.194 1.253.971 4.144.486 5.3-.486 1.157-2.234-.385-3.982-4.336-1.749-3.951-2.331-5.301-3.4-5.204-6.021.578-5.633-.771-8.546-.964l-6.411 1.638c-.097-.096-.777-3.951 3.4-6.36Z" fill="#F4C2C9"/><path d="M460.266 289.702s-1.942-6.264-2.622-8.191c-.68-1.831-2.914-5.3-2.914-5.3m8.936 9.637s-1.166-6.746-1.651-8.385c-.486-1.542-1.263-2.987-1.263-2.987m-10.101 6.264s-.582-1.928-.874-2.506" stroke="#EBDFD7" stroke-width="1.8" stroke-miterlimit="10" stroke-linecap="round" stroke-linejoin="round"/></g></svg>