<svg width="548" height="511" viewBox="0 0 548 511" fill="none" xmlns="http://www.w3.org/2000/svg"><path fill="#4F709C" fill-opacity=".5" d="M57 360h190v131H57z"/><circle cx="4" cy="405" r="4" fill="#213555"/><circle cx="4" cy="439" r="4" fill="#213555"/><circle cx="4" cy="473" r="4" fill="#213555"/><circle cx="4" cy="507" r="4" fill="#213555"/><circle cx="41" cy="405" r="4" fill="#213555"/><circle cx="41" cy="439" r="4" fill="#213555"/><circle cx="41" cy="473" r="4" fill="#213555"/><circle cx="41" cy="507" r="4" fill="#213555"/><circle cx="78" cy="405" r="4" fill="#213555"/><circle cx="78" cy="439" r="4" fill="#213555"/><circle cx="78" cy="473" r="4" fill="#213555"/><circle cx="78" cy="507" r="4" fill="#213555"/><circle cx="115" cy="405" r="4" fill="#213555"/><circle cx="115" cy="439" r="4" fill="#213555"/><circle cx="115" cy="473" r="4" fill="#213555"/><circle cx="115" cy="507" r="4" fill="#213555"/><circle cx="152" cy="405" r="4" fill="#213555"/><circle cx="152" cy="439" r="4" fill="#213555"/><circle cx="152" cy="473" r="4" fill="#213555"/><circle cx="152" cy="507" r="4" fill="#213555"/><path d="m134.856 173.116-103.8 22.827c-2.9.583-5.7-1.263-6.1-4.08L4.056 62.967c-.5-3.303 2.4-6.217 5.8-5.634l108 17.581c2.1.389 3.8 1.943 4.2 3.983l15.9 89.654c.3 2.137-1 4.08-3.1 4.565Z" fill="#4F709C"/><path d="m140.656 173.019-104.5 22.924c-2.9.68-5.7-1.263-6.2-4.08l-21.1-129.77c-.5-3.303 2.4-6.217 5.9-5.634l108.7 17.678c2.1.389 3.8 1.943 4.2 4.08l16.1 90.237c.4 2.04-1 4.08-3.1 4.565Z" fill="#213555"/><path d="M53.556 85.696c.5 2.817-1.3 4.857-4 4.663-2.7-.195-5.4-2.72-5.9-5.634s1.4-4.954 4.1-4.663c2.8.292 5.3 2.817 5.8 5.634Z" fill="#EA5455"/><path d="m56.556 103.472-9.8-.389c-2.3-.097-4.4-2.137-4.8-4.468-.9-5.245 2.6-9.228 7.5-8.84 4.8.39 9.3 4.76 10.2 9.811.4 2.234-1 3.983-3.1 3.886Z" fill="#EA5455"/><path d="M62.956 170.105c-1.9.292-3.7-1.165-4.1-3.302l-8-48.081c-.3-2.04 1-3.789 2.9-3.789s3.7 1.652 4.1 3.691l7.9 47.11c.3 2.137-.9 4.08-2.8 4.371Z" fill="#4F709C"/><path d="m54.357 140.188 4.4 26.615c.4 2.137 2.2 3.594 4.1 3.302 1.9-.291 3.1-2.234 2.8-4.274l-4.4-26.129c-.3-2.039-2.2-3.594-4.1-3.496-1.8.097-3.1 1.845-2.8 3.982Z" fill="#4F709C"/><path d="M86.156 88.804c.4 2.526-1 4.469-3.2 4.274-2.2-.194-4.4-2.428-4.9-5.05-.4-2.623 1-4.469 3.3-4.275 2.2.195 4.3 2.429 4.8 5.051Z" fill="#F4C2C9"/><path d="m88.856 104.831-7.9-.291c-1.8-.097-3.6-1.845-4-3.982-.8-4.76 1.9-8.354 5.9-8.063 3.9.292 7.7 4.274 8.5 8.84.3 2.039-.8 3.594-2.5 3.496Z" fill="#F4C2C9"/><path d="M95.256 164.957c-1.5.292-3.1-1.068-3.4-3.011l-7.4-43.322c-.3-1.845.7-3.399 2.3-3.399 1.6 0 3.1 1.554 3.4 3.399l7.3 42.448c.3 1.943-.6 3.691-2.2 3.885Z" fill="#4F709C"/><path d="m87.556 136.691 4.3 25.061c.3 1.748 1.7 3.205 3.1 3.205 1.7-.097 2.8-1.845 2.5-3.885l-4.3-24.769c-.3-1.846-1.8-3.303-3.4-3.206-1.5.195-2.5 1.749-2.2 3.594Zm25.4-45.361c.4 2.331-.7 4.08-2.5 3.885-1.8-.194-3.7-2.234-4.1-4.565-.4-2.331.8-4.08 2.6-3.885 1.8.194 3.6 2.234 4 4.565Z" fill="#4F709C"/><path d="m115.556 105.997-6.6-.291c-1.5-.097-3-1.652-3.4-3.594-.8-4.371 1.4-7.577 4.8-7.382 3.3.291 6.5 3.885 7.2 7.965.3 1.942-.6 3.399-2 3.302Zm6.3 54.783c-1.3.195-2.6-1.068-2.9-2.719l-6.9-39.339c-.3-1.749.5-3.109 1.8-3.109s2.6 1.36 2.9 3.011l6.8 38.66c.4 1.748-.4 3.205-1.7 3.496Z" fill="#4F709C"/><path d="m117.056 146.89 1.9 10.976c.3 1.652 1.4 2.914 2.7 2.914 1.4 0 2.3-1.651 2-3.496l-1.9-10.879c-.3-1.652-1.6-3.012-2.8-2.817-1.4.097-2.2 1.554-1.9 3.302Zm413.701 66.731-98.5-11.17c-2.9-.291-5-2.817-4.8-5.634l7.6-104.127c.2-2.526 2.2-4.565 4.9-4.857l102.6-10.49c2.7-.292 4.9 1.845 4.7 4.468l-11.7 128.022c-.3 2.331-2.5 4.08-4.8 3.788Z" fill="#4F709C"/><path d="m526.456 213.621-99-11.267c-2.9-.292-5-2.817-4.8-5.634l7.6-104.71c.2-2.526 2.2-4.663 4.9-4.954l103.1-10.587c2.7-.292 5 1.942 4.7 4.468l-11.7 128.702c-.2 2.525-2.4 4.274-4.8 3.982Z" fill="#213555"/><path d="m464.256 114.836-24.3 1.166c-1 0-1.8-.777-1.7-1.748l1-14.085c.1-.777.7-1.457 1.5-1.457l24.4-1.943c1-.097 1.9.778 1.8 1.749l-1.2 14.861c0 .777-.7 1.457-1.5 1.457Z" fill="#4F709C"/><path d="m476.956 125.23-2.7 33.899-39.2-1.165.5-7.188 5.4-6.994c1-1.36 3.1-1.554 4.3-.388 1.4 1.359 3.8.874 4.6-.777l4.3-8.645c.9-1.846 3.5-2.137 4.9-.486l5.1 6.217c1.3 1.554 3.8 1.359 4.8-.389l8-14.084Zm-38 66.439c-.8-.097-1.5-.777-1.4-1.554l.8-10.879c.1-.777.8-1.457 1.6-1.36.9.097 1.5.777 1.4 1.651l-.8 10.879c0 .68-.7 1.36-1.6 1.263Zm13-.291 1.2-15.445c.1-.777.8-1.457 1.6-1.359h.2c.9.097 1.5.777 1.4 1.651l-1.2 15.444c-.1.874-.8 1.457-1.7 1.36h-.2c-.7-.097-1.3-.874-1.3-1.651Zm14.4 1.165 1.6-19.718c.1-.874.9-1.554 1.8-1.554 1 0 1.7.874 1.6 1.846l-1.6 19.718c-.1.971-.9 1.651-1.9 1.554-.8-.194-1.5-.972-1.5-1.846Z" fill="#EA5455"/><path d="m480.757 193.806 2.1-24.283c.1-.875.9-1.555 1.8-1.555h.2c1 0 1.7.875 1.6 1.846l-2.1 24.283c-.1.972-.9 1.652-1.9 1.555h-.2c-.9-.098-1.6-.972-1.5-1.846Zm14.399 1.36 2.5-28.849c.1-.874.9-1.554 1.8-1.554h.4c1 0 1.7.874 1.6 1.846l-2.5 28.848c-.1.972-.9 1.652-1.9 1.554h-.299c-1-.194-1.701-.971-1.601-1.845Z" fill="#4F709C"/><path d="M511.657 198.274h-.5c-.9-.097-1.6-.874-1.6-1.845l2.9-33.414c.1-.875.9-1.554 1.8-1.554h.5c1 0 1.7.874 1.7 1.845l-2.9 33.414c-.1.971-1 1.651-1.9 1.554Z" fill="#F4C2C9"/><path d="m512.356 129.892 4.3 7.285c-3.6 4.663-8.1 7.577-12.8 7.577-9.2 0-15.5-11.171-14.3-24.964 1.1-13.89 9.4-25.74 18.8-26.42 4.8-.389 8.9 2.234 11.7 6.702l-5.6 7.674c-1.6-2.72-4.1-4.274-7-4.177-5.6.388-10.7 7.479-11.4 15.93-.7 8.353 3.2 15.153 8.7 15.055 2.7 0 5.4-1.748 7.6-4.662Z" fill="#4F709C"/><path d="M523.456 118.527c-.7 7.285-3.2 13.988-6.8 18.747l-4.3-7.285c2.1-2.817 3.7-6.799 4-11.17.4-4.371-.5-8.257-2.1-10.976l5.6-7.674c2.8 4.468 4.2 10.976 3.6 18.358Z" fill="#EA5455"/><path d="M529.656 87.153c.1-.874-.3-1.554-1-1.554-.6.097-1.2.777-1.2 1.651-.1.875.3 1.555.9 1.555.6 0 1.2-.68 1.3-1.652Zm6.1-.485c.1-.875-.4-1.555-1-1.555-.6.098-1.2.778-1.3 1.749-.1.874.4 1.554 1 1.554.7-.097 1.2-.874 1.3-1.748Z" fill="#4F709C"/><path d="m404.256 124.938-32.7 1.943c-1.7.097-3.1-1.263-3-2.914l4.3-62.651c.1-1.652 1.4-3.012 3.1-3.303l33.4-5.828c1.8-.291 3.4 1.069 3.3 2.817l-4.9 66.439c-.1 1.943-1.6 3.4-3.5 3.497Z" fill="#213555"/><path d="m401.756 124.258-32.7 1.943c-1.7.097-3.1-1.263-3-2.914l4.3-62.651c.1-1.652 1.4-3.011 3.1-3.303l33.4-5.828c1.8-.291 3.4 1.069 3.3 2.817l-4.9 66.439c-.1 1.943-1.6 3.4-3.5 3.497Z" fill="#4F709C"/><path d="m389.856 60.053-4 .68c-.4.097-.7-.194-.7-.68 0-.389.4-.777.8-.874l4-.68c.4-.097.7.194.7.68 0 .485-.4.874-.8.874Zm3.2-.486-.4.097c-.4.097-.7-.194-.7-.68 0-.388.4-.874.8-.874l.4-.097c.4-.097.7.194.7.68 0 .389-.3.777-.8.874Zm-5.599 8.063-10.1 1.553c-.8.098-1.4-.485-1.4-1.36.1-.873.8-1.65 1.6-1.748l10.1-1.554c.9-.097 1.5.486 1.4 1.36-.1.874-.8 1.651-1.6 1.748Z" fill="#213555"/><path d="m400.257 85.308-24.3 3.01c-.8.098-1.4-.485-1.4-1.262l.9-12.627c0-.583.5-.972 1-1.069l24.4-3.594c.8-.097 1.4.486 1.4 1.263l-1 13.21c0 .486-.4.972-1 1.069Z" fill="#EA5455"/><path d="m385.256 97.255-10.1 1.069c-.8.097-1.4-.486-1.4-1.36.1-.874.8-1.651 1.6-1.651l10.1-1.069c.8-.097 1.5.486 1.4 1.36 0 .777-.7 1.554-1.6 1.651Z" fill="#213555"/><path d="m383.756 118.916-10 .68c-.8.097-1.4-.583-1.4-1.457.1-.874.8-1.554 1.6-1.651l10-.778c.8-.097 1.5.583 1.4 1.457 0 .875-.7 1.652-1.6 1.749Z" fill="#F4C2C9"/><path d="m382.956 111.825-8.7.68c-.7.097-1.4-.486-1.3-1.263l.5-7.77c0-.583.5-1.069 1.1-1.069l8.8-.874c.7-.097 1.4.486 1.3 1.263l-.6 7.965c-.1.582-.5.971-1.1 1.068Z" fill="#EA5455"/><path d="m398.357 110.562-9.3.777c-.7.098-1.4-.582-1.3-1.262l.6-8.062c0-.583.5-1.069 1.1-1.069l9.3-.874c.7-.097 1.4.486 1.3 1.263l-.6 8.159c0 .583-.5.971-1.1 1.068Z" fill="#fff"/><path d="M105.356 45.289c10.162 0 18.4-8.002 18.4-17.873 0-9.87-8.238-17.873-18.4-17.873-10.162 0-18.4 8.002-18.4 17.873 0 9.87 8.238 17.873 18.4 17.873Z" stroke="#4F709C" stroke-width="1.8" stroke-miterlimit="10" stroke-linecap="round" stroke-linejoin="round"/><path d="M98.456 26.93c-.6-.68-.9-1.554-.9-2.622 0-1.069.3-1.943.9-2.623.6-.68 1.4-.971 2.4-.971s1.8.291 2.4.971c.6.68.9 1.554.9 2.623 0 1.068-.3 2.04-.9 2.622-.6.68-1.4.972-2.4.972s-1.8-.292-2.4-.972Zm3.7-.971c.3-.389.4-.971.4-1.748s-.1-1.263-.4-1.749a1.44 1.44 0 0 0-1.2-.583c-.5 0-.9.195-1.2.583-.3.389-.5.971-.5 1.749 0 .68.2 1.262.5 1.748.3.389.7.583 1.2.583.4 0 .9-.194 1.2-.583Zm7.2-5.245h.9c.3 0 .5.388.3.583l-8.8 12.53c-.1.097-.2.194-.3.194h-.9c-.3 0-.5-.388-.3-.583l8.8-12.53c0-.097.1-.194.3-.194Zm-1.8 12.53c-.6-.68-.9-1.554-.9-2.623 0-1.068.3-1.942.9-2.622.6-.68 1.4-.971 2.4-.971s1.8.29 2.4.97c.6.68.9 1.555.9 2.623 0 1.069-.3 1.943-.9 2.623-.6.68-1.4.971-2.4.971s-1.8-.388-2.4-.971Zm3.6-1.068c.3-.389.4-.972.4-1.652 0-.68-.1-1.262-.4-1.651-.3-.486-.9-.68-1.5-.68-.4.097-.8.291-1 .583-.3.388-.5.971-.5 1.748s.2 1.263.5 1.749c.3.388.6.582 1 .582.6.098 1.2-.194 1.5-.68Z" fill="#4F709C"/><path d="M357.456 51.99c-20.2 12.434-41.7 11.463-47-.97-4.7-10.88 5.3-26.81 21.6-36.426 16-9.519 34.8-10.976 43.1-2.622 9.3 9.422 2 27.78-17.7 40.019Z" fill="#213555"/><path d="M354.956 48.008c-20.2 12.433-41.7 11.462-47-.971-4.7-10.879 5.3-26.809 21.6-36.425 16-9.52 34.8-10.976 43.1-2.623 9.3 9.422 2 27.78-17.7 40.02Z" fill="#EA5455"/><path d="M349.257 39.752c-12.1 7.382-25.3 7.188-29-.097-3.5-6.702 2.599-16.902 13.199-23.215 10.5-6.217 22.6-6.994 27.5-1.36 5.2 6.12.301 17.29-11.699 24.672Z" fill="#4F709C"/><path d="M344.157 32.176c-4.8 2.914-10.1 2.914-11.8.194-1.6-2.72.7-6.994 5.3-9.713 4.5-2.72 9.6-2.915 11.5-.39 1.9 2.526-.3 6.995-5 9.909Z" fill="#F4C2C9"/><path d="M339.356 22.948c-1.8 1.068-4.2.485-5.4-1.263l-9.6-18.552c-.5-.972-.1-2.137.8-2.72 1-.583 2.201-.292 2.901.583l12.5 16.804c1.2 1.748.599 4.08-1.201 5.148Z" fill="#213555"/><path d="m326.757 6.727-4.3-.292c-1.2-.097-1.9 1.263-1.2 2.137 2.1 2.72 4.9 4.76 8.1 5.925l2 .777c.2.098.5-.194.3-.388l-3.9-7.48c-.1-.388-.5-.582-1-.68Zm3.6-2.137 1.8-3.789c.5-1.068 2-1.068 2.5 0 1.5 3.011 2.1 6.411 1.6 9.714l-.3 2.137c0 .194-.4.291-.5.097l-5-6.8c-.2-.388-.3-.874-.1-1.36Z" fill="#4F709C"/><path d="m338.856 22.17 3.2 5.246" stroke="#213555" stroke-width="1.8" stroke-miterlimit="10" stroke-linecap="round" stroke-linejoin="round"/><path d="M250.356 449.462c-2.2-3.789-23.5 0-23.5 0s.4 8.062.6 14.181c6.9 3.011 15.2 3.303 22.7 1.263-.1-6.314.2-15.444.2-15.444Z" fill="#B28D93"/><path d="M227.356 463.643c.1 2.817.1 5.148.1 6.12 0 1.165-1.4 3.302-1.9 6.605-.4 2.428 0 5.73-.5 8.644-.5 3.497-1.1 6.994-1.4 10.297-.9 9.616 4.2 10.684 9.9 11.364 5.7.583 24.6 1.166 25.2-4.176.6-5.343-4.8-15.25-6-19.816-1.2-4.565-1.9-9.713-2.5-12.724-.1-.874-.2-2.72-.2-5.051-7.5 2.04-15.8 1.651-22.7-1.263Z" fill="#EA5455"/><path d="M258.856 502.399c-.6 5.343-19.5 4.76-25.2 4.177-5.7-.583-10.8-1.748-9.9-11.365.3-3.205.8-6.799 1.4-10.296.5-2.914 0-6.216.5-8.645.4-2.622 1.4-4.468 1.8-5.731.4 2.526 2.401 3.303 2.601 8.84.3 5.73-.301 8.644 6.599 6.799 9.1-2.428 12.6.583 14.5-.874 1.6-1.36 1.001-6.023.901-6.897.3 1.36.599 2.817.899 4.177 1 4.565 6.5 14.57 5.9 19.815Z" fill="#213555"/><path d="M247.757 458.204c.8-.195 1.7-.486 2.5-.777.1-4.274.2-8.063.2-8.063-2.2-3.788-23.5 0-23.5 0s.1 2.914.3 6.606c6.2 2.331 13.3 3.788 20.5 2.234Z" fill="#896068"/><path d="M242.657 490.258c3.092 0 5.6-1.566 5.6-3.497 0-1.931-2.508-3.497-5.6-3.497-3.093 0-5.6 1.566-5.6 3.497 0 1.931 2.507 3.497 5.6 3.497Z" fill="#fff"/><path d="M284.956 466.071c.5 3.789.8 7.091.6 7.965-.5 2.04-2.1 10.588-3.4 14.279-1.3 3.691-8.7 14.182-3.8 17.387 4.9 3.302 29.9 1.263 32.6-.971 2.7-2.234 1.8-8.451.8-16.416s-4-16.124-4-17.29c0-.388-.1-3.399-.2-7.091-6.8 3.303-14.7 4.566-22.6 2.137Z" fill="#EA5455"/><path d="M283.156 453.833s1.1 6.605 1.8 12.238c7.9 2.429 15.8 1.166 22.6-2.137-.3-6.993-.7-16.707-1.1-17.289-.5-.875-21.1-1.263-23.3 7.188Z" fill="#B28D93"/><path d="M311.057 504.731c-2.7 2.234-27.7 4.273-32.6.971-4.9-3.303 2.5-13.793 3.8-17.387.9-2.623 2-7.868 2.7-11.365-.2 1.166-1.8 10.297 0 10.879 1.9.583 6.7-3.205 13-1.845 6.2 1.262 9.5 2.234 9.5-1.554 0-3.789-1.2-10.005-.6-11.074.5-1.165 1-2.234 1-2.234 0 1.166 3 9.325 4 17.29 1 7.868 1.9 13.987-.8 16.319Z" fill="#213555"/><path d="M307.257 457.232c-.2-5.245-.5-10.199-.8-10.587-.5-.875-21.2-1.263-23.4 7.188 0 0 .4 2.719 1 6.119 8.3 1.748 16.1.291 23.2-2.72Z" fill="#896068"/><path d="M293.456 491.326c3.093 0 5.6-1.565 5.6-3.497 0-1.931-2.507-3.496-5.6-3.496-3.092 0-5.6 1.565-5.6 3.496 0 1.932 2.508 3.497 5.6 3.497Z" fill="#fff"/><path d="M303.556 205.753s9.7 17.193 4.2 59.932c-5.5 42.738-8.3 53.52-7.3 56.24 1 2.72 5.9 23.215 6.2 54.881.3 31.665 1 46.818 3.9 55.657 2.9 8.839 4.2 15.444-3.4 20.69-7.5 5.342-20.8 4.565-27 1.748-6.2-2.817-6.5-7.576-6-18.164.5-10.588-4.9-43.419-9.4-63.331-2.7-12.045-5-25.935-6.5-35.94-1-6.605-1.5-11.461-1.5-13.015 0-3.789-6-59.543-6-62.36s-6.5-4.76-8.1-16.707c-1.6-11.851 1.3-39.534 1.3-39.534s54.1-7.576 59.6-.097Z" fill="#213555"/><path d="M212.557 202.451s-10.9 25.449-4.7 71.684c6.2 46.236 6.999 50.704 7.299 52.744.3 2.04.501 36.619 3.401 66.634 2.9 30.014-2.9 45.458 0 52.743 2.9 7.285 12.2 9.131 18.7 8.839 6.5-.291 18.699-2.525 18.699-14.181 0-11.656-1.6-30.014 0-54.492 1.6-24.478 4-49.441 4.7-61.097.8-11.656 8-79.261 9.3-88.877 1.3-9.617-3.299-25.255-21.399-31.375-18.1-5.925-36-2.622-36-2.622Z" fill="#213555"/><path d="M205.957 243.441s5.9-1.36 8-8.548c2.1-7.188 2.6-12.044 2.6-12.044m92.699 23.118s-7.7-3.497-10.1-11.462c-2.4-7.868-2.1-12.433-2.1-12.433m-59.9 32.442c5.7.195 13.4 6.411 13.4 6.411s2.8-2.428 8.7-5.439m-24.699 86.449c8.063 0 14.6-6.524 14.6-14.57 0-8.047-6.537-14.57-14.6-14.57-8.064 0-14.6 6.523-14.6 14.57 0 8.046 6.536 14.57 14.6 14.57Zm41.699 0c8.064 0 14.6-6.524 14.6-14.57 0-8.047-6.536-14.57-14.6-14.57-8.063 0-14.6 6.523-14.6 14.57 0 8.046 6.537 14.57 14.6 14.57Z" stroke="#4F709C" stroke-width="1.8" stroke-miterlimit="10" stroke-linecap="round" stroke-linejoin="round"/><path d="M258.256 337.369c-1-6.605-1.5-11.461-1.5-13.015 0-3.789-6-59.543-6-62.36s-6.5-4.76-8.1-16.707" stroke="#4F709C" stroke-width="1.8" stroke-miterlimit="10" stroke-linecap="round" stroke-linejoin="round"/><path d="M148.957 69.863s-.9-2.914-1.3-11.073c-.1-1.943 3.1-6.216 3.5-7.48.4-1.262 3.4-.776 2.6 3.498-.8 4.273 2.3 12.141 1.4 15.152-.8 3.109-6.2 1.263-6.2-.097Z" fill="#B28D93"/><path d="m140.756 43.929 27 54.2c.8 1.652 2.5 2.72 4.4 2.623l40.5-.68c1.8 0 2.9-1.748 2.2-3.4l-23.8-54.394c-.8-1.749-2.6-2.914-4.5-2.817l-43.6.97c-1.8.098-3 1.847-2.2 3.498Z" fill="#213555"/><path d="m156.157 36.45 15-.583c1.3 0 2.5.777 2.9 2.04l.6 1.942c.2.583-.3 1.263-.9 1.263l-18.1.485c-.5 0-.9-.388-1-.776l-.3-2.137c-.2-1.166.7-2.235 1.8-2.235Z" fill="#4F709C"/><path d="m195.556 132.903-3.4 2.72s-4.5-13.793-8.6-23.215c-4-9.422-6.7-21.37-6.6-22.73.1-1.36 1.3-5.245-1.4-9.324-2.6-3.983-5.8-5.537-5.8-5.537s2.3-1.068 6.6-2.817c4.3-1.845 2.3-3.69-.3-3.4-2.5.292-9.1 1.166-9.1 1.166s3.2-2.428 5.1-3.885c1.9-1.457 5.9-3.011 4.9-4.565-.9-1.36-5.1.097-7 .68-1.9.582-8.6 3.788-8.6 3.788s4-4.566 5.8-6.8c1.8-2.234 6.6-4.37 6-6.605-.6-2.234-6.5.972-9.3 2.623-2.8 1.651-8.1 6.896-8.1 6.896s.2-5.05.4-7.285c.2-2.234 1.6-7.867-.1-9.227-2.2-1.749-3.4 3.69-4.5 8.256-1.1 4.565-3.7 13.793-3.1 16.513.6 2.72 4 6.022 6.9 9.713 2.9 3.691 6 8.062 6.5 9.325.5 1.36 4.2 59.446 7.5 67.411 3.3 7.965 10.9 21.661 42.5-2.623 0 0 2.9-16.998-2.9-21.564-5.9-4.371-13.4.486-13.4.486Z" fill="#B28D93"/><path d="M234.257 101.723s-7.7 1.36-17.4 11.462-21.3 19.718-21.3 19.718 9 19.427 14.4 25.255c0 0 18.9-12.239 26.3-19.427 7.5-7.188 8.7-34.482-2-37.008Z" fill="#4F709C"/><path d="M199.557 129.503s6.3 14.765 14.7 25.741" stroke="#213555" stroke-width="1.8" stroke-miterlimit="10" stroke-linecap="round" stroke-linejoin="round"/><path d="M192.156 135.623s1.5 3.497 2.8 8.548m-27.999-74.405s-1 .195-2.2.583c-.6.194-1.6.583-2.2 1.166m7.099 3.302s-1.4.68-1.8 1.069m-6.499-10.102s-1.7 1.068-2.3 2.04m-3.3-5.829s-1.6 1.069-2.3 1.943" stroke="#896068" stroke-width="1.8" stroke-miterlimit="10" stroke-linecap="round" stroke-linejoin="round"/><path d="M162.057 90.456s3.9 4.76 15.2 1.165c0 0 1.2 4.371 1.3 5.537 0 0-9.4 3.691-15.9-.777-.1 0-.7-4.954-.6-5.925Z" fill="#213555"/><path d="M167.006 99.08c1.624-.322 2.517-2.586 1.997-5.056-.521-2.47-2.259-4.211-3.882-3.889-1.623.323-2.517 2.587-1.997 5.058.521 2.47 2.259 4.21 3.882 3.888Z" fill="#fff"/><path d="M230.256 104.249c2.8-2.137 5.6-4.76 30.4-5.537 28.5-.874 42.1 2.428 46 18.261 3.9 15.93-12.5 52.744-12.5 57.018 0 4.274 10.3 25.06 11.5 34.482 0 0-13.9 14.862-49 14.376-35.1-.486-46.8-14.376-46.8-17.97 0-3.594 12.2-24.089 13.5-33.122 1.3-9.131-10.9-20.496-10.4-32.054.5-11.657 10.9-21.467 11.5-23.993 1.4-4.662 2.8-9.227 5.8-11.461Z" fill="#EA5455"/><path d="M243.557 108.231s-.1 19.427 8.5 33.22c0 0 15.1-14.959 20.3-30.112 0 0-11.8 3.692-18.8 1.263-7-2.525-10-4.371-10-4.371Z" fill="#4F709C"/><path d="M251.057 96.09s-5.5 1.554-8.4 8.062c-2.9 6.605-1.8 16.221.8 16.124 2.6-.097 12.6-6.994 12.6-6.994s-.5-16.415-5-17.193Z" fill="#fff"/><path d="M255.956 113.379s2.6 3.303 5.5 6.994 5.7 7.771 12.9-3.497c7.2-11.267 2.601-18.94-1.599-20.787-4.3-1.748-17.401 13.696-16.801 17.29Z" fill="#fff"/><path d="M251.057 88.61s-.4 8.062-1.4 13.502c-1 5.439.6 10.393 6.3 11.267 5.7.874 17.4-5.148 18.1-13.404 0 0-1-19.524.7-25.643 1.7-6.023-23.4 10.004-23.7 14.278Z" fill="#B28D93"/><path d="M268.756 88.319c-3.7 5.73-11.3 6.216-18.1 6.313-.2 2.137-.5 4.469-.8 6.508 8.6-.388 17.1-4.662 18.9-12.821Z" fill="#896068"/><path d="M304.056 201.771c-26.8 16.998-68 19.135-92.3-2.04m40.3-58.28s-7.8 10.005-9.8 16.707" stroke="#F8AB5D" stroke-width="1.8" stroke-miterlimit="10" stroke-linecap="round" stroke-linejoin="round"/><path d="M253.157 151.359c.883 0 1.6-.696 1.6-1.555 0-.858-.717-1.554-1.6-1.554-.884 0-1.6.696-1.6 1.554 0 .859.716 1.555 1.6 1.555Zm-3.601 7.576c.884 0 1.6-.696 1.6-1.554 0-.859-.716-1.554-1.6-1.554-.884 0-1.6.695-1.6 1.554 0 .858.716 1.554 1.6 1.554Z" fill="#F8AB5D"/><path d="M320.256 132.417s7.5 16.61 11.2 29.335c3.6 12.724-.1 20.592-8.2 24.38-8.1 3.789-14.5-5.925-26.6-35.356 0 .097 18.1-23.409 23.6-18.359Z" fill="#B28D93"/><path d="M311.057 180.401s5 9.908 16.3 8.84c11.3-.972 38.6-8.548 43.8-12.822 5.3-4.177 2.7-15.639-2.2-16.124-4.9-.486-19.3.971-27.5 1.068-4.1 0-7.3.195-10.3.777-1.4.292-2.7.68-3.9 1.166-1.4.583-2.8 1.36-4.2 2.331-5 3.691-12 14.764-12 14.764Z" fill="#B28D93"/><path d="M331.356 162.237c-1.4.292-2.7.68-3.9 1.166-1.4.583-2.8 1.36-4.2 2.331" stroke="#896068" stroke-width="1.8" stroke-miterlimit="10" stroke-linecap="round" stroke-linejoin="round"/><path d="M284.956 110.077c2.1-5.246 8.2-8.645 13.1-6.8 4 1.554 9.1 4.468 13.2 10.199 7.7 10.976 15.2 30.792 15.2 30.792s-8 5.439-28.5 12.336c0 0-6.4-10.394-10-18.844-2.4-5.537-6.5-18.747-3-27.683Z" fill="#4F709C"/><path d="M295.756 151.456s15.4-3.789 28.4-12.628" stroke="#213555" stroke-width="1.8" stroke-miterlimit="10" stroke-linecap="round" stroke-linejoin="round"/><path d="m337.356 165.54 67.8-6.702c1.7-.194 3.2.971 3.4 2.622l6.9 52.453c.2 1.554-.8 3.011-2.4 3.302l-66.2 13.89c-1.8.389-3.5-.777-3.7-2.525l-8.5-59.543c-.3-1.749.9-3.303 2.7-3.497Z" fill="#4F709C"/><path d="m353.156 185.841 45.3-6.314c1.1-.194 2 .583 2.2 1.554l4.4 25.255c.2.972-.5 1.943-1.5 2.137l-45.7 9.034c-1.1.194-2.2-.486-2.3-1.555l-4.1-27.877c-.1-1.068.6-2.04 1.7-2.234Zm37.4-5.245 5.3 29.431m-35.7-17.192 23.3-3.497m-21.3 11.462 23.3-4.371m-21.7 11.947 23.3-4.371" stroke="#213555" stroke-width="1.8" stroke-miterlimit="10" stroke-linecap="round" stroke-linejoin="round"/><path d="m395.156 186.715 1.5 1.069 1.7-3.109m-1.9 8.645 1.5 1.069 1.8-3.011m-2 9.033 1.5 1.068 1.7-3.011" stroke="#213555" stroke-width="1.8" stroke-miterlimit="10" stroke-linecap="round" stroke-linejoin="round"/><path d="m350.056 176.322-.4-2.429c-.1-.679.4-1.359 1.2-1.457l10.5-1.165c.7-.097 1.4.388 1.5 1.068l.3 2.137c.1.68-.4 1.36-1.1 1.457l-10.4 1.36c-.8.194-1.5-.291-1.6-.971Z" fill="#EA5455"/><path d="M389.756 158.546c-1.5-1.554-2.3-2.137-8.1-2.525-2-.097-5.6.097-8.5.194-1.4 0-2.3-.291-3.3-.194-3 .486-6.5 3.885-8.2 5.051-1.8 1.165-4.8 2.622-4.8 2.622l9.9-.971c.6-.097 1.2.194 1.5.777.5.972 1.4 2.72 2.2 5.051 1.2 3.691 2.5 8.354 4.2 7.188 1-.68 1-3.788.7-5.925 0 .291.1.486.1.777.3 3.691-.3 9.228 1.9 9.325 2 .097 2.3-2.234 2.3-2.234s.4 1.36 1.9.874c1.6-.583 3.9-5.342 4.6-8.159.1 1.262-.2 1.748.7 2.039 1.9.583 3.4-5.342 3.9-9.616.3-2.719-.2-3.497-1-4.274Z" fill="#B28D93"/><path d="M379.557 177.585s1-5.051 1.4-7.091c.4-2.04.3-7.674 0-8.742-.3-1.166-1-2.429-1-2.429m6.199 10.977s1.3-5.731 1.3-7.965c0 0-.2-2.623-.5-3.012m-11.499 12.531s.2-3.691 0-5.246c-.2-1.554-1.7-6.216-1.9-6.313" stroke="#896068" stroke-width="1.8" stroke-miterlimit="10" stroke-linecap="round" stroke-linejoin="round"/><path d="M291.657 50.437c0-5.828-4.1-10.782-9.6-12.24-.6-6.41-6.2-11.46-13-11.46-1.6 0-3.2.29-4.6.873-2.4-2.622-5.9-4.37-9.8-4.37-4.6 0-8.6 2.233-10.9 5.73-.4 0-.8-.097-1.2-.097-7.2 0-13 5.634-13 12.627 0 2.72.9 5.246 2.4 7.285-.8 1.652-1.3 3.497-1.3 5.44 0 6.993 5.8 12.627 13 12.627s13-5.634 13-12.627c0-2.04-.5-3.983-1.4-5.634 1.4-.097 2.7-.388 4-.777a13.49 13.49 0 0 0 6.4 3.885c.2 1.846.8 3.497 1.6 5.051a12.28 12.28 0 0 0-2.4 7.285c0 6.994 5.8 12.628 13 12.628s13-5.634 13-12.628c0-2.234-.6-4.37-1.7-6.216 1.7-2.234 2.5-4.663 2.5-7.382Z" fill="#213555"/><path d="M255.357 44.997c-8.8-.097-16.1 6.508-16.7 14.959-.3 3.788-.7 9.033-1.4 13.404-1.2 7.577 0 18.844 12.3 21.564 12.3 2.72 24.3-8.742 27-18.65 2.8-9.907 5-24.38-9.5-29.14-4.2-1.36-8.2-2.04-11.7-2.137Z" fill="#B28D93"/><path d="M272.657 71.515s-1.9-1.555-2.5-7.868c-.1-.777-.7-1.457-1.5-1.651-2.2-.486-6.2-2.72-7.6-11.56 0 0-5.6 3.886-12.6 5.537-6.8 1.554-11.1-4.468-13.3-7.576-3.9-5.537-3.4-6.897-1.6-9.034 8.9-10.684 24.7-6.216 27.6-5.245 2.9.972 13.2.194 20.3 7.577 7.1 7.382 5.5 17.97 3.6 24.477-1.8 6.508-11.4 18.067-11.4 18.941 0 .875-1-13.598-1-13.598Z" fill="#213555"/><path d="M271.257 72s1.9-4.856 6.2-4.176c3.4.485 4.1 11.85-4.2 13.501" fill="#B28D93"/><path d="M245.357 66.755c.1 1.069-.3 2.137-.8 3.108-.3.486-.6.875-1 1.36-.2.195-.3.389-.4.486-.1.194-.2.291-.3.486-.3.582-.2 1.262.2 2.04.4.776 1.1 1.456 2 2.136-1.1 0-2.2-.485-3.1-1.262-.4-.389-.8-.972-.9-1.652-.2-.68-.1-1.36.2-2.04.1-.29.3-.582.5-.874l.6-.583c.4-.29.7-.68 1.1-.97.6-.68 1.2-1.36 1.9-2.235Z" fill="#213555"/><path d="M251.857 83.268c1.9-.291 4.5-1.263 5.6-3.983" stroke="#213555" stroke-width="1.8" stroke-miterlimit="10" stroke-linecap="round" stroke-linejoin="round"/><path d="M255.857 61.218c-.6-.68-.6-2.428.6-2.816 1.2-.486 4.4 0 6.5 2.622 2.1 2.526-2.1.583-3.3.389-1.2-.194-3.3.291-3.8-.194Zm-11.9-.874c.6.195 1.2-.097 1.4-.68.2-.777.2-1.36-.2-1.845-.5-.68-4.6-.194-5.3 1.651-.5 1.263 2.1.194 3 .486.3 0 .7.194 1.1.388Zm-1 6.216c.1-.873-.5-1.65-1.4-1.748-.9-.097-1.7.486-1.8 1.36v.389l3.2.388v-.388Zm15.5 1.846c.1-.874-.5-1.65-1.4-1.748-.9-.097-1.7.486-1.8 1.36v.291l3.2.389v-.291Zm19.5 3.789c-.3-.195-.7-.292-.9-.292-.2 0-.3.194-.5.292l-.1.097v1.068c0 .68.1 1.36-.1 2.234-.1.389-.4.875-.8 1.166-.4.291-.9.291-1.3.194.3-.291.6-.486.6-.777.1-.194.1-.486 0-.777-.1-.486-.2-1.166-.3-1.943 0-.388 0-.777.1-1.262.1-.195.2-.486.4-.777.1-.098.2-.195.4-.292l.3-.194c.4-.194 1.1-.292 1.5 0 .6.486.7.874.7 1.263Z" fill="#213555"/><path d="M243.566 67.89c.46-4.214-1.883-7.91-5.233-8.255-3.35-.345-6.439 2.792-6.899 7.006-.46 4.214 1.883 7.91 5.233 8.255 3.35.345 6.439-2.792 6.899-7.006Zm22.016 1.685c.46-4.215-2.283-7.952-6.128-8.348-3.844-.395-7.333 2.7-7.793 6.914-.46 4.215 2.284 7.952 6.128 8.348 3.844.395 7.334-2.7 7.793-6.914Z" stroke="#213555" stroke-width="1.8" stroke-miterlimit="10" stroke-linecap="round" stroke-linejoin="round"/><path d="M243.657 66.852s2-1.554 8.1.874m13.8 1.166 7.1.971" stroke="#213555" stroke-width="1.8" stroke-miterlimit="10" stroke-linecap="round" stroke-linejoin="round"/><path d="M158.756 223.432c-1.2 0 4-11.851 9.3-10.199 5.3 1.554-2.6 10.199-9.3 10.199Zm.6 1.554s-5.8-6.994-11.5-5.44c-5.7 1.651 1.4 9.616 11.5 5.44Zm-1.7-6.994s8.6-14.376 4.9-17.775c-6.4-6.12-14.5 11.947-4.9 17.775Z" fill="#4F709C"/><path d="m172.056 250.629-12.6 2.72c-3.5.777-7.1-1.069-8.5-4.274l-5.7-13.405c-1.1-2.622.5-5.536 3.3-6.119l22.8-4.954c2.8-.583 5.5 1.36 5.7 4.177l.7 14.473c.2 3.497-2.2 6.605-5.7 7.382Z" fill="#213555"/><path d="M160.156 227.997s-4-11.753-2.5-17.29" stroke="#213555" stroke-width="1.8" stroke-miterlimit="10" stroke-linecap="round" stroke-linejoin="round"/></svg>