<svg class="svg-standalone-icon" viewBox="190.636 149.056 170.4 170.4"><g data-paper-data="{&quot;fillRule&quot;:&quot;evenodd&quot;,&quot;fillRuleOriginal&quot;:&quot;evenodd&quot;,&quot;isIcon&quot;:true,&quot;iconStyle&quot;:&quot;standalone&quot;,&quot;selectedEffects&quot;:{&quot;container&quot;:&quot;enclosed_circle_outline3&quot;,&quot;transformation&quot;:&quot;&quot;,&quot;pattern&quot;:&quot;&quot;},&quot;bounds&quot;:{&quot;x&quot;:190.63583468474076,&quot;y&quot;:149.05596510717842,&quot;width&quot;:170.40035067039298,&quot;height&quot;:170.40024843017758},&quot;widthRatioIconToContainer&quot;:0.8252427146104078,&quot;heightRatioIconToContainer&quot;:0.7667885914909307,&quot;relativeBoundsIconToContainer&quot;:{&quot;top&quot;:-0.000752105405696398,&quot;left&quot;:-3.993279276153919e-8},&quot;iconType&quot;:&quot;icon&quot;,&quot;rawIconId&quot;:&quot;1871988&quot;,&quot;combineTerms&quot;:&quot;pasta arquivo&quot;,&quot;isDetailed&quot;:false,&quot;blockLetter&quot;:&quot;O&quot;,&quot;suitableAsStandaloneIcon&quot;:true}" fill="#fff"><path d="M214.607 219.773c-3.809.586-7.031 2.93-9.082 5.566v-44.53c0-6.445 5.273-11.719 11.719-12.012h47.752c4.688 0 9.082 2.93 10.84 7.032l2.344 4.98c.293.879.586 1.465 1.465 2.05h-37.5l-27.538 27.539zm20.214-7.91h-17.577l25.78-25.78v17.577c0 4.394-3.515 7.91-8.203 8.203zm.293 2.636c5.86 0 10.84-4.687 10.84-10.84v-17.577h80.564c1.758 0 3.516.586 4.98 1.758 1.759 1.465 2.93 3.516 2.93 6.152v6.738h-47.752c-5.86 0-11.133 3.516-13.477 8.79l-2.05 4.687a9.015 9.015 0 0 1-8.203 5.273h-45.41v-4.98zm102.244-13.476v-7.03c0-2.052-.879-4.395-2.05-6.153 6.151.293 10.839 5.566 10.839 11.718v7.032c-2.344-2.93-5.566-4.688-9.082-5.567zm-2.93 2.637c6.446 0 11.719 5.273 11.719 11.425v72.655c0 6.445-5.273 11.718-11.719 11.718H217.537c-6.446 0-11.719-5.273-11.719-11.718v-53.612c0-6.445 5.273-11.719 11.719-11.719h45.409c4.687 0 8.789-2.93 10.84-7.03l2.05-4.688c2.05-4.394 6.152-7.031 10.84-7.031h47.752zm-91.757-47.907c10.556-4.465 21.61-6.697 33.165-6.697 11.554 0 22.61 2.232 33.165 6.697 10.193 4.311 19.22 10.397 27.08 18.257 7.86 7.86 13.947 16.888 18.258 27.081 4.465 10.556 6.697 21.61 6.697 33.165 0 11.554-2.232 22.61-6.697 33.165a85.882 85.882 0 0 1-3.974 8.17v-16.139c2.745-8.089 4.118-16.488 4.118-25.196 0-8.708-1.373-17.107-4.118-25.196v-9.502l-.007-.245-.082-1.403-.057-.49-.245-1.384-.115-.482-.405-1.346-.171-.465-.56-1.289-.225-.443-.709-1.214-.276-.415-.847-1.122-.328-.384-.975-1.013-.378-.347-1.09-.887-.425-.303-1.192-.745-.467-.253-1.276-.59-.502-.193-1.34-.422-.424-.11-2.311-.471a80.496 80.496 0 0 0-4.51-4.897c-7.258-7.258-15.592-12.877-25-16.856-9.74-4.12-19.944-6.18-30.612-6.18-10.669 0-20.872 2.06-30.612 6.18a79.613 79.613 0 0 0-5.911 2.79h-12.547a84.663 84.663 0 0 1 15.905-8.826zm66.33 157.007c-10.556 4.464-21.61 6.696-33.165 6.696s-22.61-2.232-33.165-6.696a84.626 84.626 0 0 1-16.266-9.083h12.422a79.504 79.504 0 0 0 6.397 3.046c9.74 4.12 19.943 6.18 30.612 6.18 10.668 0 20.872-2.06 30.612-6.18a79.504 79.504 0 0 0 6.397-3.046h12.422a84.628 84.628 0 0 1-16.266 9.083zm-111.668-45.34c-4.465-10.555-6.697-21.61-6.697-33.164 0-11.554 2.232-22.61 6.697-33.165a85.886 85.886 0 0 1 3.974-8.17v16.14c-2.745 8.089-4.117 16.487-4.117 25.195 0 9.013 1.47 17.694 4.41 26.043v15.817a85.781 85.781 0 0 1-4.267-8.695z" data-paper-data="{&quot;isPathIcon&quot;:true}"/></g></svg>