<svg xmlns:mydata="http://www.w3.org/2000/svg" mydata:contrastcolor="ffffff" mydata:template="Default" mydata:presentation="2.5" mydata:layouttype="undefined" mydata:specialfontid="undefined" mydata:id1="769" mydata:id2="769" mydata:companyname="Valida Quero" xmlns="http://www.w3.org/2000/svg" style="height:631px" viewBox="0 0 550 470"><g data-paper-data="{&quot;isGlobalGroup&quot;:true,&quot;bounds&quot;:{&quot;x&quot;:87.01894935002596,&quot;y&quot;:166.45678756034096,&quot;width&quot;:375.962101299948,&quot;height&quot;:137.0864248793181}}" fill="#fff" stroke-miterlimit="10" font-family="none" font-weight="none" font-size="none" text-anchor="none" style="mix-blend-mode:normal"><g data-paper-data="{&quot;isSecondaryText&quot;:true}"><path d="M125.411 272.497c-6.852 0-12.426 5.573-12.426 12.424 0 4.798 2.734 8.965 6.724 11.036a7.426 7.426 0 0 0-3.085 1.86.026.026 0 0 0 0 .037l3.506 3.506c.01.01.027.01.037 0a2.438 2.438 0 0 1 1.735-.719c.656 0 1.272.255 1.736.719a7.443 7.443 0 0 0 5.28 2.183 7.443 7.443 0 0 0 5.278-2.183.026.026 0 0 0 0-.037l-3.505-3.505a.027.027 0 0 0-.037 0 2.46 2.46 0 0 1-3.473 0 7.637 7.637 0 0 0-.586-.528c6.298-.598 11.241-5.916 11.241-12.369 0-6.85-5.574-12.424-12.425-12.424zm7.415 12.424c0 4.089-3.326 7.415-7.415 7.415-4.088 0-7.414-3.326-7.414-7.415 0-4.088 3.326-7.414 7.414-7.414 4.089 0 7.415 3.326 7.415 7.414z" data-paper-data="{&quot;glyphName&quot;:&quot;Q&quot;,&quot;glyphIndex&quot;:0,&quot;firstGlyphOfWord&quot;:true,&quot;word&quot;:1}"/><path d="M210.456 272.497H205.5a.026.026 0 0 0-.026.026v14.215c0 3.088-2.513 5.6-5.6 5.6a5.607 5.607 0 0 1-5.6-5.6v-14.215a.026.026 0 0 0-.027-.026h-4.957a.026.026 0 0 0-.026.026v14.215c0 5.85 4.76 10.61 10.61 10.61s10.61-4.76 10.61-10.61v-14.215a.026.026 0 0 0-.027-.026z" data-paper-data="{&quot;glyphName&quot;:&quot;U&quot;,&quot;glyphIndex&quot;:1,&quot;word&quot;:1}"/><path d="M259.961 297.347h21.168a.026.026 0 0 0 .026-.025v-4.96a.026.026 0 0 0-.026-.026h-16.182v-4.908h11.224a.026.026 0 0 0 .026-.026v-4.96a.026.026 0 0 0-.026-.026h-11.224v-4.908h16.182a.026.026 0 0 0 .026-.026v-4.96a.026.026 0 0 0-.026-.026h-21.168a.026.026 0 0 0-.026.026v24.8c0 .014.012.025.026.025z" data-paper-data="{&quot;glyphName&quot;:&quot;E&quot;,&quot;glyphIndex&quot;:2,&quot;word&quot;:1}"/><path d="M330.634 297.348h4.958a.026.026 0 0 0 .026-.026v-5.407h6.5c.158 0 .317-.004.474-.012l3.359 5.433a.026.026 0 0 0 .022.012h5.828c.01 0 .018-.005.022-.013a.026.026 0 0 0 0-.026l-4.337-7.014a9.682 9.682 0 0 0 4.34-8.089c0-5.354-4.355-9.71-9.709-9.71h-11.484a.026.026 0 0 0-.025.027v24.8c0 .013.012.025.026.025zm14.192-11.303a4.645 4.645 0 0 1-2.708.86h-6.5v-9.398h6.5a4.704 4.704 0 0 1 4.698 4.7 4.706 4.706 0 0 1-1.99 3.838z" data-paper-data="{&quot;glyphName&quot;:&quot;R&quot;,&quot;glyphIndex&quot;:3,&quot;word&quot;:1}"/><path d="M414.965 297.348c6.851 0 12.425-5.575 12.425-12.427 0-6.85-5.574-12.424-12.425-12.424-6.852 0-12.427 5.573-12.427 12.424 0 6.852 5.575 12.427 12.427 12.427zm-7.414-12.427c0-4.088 3.326-7.414 7.414-7.414 4.088 0 7.414 3.326 7.414 7.414 0 4.089-3.326 7.415-7.414 7.415-4.088 0-7.414-3.326-7.414-7.415z" data-paper-data="{&quot;glyphName&quot;:&quot;O&quot;,&quot;glyphIndex&quot;:4,&quot;lastGlyphOfWord&quot;:true,&quot;word&quot;:1}"/></g><g data-paper-data="{&quot;isPrimaryText&quot;:true}"><path d="M115.04 253.436h18.224a.09.09 0 0 0 .086-.063l27.93-86.796a.088.088 0 0 0-.014-.08.09.09 0 0 0-.073-.038h-18.224a.09.09 0 0 0-.086.063l-18.731 58.214-18.732-58.214a.09.09 0 0 0-.086-.063H87.11a.091.091 0 0 0-.087.118l27.93 86.796a.09.09 0 0 0 .087.063z" data-paper-data="{&quot;glyphName&quot;:&quot;V&quot;,&quot;glyphIndex&quot;:0,&quot;firstGlyphOfWord&quot;:true,&quot;word&quot;:1}"/><path d="M154.473 224.193h18.818a.091.091 0 0 0 .073-.037.092.092 0 0 0 .013-.08l-9.41-29.242c-.023-.075-.148-.075-.171 0l-9.41 29.241a.09.09 0 0 0 .087.118zm24.402 17.181h-29.987a.09.09 0 0 0-.086.063l-3.824 11.879a.09.09 0 0 0 .086.118H182.7a.091.091 0 0 0 .073-.037.092.092 0 0 0 .013-.08l-3.825-11.88a.09.09 0 0 0-.086-.063zm96.136-5.48h-56.635v-69.347a.09.09 0 0 0-.09-.09h-45.29a.091.091 0 0 0-.073.037.092.092 0 0 0-.013.08l27.93 86.796c.002.005.008.004.01.008.015.03.04.055.076.055h74.085c.05 0 .09-.04.09-.09v-17.359a.09.09 0 0 0-.09-.09z" data-paper-data="{&quot;glyphName&quot;:&quot;&quot;,&quot;glyphIndex&quot;:1,&quot;word&quot;:1}"/><path d="M286.18 253.434h17.352c.05 0 .09-.04.09-.09v-86.796a.09.09 0 0 0-.09-.09H286.18a.09.09 0 0 0-.09.09v86.795c0 .05.04.09.09.09z" data-paper-data="{&quot;glyphName&quot;:&quot;I&quot;,&quot;glyphIndex&quot;:2,&quot;word&quot;:1}"/><path d="M314.717 253.434h30.687c23.98 0 43.489-19.51 43.489-43.489 0-23.98-19.51-43.488-43.49-43.488h-30.686a.09.09 0 0 0-.09.09v86.796c0 .05.04.09.09.09zm17.443-69.437h13.244c14.308 0 25.948 11.64 25.948 25.948s-11.64 25.948-25.948 25.948H332.16z" data-paper-data="{&quot;glyphName&quot;:&quot;D&quot;,&quot;glyphIndex&quot;:3,&quot;word&quot;:1}"/><path d="M388.807 253.436h18.224a.09.09 0 0 0 .086-.063l3.803-11.818h29.857l3.803 11.818a.09.09 0 0 0 .086.063h18.224a.091.091 0 0 0 .087-.118l-27.929-86.796a.09.09 0 0 0-.086-.063h-18.224a.09.09 0 0 0-.086.063l-27.93 86.796a.09.09 0 0 0 .085.118zm27.759-29.424 9.283-28.852 9.284 28.852z" data-paper-data="{&quot;glyphName&quot;:&quot;A&quot;,&quot;glyphIndex&quot;:4,&quot;lastGlyphOfWord&quot;:true,&quot;word&quot;:1}"/></g></g><g class="watermark-group" style="opacity:.040000010281801224"/><path data-element-id="element-id-40455" fill="transparent" class="invisible-element-box grouping-element" data-element-name="isPrimaryText" d="M87 166h376v87H87z"/><path data-element-id="element-id-64524" fill="transparent" class="invisible-element-box individual-element" d="M145 166h130v87H145z"/><path data-element-id="element-id-37429" fill="transparent" class="invisible-element-box grouping-element" data-element-name="isSecondaryText" d="M113 272h314v31H113z"/><path data-element-id="element-id-80773" fill="transparent" class="invisible-element-box individual-element" d="M87 166h74v87H87z"/><path data-element-id="element-id-5814" fill="transparent" class="invisible-element-box individual-element" d="M315 166h74v87h-74z"/><path data-element-id="element-id-23056" fill="transparent" class="invisible-element-box individual-element" d="M389 166h74v87h-74z"/><path data-element-id="element-id-15103" fill="transparent" class="invisible-element-box individual-element" d="M286 166h18v87h-18z"/><path data-element-id="element-id-98091" fill="transparent" class="invisible-element-box individual-element" d="M113 272h25v31h-25z"/><path data-element-id="element-id-75630" fill="transparent" class="invisible-element-box individual-element" d="M403 272h25v25h-25z"/><path data-element-id="element-id-55874" fill="transparent" class="invisible-element-box individual-element" d="M189 272h21v25h-21z"/><path data-element-id="element-id-42649" fill="transparent" class="invisible-element-box individual-element" d="M260 272h21v25h-21z"/><path data-element-id="element-id-56567" fill="transparent" class="invisible-element-box individual-element" d="M331 272h21v25h-21z"/></svg>