<svg width="262" height="262" viewBox="0 0 262 262" fill="none" xmlns="http://www.w3.org/2000/svg"><path d="M209.249 209.555c-58.345 56.576-130.834 67.69-157.102 28.793-23.237-34.35-1.263-95.473 46.221-139.674C145.095 55.231 206.723 37.3 240.063 60.283c37.633 25.763 26.52 93.705-30.814 149.272Z" fill="#CD3A3B"/><path d="M200.914 200.967c-58.345 56.577-130.834 67.69-157.102 28.793-23.236-34.35-1.263-95.473 46.222-139.673C136.76 46.644 198.387 28.71 231.727 51.695c37.886 26.015 26.52 93.958-30.814 149.272Z" fill="#EA5455"/><path d="M176.414 176.467c-35.108 33.593-79.056 41.928-96.736 19.448-16.165-20.711-3.284-59.86 27.53-88.653 30.562-28.541 70.216-39.402 90.675-23.237 21.974 17.175 13.134 59.102-21.469 92.442Z" fill="#4F709C"/><path d="M153.935 153.988c-13.892 13.134-31.572 16.923-39.149 8.588-7.325-8.083-2.526-24.5 10.608-36.876 13.134-12.376 30.056-16.418 38.139-9.093 8.335 7.325 4.294 24.247-9.598 37.381Z" fill="#F4C2C9"/><path d="M71.816 74.629c-5.304 5.051-13.891 4.546-18.69-.758L8.167 16.537c-2.273-3.031-2.02-7.325.758-9.85 2.778-2.527 7.072-2.527 9.85 0l53.546 49.251c5.305 5.304 5.052 13.64-.505 18.69Z" fill="#213555"/><path d="m18.523 27.398-14.397 2.02c-4.041.505-5.557 5.557-2.526 8.083 8.84 7.83 19.7 12.88 31.32 14.901l7.324 1.263c.758.253 1.516-.757 1.01-1.515L23.07 29.166c-1.263-1.263-2.778-2.021-4.546-1.768ZM29.131 17.8l3.284-14.145c.758-3.788 5.81-5.051 8.335-1.768 7.072 9.346 11.366 20.459 12.376 32.33l.505 7.325c0 .757-1.01 1.262-1.515.757l-21.47-19.7c-1.515-1.516-2.02-3.284-1.515-4.8Z" fill="#4F709C"/><path d="m69.795 72.356 14.397 15.407" stroke="#213555" stroke-width="1.8" stroke-miterlimit="10" stroke-linecap="round" stroke-linejoin="round"/></svg>