<svg width="376" height="226" viewBox="0 0 376 226" fill="none" xmlns="http://www.w3.org/2000/svg"><g opacity=".9"><path d="m328.85 225.761-288.932-7.715c-13.446-.363-24.503-9.943-25.837-22.422L.135 67.202C-1.421 52.651 10.692 39.964 26.36 39.757l321.603-4.142c16.225-.208 28.949 12.997 26.949 28.014l-18.725 140.28c-1.723 12.739-13.558 22.215-27.338 21.852Z" fill="#EBDFD7"/><mask id="a" style="mask-type:alpha" maskUnits="userSpaceOnUse" x="0" y="35" width="376" height="191"><path d="m328.85 225.761-288.932-7.715c-13.446-.363-24.503-9.943-25.837-22.422L.135 67.202C-1.421 52.651 10.692 39.964 26.36 39.757l321.603-4.142c16.225-.208 28.949 12.997 26.949 28.014l-18.725 140.28c-1.723 12.739-13.558 22.215-27.338 21.852Z" fill="#EAF9F3"/></mask><g mask="url(#a)"><path d="M93.037 249.064H-137.83c-4.612 0-8.335-3.47-8.335-7.768V119.244c0-4.298 3.723-7.768 8.335-7.768H93.037c4.612 0 8.335 3.47 8.335 7.768v122.052c0 4.298-3.723 7.768-8.335 7.768Zm305.101-8.182H165.27c-4.612 0-8.334-3.47-8.334-7.768V54.826c0-4.298 3.722-7.768 8.334-7.768h232.868c4.612 0 8.335 3.47 8.335 7.768v178.288c0 4.298-3.723 7.768-8.335 7.768ZM37.696 75.073h-49.952v-4.609h49.952c.555 0 1 .414 1 .932v2.693c0 .57-.445.984-1 .984Zm-9.057-4.609h-11.28c-1.222 0-2.222-.828-2.389-1.968l-.889-7.456c-.167-1.295.945-2.486 2.39-2.486h13.057c1.444 0 2.5 1.14 2.389 2.486l-.889 7.456c-.167 1.088-1.167 1.968-2.39 1.968Z" stroke="#D8C4B6" stroke-width="1.8" stroke-miterlimit="10" stroke-linecap="round" stroke-linejoin="round"/><path d="M21.638 58.554s-4.445-.414-5.334-6.007c0 0 4 1.088 5.278 3.729 0 0 .556-5.904 3.556-6.473 0 0 1.334 4.401-.778 6.576 0 0 1.612-2.485 5.723-2.434 0 0-1.055 3.522-5.111 4.557" fill="#D8C4B6"/><path d="M91.26 137.264H41.14c-1.277 0-2.333-.984-2.333-2.175v-14.188c0-1.191 1.056-2.175 2.334-2.175h50.118c1.278 0 2.334.984 2.334 2.175v14.188c.056 1.191-1 2.175-2.334 2.175Z" stroke="#D8C4B6" stroke-width="1.8" stroke-miterlimit="10" stroke-linecap="round" stroke-linejoin="round"/><path d="M71.979 123.697H60.42c-.444 0-.833-.362-.833-.777 0-.414.389-.776.833-.776h11.56c.444 0 .833.362.833.776 0 .415-.389.777-.833.777Z" fill="#D8C4B6"/><path d="M91.26 160.981H41.14c-1.277 0-2.333-.984-2.333-2.175v-14.189c0-1.191 1.056-2.175 2.334-2.175h50.118c1.278 0 2.334.984 2.334 2.175v14.189c.056 1.191-1 2.175-2.334 2.175Z" stroke="#D8C4B6" stroke-width="1.8" stroke-miterlimit="10" stroke-linecap="round" stroke-linejoin="round"/><path d="M71.979 147.413H60.42c-.444 0-.833-.362-.833-.776 0-.415.389-.777.833-.777h11.56c.444 0 .833.362.833.777 0 .466-.389.776-.833.776Z" fill="#D8C4B6"/><path d="M348.631 177.707h-50.119c-1.278 0-2.333-.984-2.333-2.175v-14.189c0-1.191 1.055-2.175 2.333-2.175h50.119c1.278 0 2.334.984 2.334 2.175v14.189c.055 1.191-1.001 2.175-2.334 2.175Z" stroke="#D8C4B6" stroke-width="1.8" stroke-miterlimit="10" stroke-linecap="round" stroke-linejoin="round"/><path d="M329.35 164.191h-11.557c-.445 0-.834-.362-.834-.776 0-.415.389-.777.834-.777h11.557c.445 0 .834.362.834.777 0 .414-.389.776-.834.776Z" fill="#D8C4B6"/><path d="M284.288 177.707h-50.119c-1.278 0-2.333-.984-2.333-2.175v-14.189c0-1.191 1.055-2.175 2.333-2.175h50.119c1.278 0 2.334.984 2.334 2.175v14.189c0 1.191-1.056 2.175-2.334 2.175Z" stroke="#D8C4B6" stroke-width="1.8" stroke-miterlimit="10" stroke-linecap="round" stroke-linejoin="round"/><path d="M265.007 164.191H253.45c-.445 0-.834-.362-.834-.776 0-.415.389-.777.834-.777h11.557c.445 0 .834.362.834.777 0 .414-.389.776-.834.776Z" fill="#D8C4B6"/><path d="M27.36 137.264h-50.118c-1.278 0-2.333-.984-2.333-2.175v-14.188c0-1.191 1.055-2.175 2.333-2.175h50.119c1.278 0 2.334.984 2.334 2.175v14.188c.055 1.191-1 2.175-2.334 2.175Z" stroke="#D8C4B6" stroke-width="1.8" stroke-miterlimit="10" stroke-linecap="round" stroke-linejoin="round"/><path d="M8.08 123.697H-3.477c-.445 0-.834-.362-.834-.777 0-.414.39-.776.834-.776H8.08c.445 0 .834.362.834.776 0 .415-.334.777-.834.777Z" fill="#D8C4B6"/><path d="M27.36 160.981h-50.118c-1.278 0-2.333-.984-2.333-2.175v-14.189c0-1.191 1.055-2.175 2.333-2.175h50.119c1.278 0 2.334.984 2.334 2.175v14.189c.055 1.191-1 2.175-2.334 2.175Z" stroke="#D8C4B6" stroke-width="1.8" stroke-miterlimit="10" stroke-linecap="round" stroke-linejoin="round"/><path d="M8.08 147.413H-3.477c-.445 0-.834-.362-.834-.776 0-.415.39-.777.834-.777H8.08c.445 0 .834.362.834.777 0 .466-.334.776-.834.776Z" fill="#D8C4B6"/><path d="M421.586 101.327H168.771c-1.389 0-2.556-1.088-2.556-2.382V57.674c0-1.295 1.167-2.382 2.556-2.382h252.815c1.389 0 2.556 1.087 2.556 2.382v41.27c0 1.295-1.111 2.383-2.556 2.383Zm0 51.213H168.771c-1.389 0-2.556-1.087-2.556-2.382v-41.271c0-1.294 1.167-2.382 2.556-2.382h252.815c1.389 0 2.556 1.088 2.556 2.382v41.271c0 1.347-1.111 2.382-2.556 2.382Z" stroke="#D8C4B6" stroke-width="1.8" stroke-miterlimit="10" stroke-linecap="round" stroke-linejoin="round"/><path d="M188.774 75.28h-5.501v26.047h5.501V75.28Z" stroke="#D8C4B6" stroke-width="1.8" stroke-miterlimit="10" stroke-linecap="round" stroke-linejoin="round"/><path d="M194.441 82.374h-5.723v18.953h5.723V82.374Zm160.08 44.068h-5.501v26.046h5.501v-26.046Zm5.723 7.094h-5.723v18.952h5.723v-18.952Zm-16.892-7.094h-5.501v26.046h5.501v-26.046Z" stroke="#D8C4B6" stroke-width="1.8" stroke-miterlimit="10" stroke-linecap="round" stroke-linejoin="round"/><path d="m337.929 127.411-5.245-1.544-8.415 24.838 5.245 1.544 8.415-24.838Zm11.146 6.125h-5.723v18.952h5.723v-18.952ZM280.343 75.28h-5.501v26.047h5.501V75.28Z" stroke="#D8C4B6" stroke-width="1.8" stroke-miterlimit="10" stroke-linecap="round" stroke-linejoin="round"/><path d="M286.066 82.374h-5.723v18.953h5.723V82.374Zm-60.064-7.094h-5.501v26.047h5.501V75.28Z" stroke="#D8C4B6" stroke-width="1.8" stroke-miterlimit="10" stroke-linecap="round" stroke-linejoin="round"/><path d="m220.576 76.241-5.245-1.543-8.416 24.838 5.246 1.543 8.415-24.838Zm11.149 6.133h-5.724v18.953h5.724V82.374Z" stroke="#D8C4B6" stroke-width="1.8" stroke-miterlimit="10" stroke-linecap="round" stroke-linejoin="round"/><path d="m354.465 78.698.611-7.716c.056-.518-.389-.932-.945-.932h-4.778a.916.916 0 0 0-.945.932l.612 7.716s-5.001 3.003-4.946 5.489c.056 1.916 1.278 11.081 1.834 15.12.167 1.139 1.167 1.968 2.389 1.968h6.89c1.223 0 2.223-.829 2.389-1.968.556-4.039 1.778-13.204 1.834-15.12.056-2.538-4.945-5.49-4.945-5.49Zm-22.17 0 .611-7.716c.056-.518-.389-.932-.944-.932h-4.779a.916.916 0 0 0-.944.932l.611 7.716s-5.001 3.003-4.945 5.489c.055 1.916 1.278 11.081 1.833 15.12.167 1.139 1.167 1.968 2.39 1.968h6.89c1.222 0 2.222-.829 2.389-1.968.555-4.039 1.778-13.204 1.833-15.12.056-2.538-4.945-5.49-4.945-5.49Z" fill="#D8C4B6"/><path d="M-.699 201.423H530.38" stroke="#D8C4B6" stroke-width="1.8" stroke-miterlimit="10" stroke-linecap="round" stroke-linejoin="round"/></g><path d="M54.087 206.705h-5.945v6.784h5.778l.167-6.784Zm255.094 0h5.945v6.784h-5.779l-.166-6.784Z" fill="#4F709C"/><path d="M334.351 204.168H28.917l32.505-13.257H301.79l32.561 13.257Z" fill="#EA5455"/><path d="M334.351 204.168H28.917v3.987H334.35v-3.987Z" fill="#D8C4B6"/><path d="m64.978 173.668-7.057 3.78c-1.056.569-2.445.259-3.056-.777l-20.225-32.52c-.611-.984-.278-2.278.833-2.848l7.057-3.78c1.055-.569 2.444-.259 3.056.777l20.225 32.52c.611.983.222 2.278-.834 2.848Z" fill="#213555"/><path d="M60.032 169.059c-.61-.984-2-1.346-3.055-.777-1.056.57-1.445 1.864-.834 2.848.611.984 2 1.347 3.056.777s1.445-1.812.834-2.848Z" fill="#4F709C"/><path d="m50.753 163.881 5.168-2.797m-6.613.518 5.223-2.796" stroke="#4F709C" stroke-width="1.8" stroke-miterlimit="10" stroke-linecap="round" stroke-linejoin="round"/><path d="m75.646 151.453-4.557 17.969c-.166.517 2.5 1.812 6.057 2.951 3.5 1.139 6.556 1.657 6.723 1.191l8.39-16.726-16.613-5.385Z" fill="#EA5455"/><path d="m87.925 161.344 3.112.983c1.389.466 2 1.916 1.333 3.107l-2.611 4.661c-.556.984-1.778 1.398-2.89 1.035l-3.389-1.087" stroke="#EA5455" stroke-width="1.8" stroke-miterlimit="10" stroke-linecap="round" stroke-linejoin="round"/><path d="M92.26 156.89c-.223.621-4.168-.052-8.724-1.554-4.612-1.501-8.112-3.21-7.89-3.883.222-.622 4.167.052 8.723 1.553 4.612 1.502 8.113 3.211 7.89 3.884Zm29.559-93.313L58.088 79.32c-2.334.57-4.612-.88-4.89-3.107l-7.946-64.055c-.166-1.554 1.167-2.9 2.834-2.745l64.788 4.195c1.833.103 3.333 1.398 3.611 3.107l7.223 44.119c.278 1.19-.611 2.433-1.889 2.744Z" fill="#4F709C"/><path d="M124.764 63.784 60.366 79.682c-2.334.57-4.668-.933-4.946-3.16l-8-64.728c-.167-1.553 1.166-2.9 2.889-2.796l65.509 4.194c1.834.104 3.39 1.398 3.668 3.107l7.334 44.585c.111 1.347-.722 2.538-2.056 2.9Z" fill="#213555"/><path d="m74.368 21.27-15.724-.207c-.334 0-.556-.207-.612-.518l-.222-1.657c-.056-.362.278-.673.611-.673l15.78.414c.334 0 .556.207.612.518l.222 1.502c0 .31-.278.621-.667.621Z" fill="#4F709C"/><path d="m58.81 26.76 30.449-.363m-29.671 6.11 19.28-.725" stroke="#4F709C" stroke-width="1.8" stroke-miterlimit="10" stroke-linecap="round" stroke-linejoin="round"/><path d="m66.811 67.927-1.833.362a.667.667 0 0 1-.834-.57L62.31 53.377c-.055-.363.223-.673.612-.725l1.833-.26a.683.683 0 0 1 .778.57l1.89 14.24c-.056.363-.278.674-.612.726Z" fill="#EA5455"/><path d="m73.312 65.907-3.056-22.784c-.055-.363.222-.673.611-.725l1.556-.156c.39-.051.722.208.722.57l3.057 22.577c.055.311-.167.622-.556.725l-1.611.311c-.278.104-.667-.155-.723-.518Z" fill="#4F709C"/><path d="m81.814 64.198-1.167-8.388c-.056-.363.222-.674.555-.725l1.334-.208a.683.683 0 0 1 .778.57l1.167 8.337c.055.31-.167.622-.556.725l-1.334.259c-.388.052-.777-.207-.777-.57Z" fill="#EA5455"/><path d="m91.593 62.956-1.167.207c-.39.103-.778-.155-.834-.518l-.666-4.505c-.056-.363.222-.673.555-.725l1.167-.207c.389-.052.778.207.778.57l.667 4.505a.59.59 0 0 1-.5.673Z" fill="#F4C2C9"/><path d="m114.263 56.69-4.779-9.994 4.112-8.855c1.889 1.864 3.278 4.66 3.834 7.82.611 4.504-.667 8.802-3.167 11.03Z" fill="#4F709C"/><path d="m113.54 37.841-4.111 8.855-8.057-6.007c1.167-3.055 3.445-5.178 6.279-5.334 2.111-.155 4.223.777 5.889 2.486Z" fill="#F4C2C9"/><path d="M114.263 56.69c-.889.777-1.89 1.294-3.001 1.502-4.667.932-9.501-3.729-10.501-10.409-.389-2.64-.112-5.126.611-7.146l8.057 6.007 4.834 10.046Zm53.841-44.12c2.667 4.817 6.001 9.58 8.001 12.273.889 1.191 2.612 1.45 3.834.622 2.5-1.657 5.834-3.314 8.168-4.402 1.389-.673 2.056-2.226 1.445-3.573-1.501-3.262-3.056-7.612-4.334-11.444-1.723-5.075-7.835-7.508-12.947-5.126-4.667 2.123-6.556 7.353-4.167 11.65Z" fill="#EA5455"/><path d="M186.551 18.215c.834 0 1.612.31 2.056.932.889 1.191 2.556 3.21 4.334 4.402 2.612 1.709 12.113 3.21 12.891 4.505.778 1.294-1.5 1.709-3.056 1.553-1.612-.103-2.89-.31-3.223.311-.333.621.111 3.21 2.278 5.023 2.112 1.812 6.057 3.728 6.223 5.385.167 1.657-4.222.052-6.167-1.087-2.001-1.087-2.501-1.346-2.501-1.346s-.277.517-1.833 1.035c-.889.26-1.834-.414-2.667-.259-.834.156-4.556 1.916-6.335 1.088-1.278-.622-4.111-6.628-5.5-8.234-1-1.19-3.39-4.608-4.557-6.317a2.01 2.01 0 0 1-.055-2.279c.944-1.709 3.389-4.557 8.112-4.712Z" fill="#F4C2C9"/><path d="M199.331 37.945s-2.167-1.036-3.056-1.865c-.5-.466-.889-1.139-.889-1.139m-.556 3.729s-1.333-.519-1.833-.88c-.5-.415-1.223-1.503-1.223-1.503m-.166 3.418s-1-.362-1.556-.828c-.389-.311-1.167-1.243-1.167-1.243" stroke="#EBDFD7" stroke-width="1.8" stroke-miterlimit="10" stroke-linecap="round" stroke-linejoin="round"/><path d="M149.768 53.531a.473.473 0 0 1 .889 0c.278.777.611 1.605 1 1.968.334.31 1.278.673 2.112.932.444.155.444.673 0 .829-.834.259-1.723.57-2.112.932-.333.31-.722 1.19-1 1.967a.473.473 0 0 1-.889 0c-.278-.776-.611-1.605-1-1.967-.334-.311-1.278-.673-2.112-.932-.444-.156-.444-.674 0-.829.834-.259 1.723-.57 2.112-.932.389-.363.722-1.191 1-1.968Zm6.723-29.879a.355.355 0 0 1 .667 0c.222.57.444 1.191.722 1.399.278.259.889.466 1.5.673.334.103.334.518 0 .621-.611.207-1.278.414-1.5.673-.278.26-.5.829-.722 1.398a.355.355 0 0 1-.667 0c-.222-.57-.444-1.19-.722-1.398-.278-.259-.889-.466-1.5-.673-.334-.103-.334-.518 0-.621.611-.207 1.278-.415 1.5-.673.278-.26.555-.88.722-1.398Zm52.619 25.737a.355.355 0 0 1 .667 0c.222.57.444 1.19.722 1.398.278.207.889.466 1.5.673.334.103.334.518 0 .621-.611.207-1.278.414-1.5.673-.278.26-.5.829-.722 1.399a.355.355 0 0 1-.667 0c-.222-.57-.444-1.191-.722-1.399-.278-.258-.889-.466-1.501-.673-.333-.103-.333-.518 0-.621.612-.207 1.278-.414 1.501-.673.278-.207.555-.829.722-1.398Z" fill="#4F709C"/><path d="M162.103 40.533c.111-.258.445-.258.5 0 .167.467.389.933.556 1.14.222.207.722.414 1.222.518.278.103.278.414 0 .466-.5.155-1 .362-1.222.518-.222.207-.445.673-.556 1.139-.111.259-.444.259-.5 0-.167-.466-.389-.932-.556-1.14-.222-.207-.722-.414-1.222-.517-.278-.104-.278-.415 0-.466.5-.156 1-.363 1.222-.518.167-.156.389-.673.556-1.14Zm51.452 22.682a.473.473 0 0 1 .889 0c.278.776.611 1.605 1 1.967.334.311 1.278.673 2.112.932.444.156.444.673 0 .829-.834.259-1.723.57-2.112.932-.333.31-.722 1.191-1 1.968a.473.473 0 0 1-.889 0c-.278-.777-.611-1.606-1-1.968-.333-.31-1.278-.673-2.112-.932-.444-.156-.444-.673 0-.829.834-.259 1.723-.57 2.112-.932.333-.362.722-1.19 1-1.968Z" fill="#EA5455"/><path d="M307.458 52.91s-.778.725.667 6.214c1.444 5.489 4.723 9.683 4.723 9.683s4.222-3.314 2.944-9.01c-1.222-5.696-8.334-6.887-8.334-6.887Z" fill="#213555"/><path d="M308.292 69.066s-1.112.31-3.723 2.848c-2.612 2.537-6.446 3.832-11.002 5.748-4.556 1.916-6.779-6.99-5.612-11.496 1.112-4.505 6.112-7.612 6.112-7.612l9.724 1.243s3.223-3.573 4.501-1.243c1.222 2.33 1.111 7.56 0 10.512Z" fill="#F4C2C9"/><path d="m299.957 85.585-33.116 7.094c-1.445.31-2.889-.518-3.223-1.864l-9.39-37.905c-.333-1.347.556-2.693 2-3.004l33.116-7.094c1.445-.31 2.89.518 3.223 1.864l9.335 37.905c.389 1.347-.5 2.693-1.945 3.004Z" fill="#213555"/><path d="m286.01 53.687-21.558 4.608c-.723.156-1.389-.259-1.556-.932-.167-.673.278-1.294 1-1.45l21.559-4.608c.722-.156 1.389.258 1.556.932.111.621-.334 1.294-1.001 1.45Z" fill="#EA5455"/><path d="m264.396 63.629 24.115-5.178m-23.17 8.958 24.115-5.178" stroke="#4F709C" stroke-width="1.8" stroke-miterlimit="10" stroke-linecap="round" stroke-linejoin="round"/><path d="m279.732 82.323-8.891 1.915c-.722.156-1.389-.258-1.555-.932l-2.056-8.285c-.167-.673.278-1.294 1-1.45l8.89-1.916c.722-.155 1.389.26 1.556.932l2.056 8.285c.111.622-.334 1.295-1 1.45Z" fill="#EA5455"/><path d="m281.954 70.568 9.057-1.968m-8.056 6.059 9.112-1.916m-8.112 6.058 5.5-1.19" stroke="#4F709C" stroke-width="1.8" stroke-miterlimit="10" stroke-linecap="round" stroke-linejoin="round"/><path d="m279.009 46.23-11.779 2.537c-.834.155-1.556-.518-1.389-1.295l.111-.517c.111-.415.444-.725.889-.829l11.279-2.434c.445-.103.889.052 1.167.363l.334.414c.555.673.222 1.605-.612 1.76Z" fill="#4F709C"/><path d="M304.569 56.638s-1.389.673-4.057 0c-2.667-.673-3.111-1.294-5.889-1.968-2.778-.673-6.612.052-7.279 1.14-.667 1.087 1.111 1.76 3.5 2.02 2.39.258 3.501 4.504 7.335 6.11 6.39 2.64 12.057-5.438 6.39-7.302Z" fill="#F4C2C9"/><path d="M287.344 55.81c-.667 1.087 1.111 1.76 3.5 2.02 2.39.258 3.501 4.504 7.335 6.11 1.333.57 2.611.62 3.778.414" stroke="#EBDFD7" stroke-width="1.8" stroke-miterlimit="10" stroke-linecap="round" stroke-linejoin="round"/><path d="M308.792 54.256s-2.945 1.76-4.223 2.382c0 0 2.5 2.279 3.5 6.37 1.001 4.09.223 6.058.223 6.058s3.278-.31 4.889-1.398c0 0 1.556-2.382.278-7.043-1.278-4.66-4.667-6.369-4.667-6.369Z" fill="#fff"/><path d="M343.686 47.939c-2.223-6.836-10.891-9.632-17.17-5.541-3.667 2.382-7.501 4.712-10.557 6.266l-8.501 4.297s4.834 4.454 5.556 9.373c.723 4.92-.166 6.525-.166 6.525s13.28-3.055 25.003-8.389c4.946-2.33 7.446-7.612 5.835-12.531Z" fill="#4F709C"/><path d="M311.736 65.079c0-.363-.277-.622-.666-.622s-.667.26-.667.622.278.621.667.621.666-.259.666-.621Z" fill="#213555"/><path d="m237.17 160.67 39.283-4.298-.666 6.628-7.724 1.036-.778 1.346-30.115-4.712Z" fill="#4F709C"/><path d="m267.285 164.657 10.224-37.75c.333-1.294 1.556-2.33 2.945-2.485l52.508-7.302c1.111-.155 2.056.829 1.722 1.865l-10.724 33.814a3.584 3.584 0 0 1-2.667 2.33l-52.174 11.341c-1.111.207-2.111-.725-1.834-1.813Z" fill="#213555"/><path d="M307.458 140.527c-.556 1.864-2.389 3.676-4.223 4.039-1.778.362-2.834-.881-2.278-2.745s2.389-3.676 4.223-4.039c1.778-.362 2.834.88 2.278 2.745Z" fill="#4F709C"/><path d="M268.063 166.315c-.167-.104-22.948-2.9-29.282-3.729-.945-.103-1.611-.828-1.611-1.709v-.207l30.893 3.366v2.279Z" fill="#213555"/><path d="M315.848 95.165h17.114c.778 0 1.445.621 1.389 1.398l-.889 9.994c-.056.88-.778 1.553-1.723 1.657l-17.224 1.76c-.834.104-1.556-.569-1.501-1.346l.945-11.755c0-.984.889-1.708 1.889-1.708Z" stroke="#4F709C" stroke-width="1.8" stroke-miterlimit="10" stroke-linecap="round" stroke-linejoin="round"/><path d="m314.737 95.527 10.001 5.023a2.085 2.085 0 0 0 2.056-.155l7.112-4.868" stroke="#4F709C" stroke-width="1.8" stroke-miterlimit="10" stroke-linecap="round" stroke-linejoin="round"/><path d="m219.667 44.78-1.778 1.812c-.278.26-.278.725 0 1.036a.895.895 0 0 0 1 .155l2.112-1.19-1.334-1.813Zm16.225 4.402.5 2.433c.056.363-.167.777-.556.88-.389.104-.778-.051-.944-.413l-1.111-2.072 2.111-.828Z" fill="#213555"/><path d="M229.946 51.305c6.69 0 12.113-5.054 12.113-11.289 0-6.235-5.423-11.289-12.113-11.289-6.689 0-12.113 5.054-12.113 11.289 0 6.235 5.424 11.289 12.113 11.289Z" fill="#4F709C"/><path d="M233.685 46.38c3.765-1.929 5.139-6.336 3.07-9.845-2.069-3.508-6.799-4.79-10.564-2.86-3.765 1.928-5.139 6.336-3.069 9.844 2.069 3.509 6.799 4.79 10.563 2.861Z" fill="#EA5455"/><path d="m232.114 42.605-2.167-2.59 1.166-3.624" stroke="#4F709C" stroke-width="1.8" stroke-miterlimit="10" stroke-linecap="round" stroke-linejoin="round"/><path d="M222.223 29.09c-.333.103-.722-.052-.833-.415-.278-1.501.611-3.003 2.222-3.573 1.612-.57 3.334 0 4.223 1.295.222.31.056.673-.333.829l-5.279 1.864Zm20.503 5.592c.222.26.667.31.945.052 1.111-1.14 1.222-2.848.166-4.143a3.58 3.58 0 0 0-4.278-.983c-.333.155-.445.57-.222.828l3.389 4.246Zm-7.279-6.783-3.167-.829c-.5-.155-.833-.621-.667-1.14a.995.995 0 0 1 1.223-.62l3.167.828c.5.155.833.621.667 1.14-.167.465-.723.776-1.223.62Z" fill="#4F709C"/><path d="m232.861 26.622-.869 2.785 2.295.621.868-2.784-2.294-.622Z" fill="#4F709C"/><path d="m100.649 115.308.501 4.764c.055.466-.223.932-.723 1.139-1.556.674-2.5 2.175-2.334 3.729l.612 5.282c.166 1.605 1.444 2.899 3.111 3.21.5.104.889.518.945.984l.5 4.764c.111.88-.889 1.502-1.723 1.088l-1.222-.57c-2.667-1.243-4.5-3.728-4.778-6.525l-1.167-10.512c-.334-2.796.944-5.54 3.278-7.301l1.111-.829c.667-.517 1.778-.103 1.889.777Z" fill="#213555"/><path d="M126.598 14.694c1 6.317-2.778 12.065-9.113 12.894-7.278.932-14.891-4.92-15.891-12.998-.944-7.923 5.001-13.36 12.28-12.428 6.39.829 11.779 6.318 12.724 12.532Z" fill="#F8AB5D"/><path d="M129.21 13.606c1 6.525-2.834 12.48-9.391 13.309-7.556.983-15.391-5.075-16.391-13.412-1-8.182 5.167-13.774 12.668-12.842 6.557.88 12.113 6.576 13.114 12.945Z" fill="#EA5455"/><path d="M120.097 9.982c.222 1.605-.834 2.848-2.389 2.848-1.612 0-3.167-1.399-3.39-3.056-.222-1.657.945-2.9 2.556-2.796 1.556.104 3.001 1.45 3.223 3.004Z" fill="#213555"/><path d="m121.597 20.131-5.723.363c-1.389.103-2.667-.984-2.889-2.434-.445-3.16 1.778-5.645 4.723-5.593 2.778.052 5.278 2.382 5.723 5.178.111 1.347-.667 2.434-1.834 2.486Zm178.638 86.84c-.834-.828-2.223-.88-3.112-.155-.889.777-.944 2.071-.167 2.9.778.828 2.223.88 3.112.155.945-.777 1-2.071.167-2.9Z" fill="#213555"/><path d="m297.345 102.259-.389-.414c-1.277-1.295-3.445-1.398-4.889-.207-1.389 1.191-1.5 3.21-.222 4.556l.389.415c.444.466.777.984.944 1.605.111.466.278.984.389 1.502.278 1.087 1.723 1.501 2.667.725l2.445-2.072 2.445-2.071c.889-.777.611-2.123-.556-2.537-.556-.156-1.056-.363-1.556-.518-.666-.207-1.222-.518-1.667-.984Z" fill="#4F709C"/><path d="M253.228 110.389s1.333 5.903 0 13.049l18.002-3.625s-4-6.214-5.056-11.91l-12.946 2.486Z" fill="#213555"/><path d="m253.617 113.082 13.224-2.59m-10.113 5.023 8.557-1.916m-8.39 4.402 5.723-1.243" stroke="#4F709C" stroke-width="1.8" stroke-miterlimit="10" stroke-linecap="round" stroke-linejoin="round"/><path d="m295.79 167.35 12.112-2.537s.167 5.178 8.724 8.233c0 0-9.501 6.732-12.446 8.493.055-.052-7.057-3.47-8.39-14.189Z" fill="#4F709C"/><path d="m296.512 170.768 12.168-3.677m-8.168 5.8 7.613-3.262m-6.334 5.437 7.612-3.832m-5.946 5.903 4.39-2.485" stroke="#213555" stroke-width="1.8" stroke-miterlimit="10" stroke-linecap="round" stroke-linejoin="round"/><path d="M103.65 86.62s-1.222.311-3.167.104l1-1.45c-2.167.052-7.39-2.59-7.946-5.023-.055-.31-.055-.621.056-.828v-.052c.834-1.554 5.223-1.191 8.446 1.76 3.834 3.47 1.611 5.49 1.611 5.49Z" fill="#D8C4B6"/><path d="m101.539 85.274-1.001 1.45a12.936 12.936 0 0 1-4.445-1.398c-2.111-1.088-3.111-2.486-3.611-3.573a71.098 71.098 0 0 1 1.166-2.382c-.11.259-.11.518-.055.828.556 2.486 5.779 5.127 7.946 5.075Z" fill="#4F709C"/><path d="M70.645 100.964s2.556 1.088 4.945.777c2.39-.311 7.057-1.554 8.001-1.088.945.466 2.556.518 2.056 2.02-.444 1.502-1.444 3.262-3.556 3.366-2.111.155-4.223 1.657-7.723.725s-5.556-1.398-5.668-2.693c-.055-1.346 1.945-3.107 1.945-3.107Z" fill="#F4C2C9"/><path d="M103.65 86.62c-.889 2.434-12.502 16.674-18.003 24.131-5.5 7.457-14.835 28.584-19.502 27.704-4.668-.88-10.446-5.126-9.446-7.56 1.056-2.434 12.835-9.373 21.836-21.335 9.002-11.962 8.78-20.247 11.502-27.03 1.167-2.9 2-2.693 2-2.693s-.055.828.39 1.968c.444 1.087 1.444 2.485 3.61 3.572a12.934 12.934 0 0 0 4.446 1.399c1.945.207 3.167-.156 3.167-.156Z" fill="#fff"/><path d="M83.647 108.058s2.223-3.832 2.778-6.162m-.667 6.68s1.5-2.641 2.279-3.314m-10.447 13.36s-1.055 2.589-2.222 4.402m-.888-5.127s-2.057 3.004-5.78 5.8" stroke="#D8C4B6" stroke-width="1.8" stroke-miterlimit="10" stroke-linecap="round" stroke-linejoin="round"/><path d="M79.202 104.175s3.445 2.071 5.39 2.796c2 .725 4.556-.052 4.778-.052.222 0 1.278 1.554.334 2.641-.945 1.088-2 1.243-2.112 1.606-.111.362.167 2.433-.444 3.158-.556.725-1.778 1.14-2.167 1.606-.334.466-.778 2.796-1.39 3.158-.61.363-1.389 1.554-2.944 1.761-1.556.207-7.668-2.071-13.336-6.162-3.611-2.589-5.945-3.521-5.945-3.521s2.5-10.202 7.057-9.27a865.095 865.095 0 0 1 10.779 2.279Z" fill="#F4C2C9"/><path d="M79.202 104.175s3.445 2.071 5.39 2.796c2 .725 4.556-.052 4.778-.052" stroke="#EBDFD7" stroke-width="1.8" stroke-miterlimit="10" stroke-linecap="round" stroke-linejoin="round"/><path d="M65.478 97.547s.611-.466 1.333.051c.723.518 3.445 2.538 3.779 3.366.389.829-1.5 5.955-4.445 9.114-2.89 3.159-4.501 3.159-4.668 3.107-.166-.052-4.278-1.812-4.834-2.486-.556-.673-.333-1.398-.333-1.398s7.834-11.806 9.168-11.754Z" fill="#4F709C"/><path d="M29.528 79.63c-3.778 4.298-3.334 10.667 1.056 14.447 1.278 1.088 2.722 2.33 4.334 3.677 8.668 7.249 22.114 11.754 22.114 11.754 7.334-3.158 8.446-11.961 8.446-11.961-6.612-3.884-13.169-11.134-18.003-17.451-4.334-5.593-13.224-5.8-17.947-.466Z" fill="#EA5455"/><path d="M87.648 111.217s-1.5.673-2.445.777c-.945.104-2.278 0-2.278 0m2.389 3.78s-.667.518-1.611.673a3.277 3.277 0 0 1-1.723-.31m1.167 3.417s-1.334.415-2.056-.207" stroke="#EBDFD7" stroke-width="1.8" stroke-miterlimit="10" stroke-linecap="round" stroke-linejoin="round"/><path d="M232.336 170.871c-10.613.207-27.282 3.936-37.395 7.768-10.057 3.832-16.947 7.405-16.947 7.405s2.39-1.243 5.223 3.831c2.834 5.075 1.834 10.978 1.834 10.978 1.445-.362 35.894-1.346 46.896-2.692 11.001-1.347 23.726-5.075 22.948-15.069-.778-9.994-10.224-12.739-23.17-14.965-13.002-2.227-20.17-1.295-20.948-1.502-.778-.155-3.278-1.139-4.612-2.641-1.333-1.502-2.722-5.593-2.722-5.593s-33.561-1.967-36.95 3.315c-3.334 5.281 11.835 20.402 11.835 20.402l54.008-11.237Z" fill="#213555"/><path d="M152.324 157.77s-1.834 3.728-2.5 5.075c-.667 1.346-16.058 1.864-22.948 1.968-6.89.103-20.392 2.692-21.448 11.961-1.222 10.564 8.279 15.484 25.226 16.623 19.058 1.294 36.728.88 40.451 1.243 3.722.362 14.002-3.936 15.168-7.923 1.167-3.988 17.336-7.043 17.336-7.043s3.556-16.57-2.278-19.884c-5.834-3.366-49.007-2.02-49.007-2.02Z" fill="#213555"/><path d="M186.273 182.988s-31.56-16.933-56.619-15.949" stroke="#4F709C" stroke-width="1.8" stroke-miterlimit="10" stroke-linecap="round" stroke-linejoin="round"/><path d="M177.994 186.095s-1.556.622-.667 5.593 5.779 10.253 7.724 9.217c1.944-1.035.944-10.046-1.278-13.049-2.167-2.952-5.779-1.761-5.779-1.761Z" fill="#213555"/><path d="M174.383 187.753s-3.056 3.469-4.445 4.453c-1.389.984-7.613 1.398-9.891 4.712-2.278 3.314 2.945 10.926 7.168 9.684-1.167.673-2.167 1.294-2.945 1.76-3.778 2.382-10.668 5.955-15.558.725-4.111-4.453-2.667-9.839.334-13.412 3-3.521 10.723-3.987 12.501-4.453 1.779-.518 5.835-3.21 7.613-4.194 1.5-.829 2.611.259 5.223.725Z" fill="#4F709C"/><path d="M185.162 199.197c-.222.051-4.223.673-5.89.983-1.333.259-7.667 3.729-12.112 6.37-4.223 1.243-9.446-6.369-7.168-9.684 2.278-3.314 8.501-3.728 9.89-4.712 1.389-.984 4.445-4.453 4.445-4.453.389.052.834.103 1.278.155 3.556.259 5.39-.88 5.39-.88.667.569 1.389 1.502 2.111 2.848 2.001 3.469 2.167 7.25 2.056 9.373Z" fill="#F4C2C9"/><path d="M232.336 170.871c-10.613.207-27.282 3.936-37.395 7.768-10.057 3.832-16.947 7.405-16.947 7.405m-70.288-14.448c.667-.311 1.667-.466 3.056-.052 3.001.932 4.001 7.095 2.5 10.927-1.5 3.883-4.834 3.676-5.945 2.589m145.633-7.923s-2.778-2.952-6.057.725c-3.611 3.987-1.722 10.719 1.167 12.324 2.945 1.605 4.557 0 4.557 0" stroke="#4F709C" stroke-width="1.8" stroke-miterlimit="10" stroke-linecap="round" stroke-linejoin="round"/><path d="M131.654 104.071c0 .311-.278.57-.611.57-.333 0-.611-.259-.611-.57 0-.311.278-.57.611-.57.333 0 .611.259.611.57Z" stroke="#213555" stroke-width="1.8" stroke-miterlimit="10" stroke-linecap="round" stroke-linejoin="round"/><path d="M143.767 94.388c-1.167 3.625-2.389 5.178-2.278 8.492-7.056 1.916-11.724-2.175-11.724-2.175.334-1.398.5-2.485.278-3.159-.667-2.485-4.278-3.624-6.779-6.731-2.5-3.107-2.722-8.596-1.5-9.27.556-.31 1.111-.207 1.945 2.383.5 1.501 1.222 2.848 1.389 3.055-1.167-2.486-1.667-10.668 1.556-9.425 1.055.415-.167 2.175 1.111 5.334 1.167 3.003 3.334 4.143 3.334 4.143s-.389-2.434 1.055-4.35c1.223-1.605 4.334-3.418 4.89-1.709.611 1.657-2.222 2.278-2.445 4.401-.333 2.538 2.723 4.506 4.779 2.849s.889-3.522 0-4.713c-.889-1.139-2.278-2.64-1.278-3.314 1-.621 3.5.104 5.278 2.952 1.723 2.796 1.556 7.612.389 11.237Z" fill="#F4C2C9"/><path d="M155.047 131.516s-12.502 14.707-20.726 18.021c-8.223 3.314-13.78.984-15.391-7.043-1.611-8.026 3.501-22.37 5.723-27.652 1.612-3.935 4.167-10.149 5.112-14.085 0 0 4.723 4.039 11.724 2.175.056 3.159-1.5 14.81-1.667 15.897.056-.362.722-2.071 5.39-8.181 5.389-6.991 10.779-10.046 10.779-10.046s4.556 2.019 5.89 11.496c1.278 9.528-6.834 19.418-6.834 19.418Z" fill="#4F709C"/><path d="M139.822 118.829s-.5 13.257-2.334 17.555" stroke="#213555" stroke-width="1.8" stroke-miterlimit="10" stroke-linecap="round" stroke-linejoin="round"/><path d="M131.043 87.086s.222 1.45.889 2.279" stroke="#EBDFD7" stroke-width="1.8" stroke-miterlimit="10" stroke-linecap="round" stroke-linejoin="round"/><path d="M128.487 104.848s3.167 4.246 12.669 3.003m-20.614 39.148s-1.445-4.609 3.889-5.696c5.39-1.087 11.835 6.11 7.723 8.959" stroke="#213555" stroke-width="1.8" stroke-miterlimit="10" stroke-linecap="round" stroke-linejoin="round"/><path d="M125.042 87.086s.611 1.295 1.945 2.538c.556.518 1.334 1.035 1.667 1.709" stroke="#EBDFD7" stroke-width="1.8" stroke-miterlimit="10" stroke-linecap="round" stroke-linejoin="round"/><path d="M191.385 55.758c6.335 1.502 9.335 4.867 9.057 13.36-.278 8.492-1.5 11.547 2.834 16.26 4.334 4.66 5.501 11.34-2.723 15.535-8.223 4.194-26.226 5.281-35.172 0-8.945-5.282-10.001-10.927-7.334-16.467 2.667-5.541 9.779-9.166 8.223-13.153-1.555-4.04.334.362.334.362s-4.667-3.159-4.279-9.476c.334-6.318 8.668-8.7 13.002-8.907 2.223-.103 4.612 1.191 7.89 1.71 3.279.413 6.557.413 8.168.776Z" fill="#213555"/><path d="M178.106 96.045s-12.002.621-19.003 2.951c-7.001 2.331-5.723 7.509-6.612 12.946-.945 5.437-6.612 10.978-3.723 18.383 2.889 7.405 5.723 11.6 4.223 17.296-1.445 5.696-2.89 8.544-2.667 10.149.277 1.605 8.223 6.525 11.279 7.509 3.056.984 9.001-2.952 9.001-2.952s3.056 3.728 7.502 4.557c4.445.88 22.447-3.469 26.559-7.767 0 0-2.667-4.816-2.778-10.616-.111-5.8 3.5-12.997 4.834-16.985 1.278-3.987 8.835-19.367 5.89-24.493-2.112-3.677-17.892-11.962-34.505-10.978Z" fill="#EA5455"/><path d="M212.833 107.593s5.723 5.333 10.224 13.981c0 0 .278-17.917.666-19.16 0 0 5.946 1.347 11.947-.88 0 0 1.611 13.826 4 24.338 2.39 10.512 5.057 26.202-3.056 28.273-8.056 2.124-15.502-2.692-25.337-14.965-9.779-12.221-9.001-18.383-9.001-21.49-.056-3.676 5.278-13.101 10.557-10.097Z" fill="#4F709C"/><path d="M223.057 121.626s-.389 11.133 1.055 18.176m-.722-32.52s7.112 2.071 12.78-1.295m-2.167-1.346c0 .311-.278.57-.612.57-.333 0-.611-.259-.611-.57 0-.311.278-.57.611-.57.389 0 .612.259.612.57Z" stroke="#213555" stroke-width="1.8" stroke-miterlimit="10" stroke-linecap="round" stroke-linejoin="round"/><path d="M235.225 101.741s-.556-3.677 2.112-4.867c2.667-1.191 5.111-.622 7.834-2.486 2.723-1.813 7.334-7.768 7.168-9.062-.222-1.295-1.167-.725-3.001.673-1.778 1.398-2.667 1.709-2.667 1.709s1.112-3.521.611-6.11c-.555-2.59-2.389-2.9-2.833-2.641-.445.259 0 1.346-.111 3.417-.112 2.02-.778 3.78-2.723 5.075 0 0 .444-1.657-.389-3.625-.889-1.968-2.389-3.262-3.556-2.951-1.167.31-.778 1.139-.222 2.278.611 1.14 1.444 3.21-.889 5.385-2.334 2.175-6.112 0-4.834-2.9 1.278-2.9 3.222-3.572 4.222-4.35 1.001-.776.723-2.174-1.389-1.863-2.111.31-5.723 2.692-7.834 5.333-2.112 2.59-2.723 6.214-2.778 9.735-.056 3.522-.223 8.027-.223 8.027s1.389 1.605 4.446 1.605c3.056-.052 7.056-1.087 7.056-2.382Z" fill="#F4C2C9"/><path d="M246.671 87.76s-.944 2.434-2.278 4.401m-2.834-4.712s-.222 2.071-1.778 4.04" stroke="#EBDFD7" stroke-width="1.8" stroke-miterlimit="10" stroke-linecap="round" stroke-linejoin="round"/><path d="M228.446 153.938s-1.389-2.071 2.001-5.23c3.389-3.158 10.612-2.796 10.835.466" stroke="#213555" stroke-width="1.8" stroke-miterlimit="10" stroke-linecap="round" stroke-linejoin="round"/><path d="M174.494 95.32s-3.112-.156-5.057 3.78c-1.944 3.935-1.389 12.014.723 13.256 2.111 1.243 7.779-4.09 7.779-4.09s4.778 6.006 8.223 5.747c3.445-.258 7.779-6.006 7.501-12.324-.278-6.317-3.056-7.042-4.556-7.198-1.445-.259-14.613.829-14.613.829Z" fill="#fff"/><path d="M177.939 108.214s-10.946 11.288-11.057 13.412c-.112 2.123 3.611 2.796 4.611 2.33 1.001-.518 7.557-15.898 6.446-15.742Z" fill="#fff"/><path d="M177.828 109.612s1.889 12.531 3.111 14.499c1.223 1.968 5.112-.984 4.668-2.692-.445-1.709-5.723-11.703-7.668-13.153-1.945-1.502-.111 1.346-.111 1.346Z" fill="#fff"/><path d="M191.385 84.29s-1.222 7.094-.333 12.428c0 0-5.279 10.926-13.058 10.926-3.834 0-5.056-7.353-4.389-10.253l1.167-8.078s7.779-12.531 16.613-5.023Z" fill="#F4C2C9"/><path d="M184.995 91.799c-3.333 1.864-7.001 2.796-10.89 2.071l-.445 3.055c4.223-.776 8.502-1.916 11.335-5.126Z" fill="#EBDFD7"/><path d="M167.159 69.014s.278 4.04-.444 10.616-.445 10.874 5.556 13.67c6.001 2.797 15.725.26 19.281-7.715 3.556-7.975 8.279-23.147-4.501-25.426-12.779-2.278-20.058.57-19.892 8.855Z" fill="#F4C2C9"/><path d="M176.05 63.784s2.444 7.664 7.89 9.632c5.5 1.968 4.611 6.731 7.334 6.162 2.723-.57 4.834-2.641 6.668-.621 1.833 1.967 2-15.742-7.39-18.798-9.391-3.055-19.336-3.21-22.281-.414-2.89 2.796-1.89 11.755-1.89 11.755s6.001-1.295 9.669-7.716Z" fill="#213555"/><path d="M191.885 79.63s1.278-2.952 4.001-2.434c2.667.518 2.5 8.544-4.445 8.13" fill="#F4C2C9"/><path d="M172.438 76.885c.333.673.333 1.45.111 2.175a3.623 3.623 0 0 1-.5 1.036l-.333.466c-.056.103-.167.259-.223.362-.222.466-.111.984.223 1.502.389.466.944.932 1.667 1.087-.389.156-.778.104-1.167 0a2.569 2.569 0 0 1-1.056-.57c-.333-.258-.556-.62-.722-1.035-.111-.414-.056-.88.111-1.294.111-.208.222-.363.333-.518.111-.156.222-.26.334-.415a4.37 4.37 0 0 0 .555-.828c.334-.621.611-1.243.667-1.968Z" fill="#213555"/><path d="M176.55 86.983s2.778.725 4.445-1.916m-.889-8.182s.222 1.14 2.333 1.347c1.778.207 2.612-1.14 2.612-1.14m-13.613-1.035s-1.667 1.243-3-.31" stroke="#213555" stroke-width="1.8" stroke-miterlimit="10" stroke-linecap="round" stroke-linejoin="round"/><path d="M172.994 71.137c.111-.673-.723-1.812-1.834-2.123-1.111-.31-2.889 1.14-2.723 1.76.223.622 1.278-.31 2.279-.206.889.103 2.167 1.139 2.278.57Zm13.279 1.14c.111-.674-.722-1.813-1.833-2.124-1.112-.31-2.89 1.14-2.723 1.761.222.621 1.278-.31 2.278-.207.945.104 2.223 1.14 2.278.57Zm9.391 7.353c-.556.155-1 .414-1.167.725-.056.155-.111.31-.111.518v.725c0 .31-.056.621-.167.88-.111.31-.389.621-.722.725-.667.259-1.278.103-1.834-.155.556-.156 1.111-.26 1.389-.518.278-.207.334-.57.334-1.036v-.828c.055-.311.166-.674.444-.88.611-.363 1.334-.363 1.834-.156Z" fill="#213555"/><path d="M167.548 81.131c2.732 0 4.946-2.249 4.946-5.023 0-2.774-2.214-5.023-4.946-5.023-2.731 0-4.945 2.25-4.945 5.023 0 2.774 2.214 5.023 4.945 5.023Zm19.92-2.736c.506-2.908-1.613-5.648-4.733-6.12-3.12-.472-6.06 1.503-6.566 4.41-.506 2.909 1.612 5.648 4.732 6.12 3.12.472 6.06-1.503 6.567-4.41Z" stroke="#213555" stroke-width="1.8" stroke-miterlimit="10" stroke-linecap="round" stroke-linejoin="round"/><path d="M172.494 76.523s.889-.88 3.667.207m11.39.828 5.446.466" stroke="#213555" stroke-width="1.8" stroke-miterlimit="10" stroke-linecap="round" stroke-linejoin="round"/><path d="m194.33 84.083-1.889 3.055c-.222.415.056.88.556.88h3.778c.5 0 .778-.465.556-.88l-1.89-3.055c-.277-.362-.889-.362-1.111 0Z" fill="#EA5455"/><path d="m271.73 187.701 1.334 11.496c0 .828 4.612 1.449 10.279 1.449 5.668 0 10.28-.673 10.28-1.449l1.333-11.496H271.73Z" fill="#213555"/><path d="M294.956 187.701c0 .932-5.223 1.657-11.613 1.657s-11.613-.725-11.613-1.657c0-.933 5.223-1.658 11.613-1.658 6.446.052 11.613.777 11.613 1.658Z" fill="#EA5455"/><path d="M280.232 187.701s-6.223-2.279-5.557-6.732c.723-4.505 5.279 4.764 6.446 3.366 1.167-1.398-.334-8.182 2.222-8.803 2.612-.57 1.889 8.906 1.889 8.906s2.612-1.191 4.223-2.951c1.612-1.761 3.945 2.175-2.667 6.214-.055 0-2.889 1.346-6.556 0Z" fill="#4F709C"/><path d="M335.073 184.697c0 1.554-1.333 2.797-3 2.797s-3.001-1.243-3.001-2.797c0-1.553 1.334-2.796 3.001-2.796 1.611 0 3 1.295 3 2.796Z" fill="#EA5455"/><path d="M121.208 194.692c-1.5.362-3.056 1.035-4.445 2.174-2.389 1.916-6.223 3.263-10.279 3.056-3.89-.156-8.001-1.761-11.113-5.645 13.502 1.347 25.837.415 25.837.415Z" fill="#fff"/><path d="M106.428 199.973c-9.78.156-23.448 0-27.67-.051-4.89.362-10.391-1.399-14.058-7.043 0 0 3.611.518 12.89.57 9.28.052 16.67-.57 16.67-.57.333.518.666.984 1 1.45 3.167 3.832 7.279 5.437 11.168 5.644Z" fill="#213555"/></g></svg>