<svg width="315" height="276" viewBox="0 0 315 276" fill="none" xmlns="http://www.w3.org/2000/svg"><g opacity=".9"><path d="m161.889 165.525-.794 3.849c-.306 1.589-1.772 2.811-3.422 2.811h-7.882c-1.65 0-3.055-1.161-3.422-2.811l-.794-3.849 8.126-.367 8.188.367Z" fill="#213555"/><path d="M155.84 170.291h-4.4v63.545h4.4v-63.545Z" fill="#213555"/><path d="M155.779 237.869h-4.216a1.29 1.29 0 0 1-1.283-1.283v-12.037a1.29 1.29 0 0 1 1.283-1.283h4.216c.672 0 1.283.55 1.283 1.283v12.037c-.061.672-.611 1.283-1.283 1.283Z" fill="#213555"/><path d="M154.129 234.203s-4.46 3.605-6.843 17.109m5.254-16.314s-13.442-3.239-20.774 12.709m23.096-13.015s12.037-2.139 19.614 14.97" stroke="#213555" stroke-width="4" stroke-miterlimit="10" stroke-linecap="round" stroke-linejoin="round"/><path d="M131.766 253.145a5.438 5.438 0 1 0 0-10.877 5.438 5.438 0 0 0 0 10.877Z" fill="#4F709C"/><path d="M172.154 253.145a5.438 5.438 0 1 0 0-10.877 5.438 5.438 0 0 0 0 10.877Z" stroke="#213555" stroke-width="1.8" stroke-miterlimit="10" stroke-linecap="round" stroke-linejoin="round"/><path d="M146.613 260.599a5.438 5.438 0 1 0 .002-10.876 5.438 5.438 0 0 0-.002 10.876Z" fill="#4F709C"/><path d="M153.762 166.686c20.551 0 37.211-3.283 37.211-7.332 0-4.05-16.66-7.333-37.211-7.333s-37.211 3.283-37.211 7.333c0 4.049 16.66 7.332 37.211 7.332Z" fill="#EA5455"/><path d="M153.762 162.897c20.551 0 37.211-3.282 37.211-7.332 0-4.049-16.66-7.332-37.211-7.332s-37.211 3.283-37.211 7.332c0 4.05 16.66 7.332 37.211 7.332Z" fill="#213555"/><path d="M109.525 239.458c.427 2.871.977 6.904.733 8.37 0 0 1.039 2.506 6.782 2.139 5.744-.367 8.677-3.483 8.677-3.483s-.184-3.421-.428-6.904c-5.316 1.038-10.937.916-15.764-.122Z" fill="#F4C2C9"/><path d="M109.036 236.464s.244 1.283.489 3.055c4.827 1.039 10.448 1.161 15.825.122-.183-3.421-.367-6.904-.367-7.637-.061-1.528-16.68-.123-15.947 4.46Z" fill="#EBDFD7"/><path d="M110.319 246.485s-.367.855-1.283 4.338c-.917 3.483-9.41 13.014-9.165 15.092.244 2.077 1.772 3.972 8.065 3.972 6.294 0 13.748.366 15.825-.489.611-.245 1.284-.917 1.833-1.711 1.589-2.261 2.2-5.072 1.895-7.821-.489-4.461-1.345-11.854-1.345-12.526 0-1.039-.427-1.772-.427-1.772s-1.711 2.383-3.789 2.811c-2.077.427-2.26-2.139-5.56-2.811-3.299-.672-4.766 2.444-5.316 2.566-.611 0-.733-1.161-.733-1.649Z" fill="#213555"/><path d="M180.158 243.857c1.039-3.116 2.078-6.355 2.383-7.516.672-2.383-15.764-5.621-16.864-.55l-.611 2.933c4.094 3.422 9.776 6.538 15.092 5.133Z" fill="#EBDFD7"/><path d="m165.066 238.725-1.894 8.92s.978 1.772 5.438 3.117c4.46 1.344 9.288 0 9.288 0s1.099-3.422 2.26-6.966c-5.316 1.466-10.998-1.65-15.092-5.071Z" fill="#F4C2C9"/><path d="M163.783 244.896s-1.039 1.1-2.016 3.605c-.978 2.444-11.182 14.175-11.365 16.192-.184 2.016 1.894 3.971 4.033 4.704 2.077.673 16.558 2.567 19.185 1.65 2.567-.855 3.911-6.354 3.972-11.976.061-5.621 1.405-11.365 1.405-11.365s-.611 1.589-2.444 2.017c-1.833.489-2.505-3.605-5.499-5.011-2.994-1.405-5.927 1.589-6.599 2.078-.733.489-.794-1.406-.672-1.894Zm-29.94-119.698s-6.049 4.888-13.137 9.959c-7.087 5.072-28.29 16.864-28.229 30.001.061 8.188 4.644 34.217 7.577 47.11 2.933 12.892-.367 18.147 3.483 22.668 3.91 4.583 15.275 3.361 20.163 1.345 4.888-2.017 7.638-7.088 5.255-14.543-2.383-7.454-4.094-21.019-3.238-31.162.855-10.142.183-20.346.183-20.346s4.888-3.056 10.143-4.889c5.255-1.833 8.982-3.727 8.982-3.727s18.636-.183 19.797.367c1.161.489 7.271 10.815 7.637 12.342 0 0-1.16 4.094-2.382 19.125-1.223 15.092-9.532 30.001-8.005 36.233 1.528 6.233 5.255 8.982 10.326 10.51 5.072 1.528 12.343 1.344 15.581-5.56 3.239-6.966 5.561-23.402 8.799-32.69 3.238-9.287 8.31-24.746 7.943-32.017-.366-7.271-9.776-32.506-15.459-41.305-5.682-8.798-50.775-13.32-55.419-3.421Z" fill="#213555"/><path d="M125.839 170.291s-.367-4.094-.917-5.622m47.538 9.654s.977-4.521 2.077-6.904m-67.579 8.615c5.467 0 9.899-4.431 9.899-9.898s-4.432-9.899-9.899-9.899c-5.466 0-9.898 4.432-9.898 9.899 0 5.467 4.432 9.898 9.898 9.898Zm82.977 2.505c5.466 0 9.898-4.432 9.898-9.898 0-5.467-4.432-9.899-9.898-9.899-5.467 0-9.899 4.432-9.899 9.899 0 5.466 4.432 9.898 9.899 9.898Z" stroke="#4F709C" stroke-width="1.8" stroke-miterlimit="10" stroke-linecap="round" stroke-linejoin="round"/><path d="M108.975 255.772s5.56-4.216 13.442.427m-15.459 3.667s5.561-4.217 13.443.427M161.095 254s7.026-3.116 13.87 3.666m-15.948.305s7.027-3.116 13.87 3.667" stroke="#fff" stroke-width="1.8" stroke-miterlimit="10" stroke-linecap="round" stroke-linejoin="round"/><path d="M122.6 102.407s-1.466-.734-2.81-3.91c-1.344-3.178 3.177-4.217 3.605-2.445.427 1.71-.795 6.355-.795 6.355Z" fill="#213555"/><path d="M100.176 96.236s2.444 5.743 10.998 5.621c6.722-.061 26.702-6.66 27.985-7.21 1.283-.55 7.577-8.432 5.377-16.925-2.261-8.493-8.249-7.821-8.249-7.821s-7.088 2.566-20.469 11.976-15.397 9.837-15.642 14.359Z" fill="#F4C2C9"/><path d="M120.401 90.064s1.833 6.844 2.199 12.343c0 0 17.109-5.927 18.575-7.15 1.406-1.221 4.644-12.77 1.895-18.513-2.75-5.744-6.477-7.882-6.477-7.882s-7.455 3.91-15.337 9.287c-7.943 5.438-.855 11.915-.855 11.915Z" fill="#4F709C"/><path d="M126.083 101.185s-1.038-13.32-5.438-23.036" stroke="#213555" stroke-width="1.8" stroke-miterlimit="10" stroke-linecap="round" stroke-linejoin="round"/><path d="M197.206 72.345c-8.493-7.027-19.981-5.316-25.724-5.072-5.744.245-10.815-.122-21.936-1.1-6.049-.55-9.959.795-12.281 2.2-1.772 1.039-2.994 2.75-3.544 4.705-1.405 5.499-1.222 11.854-1.222 11.854.122 4.216.672 8.126 1.161 10.876.489 4.827.916 9.959.916 12.281 0 5.072-3.727 16.925-3.543 21.141.183 4.216 12.037 7.821 23.218 8.31 11.182.489 30.307-4.582 33.545-5.438 3.238-.855 3.116-4.216 2.2-10.143-.672-4.216-.55-14.97.489-24.074 1.771 1.528 4.277 3.666 6.537 5.683 4.889-5.133 10.388-9.899 15.704-14.787-5.5-6.721-11.549-13.137-15.52-16.436Z" fill="#EA5455"/><path d="M152.968 73.689s-.122 7.21 7.882 7.699c8.005.489 14.237-7.76 13.015-13.32-1.161-5.5-20.897-2.506-20.897 5.621Z" fill="#F4C2C9"/><path d="M169.588 71.794c-3.85 4.4-11.426 6.722-16.437 3.544a7.704 7.704 0 0 0 2.2 3.972c6.049 2.077 11.854-1.772 14.237-7.516Z" fill="#EBDFD7"/><path d="M147.286 49.553s.672 4.95 0 11.732c-.673 6.782 3.788 15.092 11.059 16.192 7.821 1.222 15.275-3.116 17.475-16.559 2.261-13.442-.794-21.813-10.815-22.607-10.021-.795-17.781.427-17.719 11.242Z" fill="#F4C2C9"/><path d="M179.975 50.959c-.367 2.994-.978 5.193-1.711 6.72-1.161 2.506-2.383 3.3-2.383 3.3l-7.332-4.032s-20.652 4.827-21.202-7.394c-.061-1.405 0-2.81.183-4.032.428-2.994 1.527-5.5 3.177-7.516.245-.305.55-.672.856-.916 3.666-3.605 9.287-5.133 15.886-4.094 11.732 1.772 13.381 10.02 12.526 17.964Z" fill="#F4C2C9"/><path d="M159.811 38.188c-7.393.123-13.075 2.139-12.525 11.365 0 0 .061.672.183 1.834 1.466-2.2 4.705-2.078 6.599-3.789 2.811-2.383 4.888-5.621 5.743-9.41Z" fill="#EBDFD7"/><path d="M181.014 46.926c0-.978-.306-1.833-.856-2.566a4.574 4.574 0 0 0 .306-1.589c0-1.65-.917-3.055-2.2-3.788-.183-2.2-1.955-3.972-4.216-4.033a4.396 4.396 0 0 0-3.849-2.26 4.39 4.39 0 0 0-1.772.366c-.795-.917-1.955-1.528-3.3-1.528a4.456 4.456 0 0 0-2.688.917c-.672-.428-1.528-.733-2.383-.733a4.374 4.374 0 0 0-3.605 1.894 5.385 5.385 0 0 0-1.039-.122 4.346 4.346 0 0 0-4.155 3.055c-2.077.305-3.727 2.138-3.727 4.338 0 .244 0 .428.061.61-.794 1.59-.672 4.095-.122 3.972 1.283-.305 3.788-.61 6.293.611 3.544 1.773 5.133 1.345 8.982 0 4.277-1.466 10.999-2.321 11.976 5.255.245 1.956-1.955 6.294 1.1 7.638.794.367 1.65-.244 2.444-1.405.245-.49.489-1.1.672-1.772 1.283-.795 2.078-2.139 2.078-3.727 0-.978-.306-1.834-.856-2.567.55-.672.856-1.588.856-2.566Z" fill="#213555"/><path d="M174.904 59.575s1.527-3.483 3.421-2.445c1.589.856.184 8.86-4.094 8.921" fill="#F4C2C9"/><path d="M157.428 57.13c.306.856.428 1.772.306 2.75-.061.489-.122.916-.306 1.405-.183.428-.305.795-.488 1.222-.123.367-.245.795-.245 1.04 0 .244.183.61.428.855.489.55 1.283.916 2.2.855-.795.489-1.956.428-2.75-.183-.428-.306-.794-.795-.855-1.406-.062-.61.122-1.1.244-1.527.183-.428.367-.856.55-1.222a6.6 6.6 0 0 0 .428-1.161c.183-.856.305-1.711.488-2.628Z" fill="#213555"/><path d="M158.406 69.35s2.811-.916 4.949 1.223" stroke="#213555" stroke-width="1.8" stroke-miterlimit="10" stroke-linecap="round" stroke-linejoin="round"/><path d="M150.524 53.464c.794-.183 1.527-.794 3.177-.855 1.1-.061 1.772 0 1.894-.794.123-.611-.611-1.406-1.833-1.406-2.383 0-5.438 3.605-3.238 3.055Zm18.941.856c-.794-.245-1.405-.917-3.055-1.162-1.099-.183-1.772-.183-1.772-.977-.061-.672.734-1.344 1.956-1.222 2.26.244 5.01 4.094 2.871 3.36Zm-15.764 5.193c.55 0 1.039-.427 1.1-.977v-.611a1.12 1.12 0 0 0-.978-1.1c-.55 0-1.038.427-1.099.977v.611a.997.997 0 0 0 .977 1.1Zm11.976.489a1.12 1.12 0 0 0 1.1-.978v-.61a1.12 1.12 0 0 0-.978-1.1c-.55 0-1.038.427-1.099.977v.611c-.062.55.366 1.039.977 1.1Zm11.854.122c-.245-.06-.489-.06-.55.061-.061.061-.122.245-.122.428-.061.183-.061.367-.061.611s-.061.428-.061.672a4.617 4.617 0 0 1-.428 1.405c-.122.245-.428.55-.733.611-.306.062-.55-.06-.795-.183.245-.122.489-.183.55-.305.122-.123.122-.245.122-.428.062-.367.062-.794.123-1.283.061-.245.061-.489.122-.672.061-.245.122-.49.305-.733.123-.245.367-.49.795-.55.427-.123.611.122.733.366Z" fill="#213555"/><path d="M140.809 60.49s-2.75 2.323-7.638 11.121c-3.91 7.088-7.271 17.659-12.037 23.586-1.1 1.405-2.322 2.566-3.666 3.3-.855.488-1.894.977-2.933 1.343-7.21 2.383-17.414.55-14.664-10.265 2.749-10.754 21.263-23.952 27.312-33.483 6.049-9.532 13.809.855 13.626 4.399Z" fill="#F4C2C9"/><path d="M121.134 95.196c-1.1 1.406-2.322 2.567-3.666 3.3a18.52 18.52 0 0 1-2.933 1.344" stroke="#EBDFD7" stroke-width="1.8" stroke-miterlimit="10" stroke-linecap="round" stroke-linejoin="round"/><path d="M141.42 41.488s3.299-1.588 4.46-2.138c1.161-.55 3.85-1.1 4.827-1.406 1.039-.244 1.1 1.283-.55 2.75-1.649 1.466-4.582 5.438-6.599 5.866-1.955.488-3.116-3.85-2.138-5.072Z" fill="#EBDFD7"/><path d="M126.633 57.13s3.605-5.927 4.644-8.126c2.566-5.316 6.293-7.516 7.515-8.493 1.284-.917 8.982-2.567 10.938-3.3 1.833-.672 1.588.855.855 1.528-2.016 1.833-6.049 2.566-6.538 3.116 0 0 2.872-.856 4.338-1.467 1.467-.61 5.316-1.466 6.294-1.65.978-.183 1.589.917 0 1.956s-4.46 2.322-4.827 2.566c-.367.245-3.238 2.017-3.238 2.017s2.871 0 3.91-.062c1.039-.06 3.238.061 3.788.061 1.467 0 1.711 1.834-1.283 2.322-2.994.49-4.888 1.284-6.477 2.567-1.833 1.466.611 5.621-6.782 11.303.061 0-11.365 3.422-13.137-4.338Z" fill="#F4C2C9"/><path d="M146.613 45.276s-.366.061-1.099.367c-.734.306-1.772 1.283-1.772 1.283m.305-5.071s-1.039.305-1.772.61c-.733.306-1.588 1.222-1.588 1.222" stroke="#EBDFD7" stroke-width="1.8" stroke-miterlimit="10" stroke-linecap="round" stroke-linejoin="round"/><path d="M127.55 55.42c1.527-.062 6.782.488 9.532 9.531.061.245.061.49-.123.672l-2.383 3.605c-.061.062-.122.062-.183 0-.428-1.344-3.116-9.47-9.41-10.02-.244 0-.366-.306-.244-.49.55-.793 1.65-2.32 2.139-2.932.183-.244.427-.367.672-.367Z" fill="#213555"/><path d="M132.686 60.143c.86-1.49.421-3.355-.982-4.165s-3.237-.258-4.098 1.233c-.86 1.49-.421 3.355.982 4.165s3.237.258 4.098-1.233Z" fill="#fff"/><path d="M199.161 108.7s2.933-.794 8.371-7.21c5.438-6.416-4.277-.244-4.827 0-.611.244-3.544 7.21-3.544 7.21Z" fill="#213555"/><path d="M226.596 109.433c-1.711-4.766-7.516-12.954-13.809-20.591-5.316 4.888-10.815 9.654-15.704 14.786 3.3 2.933 6.233 5.5 6.233 5.5-.856.427-2.444 1.283-4.094 2.077 2.872 4.705 4.949 10.082 5.316 15.459 5.682.122 12.098.244 15.092-.978 5.377-2.138 10.204-7.271 6.966-16.253Zm-32.812 4.461s-1.039-1.467-1.528-2.017c-.488-.55-3.299-2.444-4.46-3.422-1.161-.977-2.138.428-1.1 2.139 1.039 1.711 1.65 4.644 2.444 5.438.734.794 4.766.061 4.644-2.138Z" fill="#F4C2C9"/><path d="M215.047 91.591s-9.776 7.088-15.886 17.17c0 0-10.387-10.02-12.282-13.442-1.894-3.483-1.71-13.076 2.689-18.575 4.399-5.56 8.249-3.85 8.249-3.85s9.47 8.005 17.23 18.697Z" fill="#4F709C"/><path d="M196.411 106.011s6.477-11.548 16.253-17.536" stroke="#213555" stroke-width="1.8" stroke-miterlimit="10" stroke-linecap="round" stroke-linejoin="round"/><path d="M203.255 109.128s6.415-4.094 11.731-3.055" stroke="#EBDFD7" stroke-width="1.8" stroke-miterlimit="10" stroke-linecap="round" stroke-linejoin="round"/><path d="m162.744 98.435 27.374-4.338c1.222-.183 2.322.855 2.138 2.077l-4.521 30.857a1.9 1.9 0 0 1-1.405 1.527l-26.824 6.538a1.821 1.821 0 0 1-2.261-1.955l2.444-31.468c.122-1.649 1.345-2.994 3.055-3.238Z" fill="#213555"/><path d="m170.932 96.48-.183 2.26c0 .306.305.55.733.49l10.876-1.956c.489-.061.855-.428.855-.794l.123-1.65c0-.306-.306-.55-.673-.489l-10.815 1.344c-.488.061-.855.428-.916.794Z" fill="#4F709C"/><path d="M193.784 113.894s-3.666-.856-4.522-.611c-.855.244-3.849.611-6.049 1.099-2.199.489-6.171.306-7.637.856-1.467.611-.917 1.894-.917 1.894s-1.527-.305-2.016.489c-.733 1.161.794 1.894.794 1.894-1.222-.367-2.261.428-1.711 1.589.428.855 2.444 2.138 4.216 2.994 1.772.855 5.194 1.955 5.194 1.955s-1.589-.183-3.483-.367c-1.772-.122-2.566.733-1.527 1.711 1.038.917 7.454 2.811 9.837 2.261 2.383-.489 5.01-2.016 8.554-2.933 1.528-.367 5.499-.244 9.96-.122-.367-5.377-2.383-10.754-5.316-15.459-2.627 1.405-5.377 2.75-5.377 2.75Z" fill="#F4C2C9"/><path d="M173.437 119.576s3.116 1.344 5.683 2.2c2.566.855 5.315.733 6.049 1.039m-4.033 3.238s2.322.855 3.605.427m-10.021-9.348s2.933 1.1 4.95 1.344c2.016.244 5.315.244 5.743.244" stroke="#EBDFD7" stroke-width="1.8" stroke-miterlimit="10" stroke-linecap="round" stroke-linejoin="round"/><path d="M162.744 85.237a.734.734 0 1 0 0-1.468.734.734 0 0 0 0 1.468Z" fill="#213555"/><path d="M160.056 81.327s-.733 1.527-.245 8.248" stroke="#213555" stroke-width="1.8" stroke-miterlimit="10" stroke-linecap="round" stroke-linejoin="round"/><path d="m19.888 153.732-1.527 119.209c0 1.284 1.039 2.322 2.26 2.322 1.223 0 2.261-.977 2.261-2.199l5.072-119.332h-8.066Zm274.286 0 1.528 119.209c0 1.284-1.039 2.322-2.261 2.322-1.222 0-2.261-.977-2.261-2.199l-5.071-119.332h8.065Z" fill="#DAC0A3"/><path d="M28.015 153.732h-8.127l-.122 9.104h7.882l.367-9.104Zm266.159 0h-8.126l.366 9.104h7.882l-.122-9.104Z" fill="#4F709C"/><path d="m54.594 151.532-1.16 89.026c0 .977.733 1.71 1.71 1.71.917 0 1.65-.733 1.711-1.649l3.788-89.148h-6.049v.061Zm204.813 0 1.161 89.026c0 .977-.733 1.71-1.711 1.71-.916 0-1.649-.733-1.711-1.649l-3.788-89.148h6.049v.061Z" fill="#DAC0A3"/><path d="M311.16 151.288H2.902l37.272-22.669h233.714l37.272 22.669Z" fill="#fff"/><path d="M311.16 151.288H2.902v4.888H311.16v-4.888Z" fill="#DAC0A3"/><path d="m77.08 130.146 18.941 13.137 4.033.061 25.846-11.548-48.82-1.65Z" fill="#4F709C"/><path d="m100.054 143.345 2.444.061c1.222.061 2.444-.245 3.544-.733l18.636-8.86c.794-.367 1.283-1.161 1.222-2.017h-.061l-25.785 11.549Z" fill="#213555"/><path d="m36.997 140.962 64.462 2.505c1.833.061 3.239-1.65 2.811-3.422l-9.227-37.822a5.096 5.096 0 0 0-4.827-3.85L26 97.397c-1.345 0-2.383 1.283-2.017 2.566l10.388 38.861c.366 1.283 1.405 2.139 2.627 2.139Z" fill="#213555"/><path d="M64.827 123.179c1.302-1.681.736-4.3-1.265-5.85-2-1.55-4.678-1.445-5.98.236-1.303 1.681-.736 4.3 1.264 5.85 2.001 1.55 4.679 1.444 5.98-.236Z" fill="#4F709C"/><path d="m45.123 72.1-40.816-.733c-.733 0-1.344-.55-1.527-1.283L.03 56.947c-.183-.855.49-1.589 1.345-1.589l40.816.734c.733 0 1.344.55 1.527 1.283l2.75 13.137c.122.855-.49 1.588-1.345 1.588Z" fill="#F4C2C9"/><path d="M12.229 62.576c.621-.712.404-1.919-.486-2.696-.89-.777-2.114-.83-2.736-.118-.621.712-.404 1.919.485 2.696.89.776 2.115.83 2.737.118Z" fill="#213555"/><path d="m13.9 67.823-3.849-.06c-.855 0-1.71-.734-1.894-1.59-.428-1.894.855-3.421 2.75-3.36 1.894.06 3.788 1.588 4.216 3.483.183.916-.367 1.588-1.223 1.527Z" fill="#213555"/><path d="m29.848 65.074-10.815-.184c-.244 0-.428-.183-.489-.427l-.305-1.406c-.061-.305.183-.61.488-.61l10.816.183c.244 0 .427.183.488.427l.306 1.406c.06.305-.183.61-.489.61Z" fill="#4F709C"/><path d="m34.125 61.835 5.133 4.338m-.856-4.276-3.421 4.154" stroke="#213555" stroke-width="1.8" stroke-miterlimit="10" stroke-linecap="round" stroke-linejoin="round"/><path d="m87.04 93.852-40.817-.733c-.733 0-1.344-.55-1.527-1.283l-2.75-13.137c-.183-.855.489-1.589 1.344-1.589l40.816.734c.734 0 1.345.55 1.528 1.283l2.75 13.137c.122.855-.55 1.65-1.345 1.588Z" fill="#EA5455"/><path d="M54.134 84.308c.622-.712.404-1.919-.485-2.696-.89-.777-2.115-.83-2.736-.118-.622.712-.405 1.918.485 2.695.89.777 2.114.83 2.736.119Z" fill="#213555"/><path d="m55.816 89.575-3.85-.062c-.855 0-1.71-.733-1.893-1.588-.428-1.894.855-3.422 2.75-3.36 1.893.06 3.788 1.588 4.215 3.482.184.917-.366 1.589-1.222 1.528Z" fill="#213555"/><path d="m71.703 86.825-10.815-.183c-.245 0-.428-.183-.49-.428l-.305-1.405c-.06-.306.184-.611.49-.611l10.814.183c.245 0 .428.183.489.428l.306 1.405c.06.306-.184.611-.49.611Z" fill="#4F709C"/><path d="m75.98 83.587 5.193 4.338m-.916-4.277-3.36 4.155M11.395 71.49l2.261 10.631c.305 1.405 1.528 2.444 2.994 2.444l2.383.061m14.909.306 9.348.183" stroke="#213555" stroke-width="1.8" stroke-miterlimit="10" stroke-linecap="round" stroke-linejoin="round"/><path d="m33.27 80.838-2.139 2.26a.757.757 0 0 1-.855.184c-.917-.428-2.078-.245-2.75.488l-2.383 2.506c-.733.733-.855 1.894-.366 2.81.122.306.122.611-.123.856l-2.138 2.26c-.367.428-1.1.245-1.222-.305l-.184-.855c-.427-1.772.062-3.666 1.345-4.95l4.766-5.01c1.283-1.344 3.116-1.894 4.888-1.589l.855.184c.428.06.672.733.306 1.16Z" fill="#213555"/><path d="M135.86 27.557s-2.689 2.933-6.294 0c-3.605-2.933 1.039-8.554 2.505-7.026 1.467 1.588-6.415 4.521-6.66.672-.244-3.85 4.155-4.094-2.016-8.921m32.811 9.288s4.094-1.467 2.628-4.767c-1.467-3.3-5.255 0-2.628 0 2.628 0 4.522-2.81 2.933-6.66m24.197 17.719s5.071 1.834 3.727-1.71c-1.344-3.483-1.222-4.766 1.894-3.361 3.116 1.405 3.299-1.528 4.399-2.2" stroke="#4F709C" stroke-width="1.8" stroke-miterlimit="10" stroke-linecap="round" stroke-linejoin="round"/><path d="m210.037 50.47-2.077 2.2a.928.928 0 0 0 0 1.222c.305.305.794.366 1.16.183l2.383-1.466-1.466-2.139Zm18.453 5.316.55 2.933c.061.489-.184.916-.672 1.039-.428.122-.856-.061-1.039-.49l-1.222-2.504 2.383-.978Z" fill="#213555"/><path d="M221.707 58.352c7.593 0 13.748-6.155 13.748-13.748 0-7.592-6.155-13.748-13.748-13.748-7.592 0-13.747 6.156-13.747 13.748 0 7.593 6.155 13.748 13.747 13.748Z" fill="#4F709C"/><path d="M221.707 53.464a8.86 8.86 0 0 0 8.86-8.86 8.86 8.86 0 1 0-17.719 0 8.86 8.86 0 0 0 8.859 8.86Z" fill="#EA5455"/><path d="m224.213 47.782-2.506-3.178 1.284-4.399" stroke="#4F709C" stroke-width="1.8" stroke-miterlimit="10" stroke-linecap="round" stroke-linejoin="round"/><path d="M212.909 31.284c-.367.122-.856-.061-.917-.489a3.962 3.962 0 0 1 2.505-4.338c1.772-.672 3.789 0 4.766 1.589a.642.642 0 0 1-.366.977l-5.988 2.26Zm23.402 6.782c.244.367.794.367 1.039.061 1.222-1.405 1.344-3.483.183-5.01-1.161-1.528-3.239-2.016-4.888-1.222-.367.183-.489.672-.245 1.039l3.911 5.132Zm-8.371-8.249-3.605-1.038c-.611-.183-.917-.794-.733-1.405.183-.612.794-.917 1.405-.734l3.605 1.039c.611.183.916.794.733 1.405-.183.611-.794.917-1.405.733Z" fill="#4F709C"/><path d="m225.025 28.307-.988 3.403 2.581.75.989-3.403-2.582-.75Z" fill="#4F709C"/><path d="M197.694 15.459h-19.063l-1.956 1.283c-.611.428-1.466-.061-1.466-.794V2.505c0-1.344 1.1-2.505 2.505-2.505h19.98c1.345 0 2.506 1.1 2.506 2.505v10.51c-.061 1.344-1.161 2.444-2.506 2.444Z" fill="#F4C2C9"/><path d="M187.49 6.11h6.661m-6.661 3.483h4.033m-7.515-3.483h-3.422v3.422h3.422V6.11Z" stroke="#213555" stroke-width="1.8" stroke-miterlimit="10" stroke-linecap="round" stroke-linejoin="round"/><path d="M204.416 135.707c-1.222 1.528-3.055 3.055-5.744 3.483-.367.061-.672.122-1.039.122-5.621.428-9.715-3.605-9.715-3.605h16.498Z" fill="#4F709C"/><path d="M233.439 132.224s-1.833 5.988-7.699 7.027c-.977.183-1.894.183-2.749.122h-25.358c.367 0 .673-.061 1.039-.122 2.689-.489 4.522-2.017 5.744-3.483 1.405-1.772 1.955-3.483 1.955-3.483h27.068v-.061Z" fill="#213555"/><path d="m305.661 99.84-55.297-3.666c-1.772-.122-3.177-1.65-3.055-3.421l2.811-54.809c.122-2.138 1.65-3.91 3.727-4.277l56.397-10.937c2.138-.428 4.033 1.283 3.91 3.422l-4.521 70.267c-.183 2.016-1.955 3.605-3.972 3.422Z" fill="#4F709C"/><path d="m303.828 99.78-55.297-3.667c-1.772-.122-3.177-1.65-3.055-3.421l2.811-54.809c.122-2.138 1.649-3.91 3.727-4.277l56.397-10.937c2.138-.428 4.033 1.283 3.91 3.422L307.8 96.358c-.183 2.016-1.955 3.544-3.972 3.421Z" fill="#213555"/><path d="m298.879 49.309-42.893 4.583c-.734.06-1.345-.49-1.345-1.284l.489-9.715c0-.55.428-1.038 1.039-1.1l43.077-6.72c.733-.123 1.405.488 1.405 1.282l-.733 11.854c0 .55-.428 1.039-1.039 1.1Z" fill="#4F709C"/><path d="m262.951 40.755-.672 12.465m-4.888-8.188 3.055 4.949m.305-5.438-3.666 5.866m9.41-5.744 28.351-3.91m-28.534 7.577 15.275-1.956" stroke="#213555" stroke-width="1.8" stroke-miterlimit="10" stroke-linecap="round" stroke-linejoin="round"/><path d="m297.596 69.045-42.527 1.65c-.733 0-1.283-.55-1.222-1.283l.489-9.654c.061-.611.489-1.1 1.1-1.161l42.771-3.789a1.188 1.188 0 0 1 1.283 1.284l-.733 11.731c-.061.733-.55 1.222-1.161 1.222Z" fill="#F4C2C9"/><path d="m262.035 58.108-.672 12.343m-4.889-8.493 3.055 5.193m.306-5.438-3.666 5.621m9.41-5.071 28.106-2.016m-28.351 5.621 15.153-.856" stroke="#213555" stroke-width="1.8" stroke-miterlimit="10" stroke-linecap="round" stroke-linejoin="round"/><path d="m296.313 88.658-42.16-1.222c-.673 0-1.223-.61-1.161-1.283l.488-9.593a1.3 1.3 0 0 1 1.161-1.16l42.405-.856c.672 0 1.283.55 1.222 1.283l-.733 11.67c-.061.673-.611 1.222-1.222 1.161Z" fill="#EA5455"/><path d="m261.118 75.338-.672 12.282m-4.888-8.799 3.055 5.316m.305-5.377-3.605 5.316m9.288-4.338 27.923-.061m-28.106 3.605 15.031.183" stroke="#213555" stroke-width="1.8" stroke-miterlimit="10" stroke-linecap="round" stroke-linejoin="round"/><path d="m60.521 64.401-8.738-41.305a1.47 1.47 0 0 1 1.467-1.772h41.121c1.161 0 2.2.856 2.383 2.017l6.844 41.732c.122.917-.55 1.71-1.467 1.71l-39.227-.488c-1.222 0-2.139-.794-2.383-1.894Z" fill="#DAC0A3"/><path d="m59.605 65.379-8.738-41.305a1.47 1.47 0 0 1 1.467-1.772h41.12c1.162 0 2.2.856 2.384 2.017l6.843 41.732c.123.917-.55 1.711-1.466 1.711l-39.228-.489a2.426 2.426 0 0 1-2.382-1.894Z" fill="#4F709C"/><path d="m64.31 62.08-7.272-34.462h33.973l5.682 34.828-32.384-.367Zm2.749-34.462L74.391 62.2m-15.52-25.845h33.362m-31.59 8.433H93.7m-31.04 8.554 32.628.428M72.925 31.895h13.014m-11.303 8.676H87.65m-11.06 8.494 13.016.183m-11.182 8.187 12.526.306" stroke="#213555" stroke-width="1.8" stroke-miterlimit="10" stroke-linecap="round" stroke-linejoin="round"/><path d="m60.582 29.817 5.377 4.094m-1.466-4.094-2.75 4.094m2.261 13.137 5.377 4.033m-1.467-4.033-2.81 4.033m.856 4.46 5.376 4.094m-1.466-4.094-2.75 4.094" stroke="#F4C2C9" stroke-width="1.8" stroke-miterlimit="10" stroke-linecap="round" stroke-linejoin="round"/><path d="m62.66 40.083 1.833 1.894 2.627-3.422" stroke="#EA5455" stroke-width="1.8" stroke-miterlimit="10" stroke-linecap="round" stroke-linejoin="round"/><path d="M255.619 98.496s.061-5.804-1.466-9.165c0 0-16.498 2.994-19.553 4.766 0 0 2.75 2.75 3.605 6.11.916 3.3 17.292 3.972 17.414-1.71Z" fill="#fff"/><path d="M256.108 102.712s1.039-10.57 1.527-12.77c0 0-13.381 1.1-18.391 3.972l1.344 11.181 15.52-2.383Z" fill="#F4C2C9"/><path d="M270.956 110.9s-.062-7.821 2.077-11.548c0 0-12.587.244-15.398 1.894-2.81 1.649-2.444 9.593-2.444 9.593s15.215.916 15.765.061Z" fill="#fff"/><path d="M273.033 107.478h-13.87v38.189h13.87v-38.189Z" fill="#4F709C"/><path d="M266.128 140.412a2.69 2.69 0 1 0 0-5.378 2.69 2.69 0 0 0 0 5.378Z" stroke="#213555" stroke-width="1.8" stroke-miterlimit="10" stroke-linecap="round" stroke-linejoin="round"/><path d="M245.293 145.728V98.496l-8.31 2.016v40.267l8.31 4.949Z" fill="#4F709C"/><path d="M259.163 98.496h-13.87v47.232h13.87V98.496Z" fill="#EA5455"/><path d="M252.197 140.412a2.69 2.69 0 1 0 0-5.378 2.69 2.69 0 0 0 0 5.378Zm-3.36-13.015h6.782m-6.782 2.689h6.782" stroke="#213555" stroke-width="1.8" stroke-miterlimit="10" stroke-linecap="round" stroke-linejoin="round"/></g></svg>