<svg width="300" height="247" viewBox="0 0 300 247" fill="none" xmlns="http://www.w3.org/2000/svg"><path d="M252.274 211.837 23.816 246.444c-5.137.811-9.733-2.974-10.138-8.111L.024 32.586C-.38 26.908 4.35 22.177 10.028 22.583l228.863 14.6c4.326.27 7.84 3.65 8.246 7.975l13.113 156.676c.405 4.731-3.11 9.192-7.976 10.003Z" fill="#4F709C"/><path d="M258.492 211.567 28.953 246.309c-5.136.811-9.733-2.974-10.138-8.111L5.026 31.505c-.405-5.678 4.326-10.545 10.139-10.14l229.809 14.6c4.326.27 7.841 3.65 8.246 8.111l13.248 157.352c.541 5.002-2.974 9.463-7.976 10.139Z" fill="#213555"/><path d="m108.846 140.731-64.617 3.515c-2.028.135-3.785-1.487-3.92-3.515l-3.785-54.613c-.136-2.163 1.622-4.055 3.785-4.055l64.617.405c2.027 0 3.65 1.487 3.785 3.515l3.785 50.693c.135 2.163-1.487 3.92-3.65 4.055Z" fill="#4F709C"/><path d="m178.329 119.643-54.073 1.893c-2.027.135-3.785-1.487-3.92-3.515l-2.298-31.498c-.135-2.162 1.622-4.055 3.785-4.055l54.073.406c1.893 0 3.515 1.487 3.785 3.514l2.298 29.2c.135 2.163-1.487 4.055-3.65 4.055Z" fill="#EA5455"/><path d="m239.567 117.615-45.557 1.623c-2.027.135-3.785-1.487-3.92-3.515L187.792 87.2c-.135-2.163 1.622-4.056 3.785-4.056l45.557.27c1.892 0 3.514 1.487 3.785 3.515l2.163 26.631c.27 2.028-1.352 3.92-3.515 4.055Z" fill="#F4C2C9"/><path d="m112.901 193.723-64.617 7.029c-2.163.271-4.055-1.352-4.19-3.514l-2.434-35.283c-.135-2.028 1.487-3.92 3.515-4.055l64.752-4.326c2.028-.135 3.92 1.352 4.056 3.514l2.433 32.579c0 2.028-1.487 3.785-3.515 4.056Z" stroke="#4F709C" stroke-width="1.8" stroke-miterlimit="10" stroke-linecap="round" stroke-linejoin="round"/><path d="m184.412 192.371-53.937 6.354c-2.163.27-4.056-1.352-4.191-3.515l-4.326-58.263c-.135-2.163 1.487-3.921 3.515-4.056l54.073-2.568c2.027-.135 3.785 1.487 3.92 3.515l4.326 54.478c.135 2.028-1.352 3.785-3.38 4.055Z" fill="#F4C2C9"/><path d="m173.192 140.461-38.797 2.298c-.946 0-1.622.811-1.487 1.758l1.757 24.062c.136.946.812 1.622 1.758 1.487l38.797-3.38c.946-.135 1.622-.811 1.487-1.757l-1.757-22.981c-.135-.811-.947-1.487-1.758-1.487Z" fill="#4F709C"/><path d="m244.974 178.988-45.557 5.002c-2.163.27-4.055-1.352-4.19-3.515l-3.65-46.908c-.135-2.163 1.487-3.92 3.515-4.055l45.556-2.163c2.028-.135 3.785 1.487 3.92 3.514l3.65 44.07c.27 2.028-1.217 3.785-3.244 4.055Z" fill="#EA5455"/><path d="m79.917 171.418.811 10.003m-5.138-4.596 9.464-.811" stroke="#4F709C" stroke-width="1.8" stroke-miterlimit="10" stroke-linecap="round" stroke-linejoin="round"/><path d="M144.669 182.503c-.27-2.704-2.298-4.867-4.731-4.596-2.433.27-4.326 2.703-4.056 5.542.271 2.839 2.434 4.867 4.867 4.596 2.298-.405 4.055-2.839 3.92-5.542Z" fill="#213555"/><path d="m152.509 181.692 25.279-2.569" stroke="#213555" stroke-width="1.8" stroke-miterlimit="10" stroke-linecap="round" stroke-linejoin="round"/><path d="M208.746 142.219c-.271-2.569-2.028-4.461-4.191-4.461-2.163.135-3.65 2.298-3.515 4.866.271 2.569 2.028 4.596 4.191 4.461 2.298-.135 3.785-2.298 3.515-4.866Z" fill="#4F709C"/><path d="m215.64 141.813 21.764-1.352" stroke="#213555" stroke-width="1.8" stroke-miterlimit="10" stroke-linecap="round" stroke-linejoin="round"/><path d="M209.962 156.683c-.27-2.568-2.028-4.461-4.191-4.326-2.162.136-3.649 2.434-3.514 5.002.27 2.569 2.163 4.596 4.19 4.326 2.163-.27 3.786-2.433 3.515-5.002Z" fill="#4F709C"/><path d="m216.721 156.142 21.899-1.757" stroke="#213555" stroke-width="1.8" stroke-miterlimit="10" stroke-linecap="round" stroke-linejoin="round"/><path d="M211.179 171.148c-.271-2.569-2.028-4.461-4.191-4.326-2.163.135-3.65 2.433-3.515 5.001.271 2.569 2.163 4.461 4.191 4.326 2.163-.27 3.65-2.433 3.515-5.001Z" fill="#4F709C"/><path d="m217.938 170.472 21.764-2.163" stroke="#213555" stroke-width="1.8" stroke-miterlimit="10" stroke-linecap="round" stroke-linejoin="round"/><path d="m59.099 103.962-8.787.135c-.811 0-1.487-.676-1.622-1.487l-.676-9.192c0-.946.676-1.622 1.622-1.622h8.787c.811 0 1.487.676 1.622 1.487l.676 9.057c-.135.811-.811 1.622-1.622 1.622Z" fill="#EA5455"/><path d="m68.562 91.796 30.416-.136m-29.875 7.976 30.415-.27" stroke="#213555" stroke-width="1.8" stroke-miterlimit="10" stroke-linecap="round" stroke-linejoin="round"/><path d="m204.96 101.799-6.894.135c-.406 0-.811-.405-.946-.811l-.676-8.787c0-.54.405-.946.946-.946h6.894c.406 0 .811.406.946.811l.676 8.652c0 .405-.405.946-.946.946Z" fill="#213555"/><path d="M211.449 91.255h22.575m-21.899 6.895 22.44-.271m-36.77 11.491 37.581-.947" stroke="#213555" stroke-width="1.8" stroke-miterlimit="10" stroke-linecap="round" stroke-linejoin="round"/><path d="m60.586 124.916-8.787.27c-.81 0-1.622-.676-1.622-1.487l-.676-9.192c0-.946.676-1.622 1.487-1.622l8.787-.271c.811 0 1.487.676 1.622 1.487l.676 9.057c0 .947-.676 1.758-1.487 1.758Z" fill="#EA5455"/><path d="m70.05 112.479 30.415-.811m-29.875 8.787 30.416-.947" stroke="#213555" stroke-width="1.8" stroke-miterlimit="10" stroke-linecap="round" stroke-linejoin="round"/><path d="m82.756 59.487-45.557-1.352c-1.487 0-2.703-1.216-2.838-2.703l-.541-7.165c-.135-1.757 1.352-3.244 2.974-3.109L82.35 47.05c1.487 0 2.704 1.217 2.84 2.704l.54 6.624c.135 1.622-1.217 3.11-2.974 3.11Z" fill="#4F709C"/><path d="m128.853 91.525 42.987-.135m-42.447 7.706 42.988-.541m-42.177 12.437 23.117-.541" stroke="#213555" stroke-width="1.8" stroke-miterlimit="10" stroke-linecap="round" stroke-linejoin="round"/><path d="M238.215 58.811c-.135-2.028-1.622-3.785-3.38-3.92-1.622-.135-2.974 1.622-2.703 3.65.135 2.163 1.622 3.92 3.379 3.92 1.623.135 2.839-1.622 2.704-3.65Zm-12.031-.405c-.135-2.163-1.758-3.92-3.38-3.92-1.757-.136-2.974 1.622-2.839 3.785.136 2.163 1.758 3.92 3.515 3.92 1.622 0 2.839-1.757 2.704-3.785Zm-12.437-.541c-.135-2.163-1.757-3.92-3.515-4.055-1.757-.136-3.109 1.622-2.974 3.785.135 2.163 1.758 3.92 3.515 4.055 1.892.135 3.109-1.622 2.974-3.785Z" fill="#4F709C"/><path d="m293.099 76.52-60.021-1.081c-2.434 0-4.461-1.893-4.596-4.326l-5.408-66.104a3.69 3.69 0 0 1 3.921-3.92l60.291 6.353c2.298.27 4.055 2.028 4.19 4.326l5.272 60.697c.136 2.298-1.487 4.055-3.649 4.055Z" fill="#F8AB5D"/><path d="m296.343 75.439-60.021-1.082c-2.433 0-4.461-1.892-4.596-4.325l-5.407-66.104a3.689 3.689 0 0 1 3.92-3.92L290.53 6.36c2.298.27 4.055 2.028 4.191 4.326l5.272 60.696c.135 2.299-1.622 4.056-3.65 4.056Z" fill="#EA5455"/><path d="m252.544 12.309 31.768 2.974m-31.227 3.515 31.768 2.703m-30.552 12.166 31.903 2.163m-31.362 4.191 31.768 1.893m-30.416 13.112 31.768 1.352m-31.227 5.002 31.768 1.081m-46.909-46.502 1.622 2.028 2.299-3.11m-2.164 22.711 1.623 1.892 2.433-3.109m-2.298 22.44 1.757 1.893 2.299-3.245" stroke="#4F709C" stroke-width="1.8" stroke-miterlimit="10" stroke-linecap="round" stroke-linejoin="round"/></svg>