<svg width="92" height="100" viewBox="0 0 92 100" fill="none" xmlns="http://www.w3.org/2000/svg"><path d="M6.866 72.246.682 78.793c-.91 1.09-.91 2.546 0 3.637.91.91 2.364 1.091 3.456.546l7.092-4.365-4.364-6.365ZM61.79 88.068l1.637 8.73c.182 1.454-.546 2.728-2 3.091-1.274.364-2.547-.182-3.092-1.455l-3.638-7.456 7.093-2.91Z" fill="#213555"/><path d="M41.602 95.706c22.6 0 40.92-18.32 40.92-40.92s-18.32-40.92-40.92-40.92S.682 32.186.682 54.786s18.32 40.92 40.92 40.92Z" fill="#4F709C"/><path d="M41.602 81.157c14.565 0 26.371-11.806 26.371-26.37 0-14.565-11.806-26.372-26.37-26.372-14.565 0-26.372 11.807-26.372 26.371 0 14.564 11.807 26.371 26.371 26.371Z" fill="#EA5455"/><path d="m49.059 64.243-7.457-9.457 3.82-13.094" stroke="#4F709C" stroke-width="1.8" stroke-miterlimit="10" stroke-linecap="round" stroke-linejoin="round"/><path d="M15.413 15.139c-1.091.364-2.546-.182-2.728-1.455-.91-5.456 2.182-10.912 7.457-12.913 5.274-2 11.276 0 14.185 4.729.728 1.091.182 2.546-1.09 2.91l-17.824 6.729ZM85.07 35.326c.727 1.091 2.364 1.091 3.091.182 3.638-4.183 4.001-10.366.546-14.913-3.456-4.547-9.64-6.002-14.55-3.637-1.091.545-1.455 2-.727 3.091l11.64 15.277ZM60.153 10.774l-10.73-3.092c-1.82-.545-2.728-2.364-2.183-4.183.546-1.818 2.364-2.728 4.183-2.182l10.73 3.092c1.819.545 2.728 2.364 2.183 4.183-.546 1.818-2.364 2.728-4.183 2.182Z" fill="#4F709C"/><path d="m51.478 6.276-2.943 10.13 7.685 2.233 2.943-10.13-7.685-2.233Z" fill="#4F709C"/></svg>