<svg width="361" height="270" viewBox="0 0 361 270" fill="none" xmlns="http://www.w3.org/2000/svg"><g opacity=".9"><path d="m316.378 232.08-277.974-7.965c-12.936-.374-23.574-10.263-24.857-23.146L.13 68.397c-1.497-15.022 10.156-28.118 25.23-28.332l309.406-4.277c15.609-.213 27.851 13.418 25.926 28.92l-18.015 144.814c-1.657 13.15-13.043 22.933-26.3 22.558Z" fill="#EBDFD7"/><mask id="a" style="mask-type:alpha" maskUnits="userSpaceOnUse" x="0" y="35" width="361" height="198"><path d="m316.378 232.08-277.974-7.965c-12.936-.374-23.574-10.263-24.857-23.146L.13 68.397c-1.497-15.022 10.156-28.118 25.23-28.332l309.406-4.277c15.609-.213 27.851 13.418 25.926 28.92l-18.015 144.814c-1.657 13.15-13.043 22.933-26.3 22.558Z" fill="#EAF9F3"/></mask><g mask="url(#a)"><path d="M237.797 299.596h222.112a8.007 8.007 0 0 0 8.018-8.018V165.581a8.008 8.008 0 0 0-8.018-8.019H237.797a8.008 8.008 0 0 0-8.018 8.019v125.943c0 4.437 3.581 8.072 8.018 8.072Zm-269.742-33.464h224.036a8.007 8.007 0 0 0 8.018-8.018V74.064a8.007 8.007 0 0 0-8.018-8.02H-31.945a8.008 8.008 0 0 0-8.018 8.02v184.05a8.007 8.007 0 0 0 8.018 8.018Z" stroke="#DAC0A3" stroke-width="1.8" stroke-miterlimit="10" stroke-linecap="round" stroke-linejoin="round"/><path d="M55.244 122.12h10.852c1.176 0 2.138-.855 2.298-2.031l.856-7.698c.16-1.336-.909-2.566-2.299-2.566H54.39c-1.39 0-2.406 1.176-2.299 2.566l.855 7.698c.16 1.123 1.177 2.031 2.3 2.031Z" stroke="#DAC0A3" stroke-width="1.8" stroke-miterlimit="10" stroke-linecap="round" stroke-linejoin="round"/><path d="M61.978 109.826s4.277-.428 5.132-6.201c0 0-3.849 1.122-5.078 3.848 0 0-.535-6.094-3.421-6.682 0 0-1.283 4.544.748 6.789 0 0-1.55-2.566-5.506-2.512 0 0 1.016 3.635 4.918 4.704" fill="#DAC0A3"/><path d="M239.506 184.13h48.218a2.258 2.258 0 0 0 2.245-2.245v-14.647a2.258 2.258 0 0 0-2.245-2.245h-48.218a2.258 2.258 0 0 0-2.245 2.245v14.647c-.053 1.229.963 2.245 2.245 2.245Z" stroke="#DAC0A3" stroke-width="1.8" stroke-miterlimit="10" stroke-linecap="round" stroke-linejoin="round"/><path d="M258.057 170.178h11.119a.823.823 0 0 0 .802-.802.822.822 0 0 0-.802-.802h-11.119a.823.823 0 0 0-.802.802c0 .427.375.802.802.802Z" fill="#DAC0A3"/><path d="M239.506 208.613h48.218a2.258 2.258 0 0 0 2.245-2.245v-14.647a2.258 2.258 0 0 0-2.245-2.245h-48.218a2.258 2.258 0 0 0-2.245 2.245v14.647c-.053 1.229.963 2.245 2.245 2.245Z" stroke="#DAC0A3" stroke-width="1.8" stroke-miterlimit="10" stroke-linecap="round" stroke-linejoin="round"/><path d="M258.057 194.661h11.119a.822.822 0 0 0 .802-.802.822.822 0 0 0-.802-.802h-11.119a.823.823 0 0 0-.802.802c0 .428.375.802.802.802Z" fill="#DAC0A3"/><path d="M15.685 200.969h48.218a2.259 2.259 0 0 0 2.245-2.245v-14.647a2.259 2.259 0 0 0-2.245-2.246H15.685a2.26 2.26 0 0 0-2.245 2.246v14.647c-.053 1.229.962 2.245 2.245 2.245Z" stroke="#DAC0A3" stroke-width="1.8" stroke-miterlimit="10" stroke-linecap="round" stroke-linejoin="round"/><path d="M34.235 186.963h11.12a.822.822 0 0 0 .801-.802.823.823 0 0 0-.802-.802H34.235a.823.823 0 0 0-.801.802c0 .481.374.802.801.802Z" fill="#DAC0A3"/><path d="M77.588 200.969h48.217a2.258 2.258 0 0 0 2.245-2.245v-14.647a2.259 2.259 0 0 0-2.245-2.246H77.587a2.26 2.26 0 0 0-2.245 2.246v14.647c-.053 1.229.963 2.245 2.246 2.245Z" stroke="#DAC0A3" stroke-width="1.8" stroke-miterlimit="10" stroke-linecap="round" stroke-linejoin="round"/><path d="M96.138 186.963h11.119a.822.822 0 0 0 .802-.802.823.823 0 0 0-.802-.802H96.138a.823.823 0 0 0-.802.802c0 .481.375.802.802.802Z" fill="#DAC0A3"/><path d="M300.929 184.13h48.217a2.26 2.26 0 0 0 2.246-2.245v-14.647a2.259 2.259 0 0 0-2.246-2.245h-48.217a2.258 2.258 0 0 0-2.245 2.245v14.647a2.258 2.258 0 0 0 2.245 2.245Z" stroke="#DAC0A3" stroke-width="1.8" stroke-miterlimit="10" stroke-linecap="round" stroke-linejoin="round"/><path d="M319.532 170.178h11.119a.823.823 0 0 0 .802-.802.822.822 0 0 0-.802-.802h-11.119a.823.823 0 0 0-.802.802c0 .427.321.802.802.802Z" fill="#DAC0A3"/><path d="M300.929 208.613h48.217a2.26 2.26 0 0 0 2.246-2.245v-14.647a2.259 2.259 0 0 0-2.246-2.245h-48.217a2.258 2.258 0 0 0-2.245 2.245v14.647a2.258 2.258 0 0 0 2.245 2.245Z" stroke="#DAC0A3" stroke-width="1.8" stroke-miterlimit="10" stroke-linecap="round" stroke-linejoin="round"/><path d="M319.532 194.661h11.119a.822.822 0 0 0 .802-.802.822.822 0 0 0-.802-.802h-11.119a.823.823 0 0 0-.802.802c0 .428.321.802.802.802Z" fill="#DAC0A3"/><path d="M-54.556 122.12H188.67c1.336 0 2.459-1.122 2.459-2.459V77.056c0-1.336-1.123-2.459-2.459-2.459H-54.556c-1.337 0-2.46 1.123-2.46 2.46v42.604c0 1.337 1.123 2.459 2.46 2.459Zm0 52.869H188.67c1.336 0 2.459-1.123 2.459-2.459v-42.605c0-1.336-1.123-2.459-2.459-2.459H-54.556c-1.337 0-2.46 1.123-2.46 2.459v42.605c0 1.336 1.123 2.459 2.46 2.459Z" stroke="#DAC0A3" stroke-width="1.8" stroke-miterlimit="10" stroke-linecap="round" stroke-linejoin="round"/><path d="M169.468 122.119h5.292V95.23h-5.292v26.889Z" stroke="#DAC0A3" stroke-width="1.8" stroke-miterlimit="10" stroke-linecap="round" stroke-linejoin="round"/><path d="M163.992 122.073h5.506v-19.565h-5.506v19.565ZM9.967 174.902h5.292v-26.889H9.967v26.889Z" stroke="#DAC0A3" stroke-width="1.8" stroke-miterlimit="10" stroke-linecap="round" stroke-linejoin="round"/><path d="M4.491 174.909h5.506v-19.565H4.491v19.565Zm16.266-.007h5.292v-26.889h-5.292v26.889Z" stroke="#DAC0A3" stroke-width="1.8" stroke-miterlimit="10" stroke-linecap="round" stroke-linejoin="round"/><path d="m34.07 174.678 5.046-1.594-8.096-25.641-5.047 1.594 8.096 25.641Zm-18.79.231h5.507v-19.565H15.28v19.565Zm66.09-52.79h5.293V95.23h-5.292v26.889Z" stroke="#DAC0A3" stroke-width="1.8" stroke-miterlimit="10" stroke-linecap="round" stroke-linejoin="round"/><path d="M75.895 122.073h5.506v-19.565h-5.506v19.565Zm57.717.046h5.292V95.23h-5.292v26.889Z" stroke="#DAC0A3" stroke-width="1.8" stroke-miterlimit="10" stroke-linecap="round" stroke-linejoin="round"/><path d="m146.923 121.849 5.046-1.593-8.096-25.641-5.047 1.594 8.097 25.64Zm-18.787.224h5.506v-19.565h-5.506v19.565Z" stroke="#DAC0A3" stroke-width="1.8" stroke-miterlimit="10" stroke-linecap="round" stroke-linejoin="round"/><path d="m10.073 98.707-.588-7.965c-.053-.535.374-.963.909-.963h4.596c.535 0 .909.428.909.963l-.588 7.965s4.81 3.1 4.757 5.666c-.053 1.978-1.23 11.44-1.764 15.609-.16 1.176-1.122 2.032-2.298 2.032H9.378c-1.176 0-2.138-.856-2.299-2.032-.534-4.169-1.71-13.631-1.764-15.609-.053-2.566 4.758-5.666 4.758-5.666Z" fill="#DAC0A3"/><path d="m363.42 218.716-511.685-5.078" stroke="#DAC0A3" stroke-width="1.8" stroke-miterlimit="10" stroke-linecap="round" stroke-linejoin="round"/></g><path d="m174.772 141.418-10.424 83.285c-.107.909.588 1.711 1.497 1.711a1.5 1.5 0 0 0 1.497-1.283l11.921-81.628-4.491-2.085Zm32.396 11.921 10.424 83.285c.107.909-.588 1.711-1.497 1.711a1.5 1.5 0 0 1-1.497-1.283l-11.921-81.628 4.491-2.085Zm-50.572-3.261-14.006 82.751c-.16.909.535 1.71 1.444 1.764.748.053 1.39-.481 1.55-1.23l15.449-81.04-4.437-2.245Zm39.237-8.286 7.698 83.553c.107.909.962 1.55 1.817 1.336a1.49 1.49 0 0 0 1.176-1.55l-5.826-82.323-4.865-1.016Z" fill="#DAC0A3"/><path d="M218.125 67.434C212.298 66.472 193 134.041 193 134.041h18.55s-9.088 10.852-9.408 11.867c-.321 1.016-3.636 14.754-3.636 14.754 22.185-7.056 17.267-26.674 17.267-26.674-4.758-14.701 1.871-33.518 4.704-49.073 2.833-15.61-2.352-17.48-2.352-17.48Z" fill="#EA5455"/><path d="M149.379 157.081s.482 7.323 19.565 8.392c19.084 1.07 43.674-.801 46.882-22.451.053 0-62.598 7.965-66.447 14.059Z" fill="#EA5455"/><path d="M211.122 132.545c-5.185-18.924 14.861-61.208 7.057-65.164-8.019-4.009-38.81-2.352-47.096 4.811-7.751 6.736-11.279 56.664-11.707 62.972-.053.214-.053.428-.053.642 0 3.741-.535 10.049-3.261 12.027-5.292 3.849-14.005 9.676 2.673 13.952 0 0 7.217 1.657 27.797.802 27.851-1.176 25.071-18.335 25.018-28.599 0-.481-.16-.962-.428-1.443Z" fill="#fff"/><path d="M136.711 228.552s2.352 11.226 2.887 12.135c.534.909 4.543 2.887 9.996 1.283 5.453-1.657 5.613-3.635 5.613-3.635s-1.069-12.883-1.069-14.327c-.054-1.443-18.336-4.009-17.427 4.544Z" fill="#B28D93"/><path d="M154.673 232.187c-.267-3.528-.588-7.43-.588-8.179 0-1.443-18.336-4.009-17.427 4.544 0 0 .374 1.711.802 3.849 5.773 1.55 11.707 1.443 17.213-.214Z" fill="#896068"/><path d="M139.009 238.762s-.641 1.016-.641 6.308-8.019 17.267-7.484 20.527c.535 3.261 23.093 4.063 25.125 1.658 2.031-2.459-.107-20.153.053-22.024.107-1.925.855-5.399-.962-7.645 0 0-1.871 1.871-3.368 2.192-1.497.321-2.887-2.726-5.827-3.261-2.94-.534-4.864 2.94-5.185 3.261-.321.321-1.604-.107-1.711-1.016Z" fill="#213555"/><path d="M139.972 251.271s4.544-3.154 11.761.428m-13.525 4.597s6.307-4.437 13.577.909" stroke="#fff" stroke-width="1.8" stroke-miterlimit="10" stroke-linecap="round" stroke-linejoin="round"/><path d="M194.818 234.646s3.635 10.157 5.613 11.975c1.978 1.817 7.27 1.977 10.905 0 3.635-1.978 3.475-4.972 3.475-4.972s-3.154-16.625-3.849-17.052c-.749-.482-16.144 5.185-16.144 10.049Z" fill="#B28D93"/><path d="M194.818 234.646s.909 2.513 2.031 5.293c6.201 1.069 11.6-1.016 16.839-4.01-.962-4.864-2.299-11.065-2.726-11.332-.749-.482-16.144 5.185-16.144 10.049Z" fill="#896068"/><path d="M198.775 243.787s-.482.16.908 4.651c.695 2.405-7.003 14.754-6.842 17.801.16 3.047 6.575 3.581 11.653 3.742 7.752.214 12.83-1.337 13.258-6.308.427-4.972-.909-14.647-.909-16.785 0-2.139-.695-4.598-2.459-7.484 0 0 .16 4.009-1.444 4.757-1.603.802-4.597-2.138-6.895-1.55-2.299.588-3.261 2.352-4.223 3.368-.963.962-2.78-1.604-3.047-2.192Z" fill="#213555"/><path d="M201.125 254.158s4.17-4.17 11.493-.962m-13.79 5.719s6.575-5.452 13.738-.427" stroke="#fff" stroke-width="1.8" stroke-miterlimit="10" stroke-linecap="round" stroke-linejoin="round"/><path d="M157.291 132.919s-24.536 13.524-31.005 25.926c-6.468 12.402 3.635 51.906 3.475 60.245-.16 8.34.909 9.569 5.56 11.333 4.65 1.764 14.753 1.39 18.977-1.764 5.452-4.063 2.94-11.493 1.71-20.474-1.229-8.927-1.817-35.495-1.817-35.495s11.546-9.355 17.213-12.134c1.122-.588 2.352-.802 3.474-.909a2.505 2.505 0 0 1 2.566 3.207c-1.39 4.918-3.368 17.267-2.566 22.933.749 5.292 4.437 18.389 11.654 40.573 1.443 4.384 1.924 7.912 3.688 9.409 7.431 6.254 23.575-.428 25.285-6.255.695-2.405-1.069-10.584-3.368-19.511-3.26-12.776-7.644-27.103-7.323-28.653.534-2.619 7.43-26.675 5.613-37.473-4.384-26.14-24.644-15.609-53.136-10.958Z" fill="#213555"/><path d="M133.985 175.203c4.458 0 8.071-3.949 8.071-8.82 0-4.872-3.613-8.821-8.071-8.821s-8.072 3.949-8.072 8.821c0 4.871 3.614 8.82 8.072 8.82Zm53.503 19.481c4.563-.628 7.72-5.072 7.053-9.927-.667-4.856-4.907-8.283-9.47-7.656-4.563.628-7.721 5.072-7.053 9.927.667 4.856 4.907 8.283 9.47 7.656Zm-33.297-21.994s-.321-3.314-1.337-5.078m22.719-8.126s.588-3.688-.374-4.757" stroke="#4F709C" stroke-width="1.8" stroke-miterlimit="10" stroke-linecap="round" stroke-linejoin="round"/><path d="M168.946 155.157s3.956-.321 12.509 0" stroke="#4F709C" stroke-width="1.8" stroke-miterlimit="10" stroke-linecap="round" stroke-linejoin="round"/><path d="M160.446 78.554s-3.101 1.122-7.912 8.392c-4.65 7.003-8.82 11.386-8.82 11.386s-5.506-6.04-11.279-9.889c-5.774-3.849-12.349-9.89-12.349-9.89s-4.33-2.352-7.056.856c-2.726 3.154-1.336 7.858-1.336 7.858s6.468 8.767 15.983 20.207c6.201 7.483 12.509 12.829 17.801 11.172 7.056-2.192 20.955-14.808 23.361-19.832 2.352-5.079.588-22.078-8.393-20.26Z" fill="#4F709C"/><path d="M143.66 98.332s1.924 2.352 2.833 5.292" stroke="#213555" stroke-width="1.8" stroke-miterlimit="10" stroke-linecap="round" stroke-linejoin="round"/><path d="M120.3 78.82s-4.277-3.527-7.324-3.206c-3.955.427-3.902-.482-6.414.053-1.176.267-3.315 1.123-5.56 3.902-2.245 2.78-3.047 4.223-3.047 4.223s-2.352-5.025-3.795-4.223c-1.444.749 1.978 8.5 3.154 9.302 1.176.802 4.65-.588 5.88 0 1.229.588 4.544-.481 4.544-.481l4.544-1.123 1.176 1.283c.374.428.962.535 1.496.374 1.07-.428 2.887-1.443 4.063-3.956 1.871-3.902 1.283-6.147 1.283-6.147Z" fill="#B28D93"/><path d="M97.955 83.792s-2.352-5.025-3.795-4.223c-1.444.748 1.978 8.5 3.154 9.302 1.176.801 4.65-.588 5.88 0" stroke="#896068" stroke-width="1.8" stroke-miterlimit="10" stroke-linecap="round" stroke-linejoin="round"/><path d="M114.793 82.242s-1.55 4.063-3.474 6.682c-1.978 2.62-4.811 2.726-6.094 1.871-1.283-.802.427-6.736.802-8.179.374-1.443 1.55-2.78 2.298-1.176.588 1.23-.267 4.17-.107 6.522" fill="#B28D93"/><path d="M105.921 90.314s-1.657 1.015-2.62.695c-.962-.321-1.55-1.016-1.71-2.46-.161-1.39.374-5.773.32-6.895-.053-1.123 1.711-2.032 2.459.534.749 2.62.375 4.811.856 5.346" fill="#B28D93"/><path d="M102.284 89.565s-1.229.642-2.512.749c-1.283.107-1.871-.749-2.299-3.368-.48-3.154-.855-6.361.268-6.522 1.122-.16 1.71 1.55 2.138 3.315.427 1.764.695 2.886.962 2.94m6.254-11.066s-3.047.214-4.17.214c-1.069 0-4.062-.748-4.704.16-.641.91 1.176 2.566 4.437 2.994 3.261.481 6.415-2.138 4.437-3.368Z" fill="#B28D93"/><path d="M114.793 91.383s4.224 1.39 7.164-2.833c2.619-3.742 1.603-6.95 1.603-6.95m13.365 34.908s-1.016-1.23 1.603-1.978c2.673-.749 12.83-1.176 11.6 1.764" stroke="#213555" stroke-width="1.8" stroke-miterlimit="10" stroke-linecap="round" stroke-linejoin="round"/><path d="M114.793 82.242s-1.55 4.063-3.474 6.682c-1.978 2.62-4.811 2.726-6.094 1.871-1.283-.802.427-6.736.802-8.179.374-1.443 1.55-2.78 2.298-1.176.588 1.23-.267 4.17-.107 6.522" stroke="#896068" stroke-width="1.8" stroke-miterlimit="10" stroke-linecap="round" stroke-linejoin="round"/><path d="M104.905 90.795c-.535.214-1.123.374-1.604.214-.962-.321-1.55-1.016-1.71-2.46-.161-1.39.374-5.773.32-6.895-.053-1.123 1.711-2.032 2.459.534.535 1.925.482 3.582.642 4.597" stroke="#896068" stroke-width="1.8" stroke-miterlimit="10" stroke-linecap="round" stroke-linejoin="round"/><path d="M101.857 89.726c-.481.214-1.23.481-2.085.534-1.283.107-1.871-.748-2.299-3.367-.48-3.154-.855-6.362.268-6.522 1.122-.16 1.71 1.55 2.138 3.314.427 1.764.695 2.887.962 2.94m.855-7.751s1.657-1.657 2.994-2.405" stroke="#896068" stroke-width="1.8" stroke-miterlimit="10" stroke-linecap="round" stroke-linejoin="round"/><path d="M166.325 50.06c-.053-.961 0-1.924.161-2.886.427-2.245 1.55-6.949 3.421-8.5 2.78-2.298 4.276 1.123 4.276 1.123s1.925-2.512 3.742-2.245c1.818.214 2.78 2.406 2.78 2.406s2.94-2.406 4.704-1.23c1.764 1.123 2.245 2.994 2.245 2.994s1.871-2.139 3.849-1.283c1.978.908 2.352 5.933 2.352 5.933s1.978 1.123 2.406 5.025c.481 4.17-1.55 10.318-5.72 17.374 0 0-8.606-15.503-14.059-17.694-5.453-2.192-5.399 1.87-7.11 1.977-1.497.054-2.779-.106-3.047-2.993Z" fill="#213555"/><path d="M167.394 78.981s-6.682.802 1.123-6.254c6.735-6.094 29.187-4.384 32.074.855 2.138 3.902 4.864 14.326-4.223 20.58-9.088 6.202-24.911-.374-28.974-15.18Z" fill="#4F709C"/><path d="M180.224 77.003s6.254-.267 11.493-.48c5.185-.268 12.883-.108 17.106 5.666 4.865 6.575-2.459 29.24-3.528 35.013-1.069 5.774 3.047 12.723 2.833 17.481-.107 2.726-3.528 9.889-18.709 11.226-17.16 1.55-32.288-1.978-33.945-11.868-1.123-6.628 3.261-11.279 1.764-22.077-.802-5.667-1.818-24.002.107-29.188 1.924-5.185 5.132-6.895 22.879-5.773Z" fill="#EA5455"/><path d="M173.811 71.765s-.749 5.933-1.069 7.484c-.268 1.55.534 5.933 6.735 5.88 6.682-.054 10.852-5.4 11.012-7.538.16-2.138-.374-12.455.535-15.876.908-3.421-7.645-1.444-11.333.695-3.689 2.138-6.254 7.59-5.88 9.355Z" fill="#B28D93"/><path d="M184.875 71.283c-3.475.802-7.751 3.796-11.44 3.208-.107.908-.267 1.87-.374 2.726 4.918.802 9.569-2.299 11.814-5.934Z" fill="#896068"/><path d="M173.275 75.774s-.855 6.147 4.33 9.194c0 0 5.988-.534 10.371-4.81 1.657-1.604 2.512-3.85 2.512-6.148v-.481s8.393.107 10.799 2.619c4.597 4.811-14.273 12.455-24.537 14.06 0 0-9.515-5.293-11.76-10.692-2.245-5.453 7.537-3.528 8.285-3.742Z" fill="#4F709C"/><path d="M174.986 86.839s-2.459 7.216-3.1 15.663" stroke="#213555" stroke-width="1.8" stroke-miterlimit="10" stroke-linecap="round" stroke-linejoin="round"/><path d="M173.115 103.143c.053-.695-.321-2.833-1.016-2.886-.695-.054-1.497 1.978-1.55 2.672-.054.695.481 1.337 1.176 1.39.695.107 1.336-.427 1.39-1.176Z" fill="#4F709C"/><path d="M181.24 87s-.748 7.59.588 15.93" stroke="#213555" stroke-width="1.8" stroke-miterlimit="10" stroke-linecap="round" stroke-linejoin="round"/><path d="M183.218 103.357c-.107-.695-.962-2.673-1.657-2.566-.695.107-1.015 2.245-.909 2.94.107.695.749 1.23 1.497 1.123.695-.16 1.176-.802 1.069-1.497Zm-21.49 24.056c.695-1.069 2.833-4.918 3.261-9.141a1.91 1.91 0 0 1 2.085-1.711c3.956.428 12.776 1.23 19.404.642 1.07-.107 1.978.695 2.085 1.764.214 2.298 1.23 6.201 5.186 9.996.32.267.534.642.588 1.069.267 1.444.855 4.972.694 7.965-.213 3.689-25.017 6.201-33.57-1.39-.428-.374-.642-.962-.642-1.496.054-1.444.268-4.437.642-6.896.053-.375.16-.588.267-.802Z" fill="#4F709C"/><path d="M166.807 52.574s-.107 5.238-.588 9.729c-.427 4.49 0 10.477 7.217 12.348 7.217 1.871 14.219-3.581 16.839-10.745 2.619-7.163 2.726-16.838-6.469-20.634-9.194-3.795-16.571.962-16.999 9.302Z" fill="#B28D93"/><path d="M193.695 57.171c-.695 3.368-1.176 5.185-1.176 5.185l-2.245-2.352s-3.849-.534-4.383-7.43c-.107-1.176-.749-2.245-1.818-2.78-3.154-1.657-4.811.802-10.958.374-2.085-.16-5.293-.48-5.186-3.688.268-8.34 13.151-7.698 19.245-3.903 6.094 3.742 7.216 11.28 6.521 14.594Z" fill="#213555"/><path d="M187.708 60.485s1.39-3.154 3.689-2.833c2.459.32 2.672 7.698-3.689 8.126" fill="#B28D93"/><path d="M170.175 56.37c.107.748.107 1.496.053 2.191-.053.748-.16 1.497-.427 2.192-.054.16-.161.374-.214.534-.053.16-.107.267-.16.428-.054.267-.054.481.053.695.214.48.855.855 1.55 1.122-.374.107-.748.107-1.176 0-.374-.106-.802-.32-1.069-.694-.16-.16-.267-.428-.321-.642a1.533 1.533 0 0 1 0-.695c.054-.214.161-.481.214-.588.054-.16.161-.32.214-.428.535-1.336.802-2.726 1.283-4.116Z" fill="#213555"/><path d="M173.168 67.915s.375-.802 1.283-.107c.909.695 1.283.428 1.764-.16.482-.588.695.535 1.765.107" stroke="#213555" stroke-width="1.8" stroke-miterlimit="10" stroke-linecap="round" stroke-linejoin="round"/><path d="M177.765 55.033c-.267-.321-.321-1.497.749-1.978 1.069-.481 2.833.32 3.848 1.39 1.016 1.069.482 1.603-.748 1.069-1.283-.481-1.764-.642-2.833-.268-.428.16-.855.054-1.016-.213Zm-7.591-.535c.214-.267.374-1.283-.374-1.817-.749-.535-1.978 0-2.62.855-.588.748-.32 1.176.482.962.801-.267 1.122-.32 1.817.107.267.16.535.053.695-.107Zm21.383 6.094c-.214-.107-.428-.214-.588-.214-.16 0-.214.054-.267.16a2.608 2.608 0 0 0-.214 1.016c-.054.374-.054.909-.374 1.444a1.052 1.052 0 0 1-.695.48c-.107.054-.268.054-.374.054-.107 0-.268-.053-.375-.053.428-.268.749-.535.749-.802.053-.267.053-.695.107-1.176.053-.481.16-1.016.641-1.444a.796.796 0 0 1 .481-.213c.214 0 .374.053.481.106.214.214.375.428.428.642Zm-22.771-1.444c.428.054.855-.267.855-.694l.054-.482c.053-.427-.268-.855-.695-.855-.428-.053-.856.267-.856.695l-.053.481c-.107.374.214.802.695.855Zm9.568.91c.427.053.855-.268.855-.695l.053-.481c.054-.428-.267-.856-.695-.856-.427-.053-.855.268-.855.695l-.053.481c-.054.375.267.802.695.856Z" fill="#213555"/><path d="M205.937 80.959c1.23-.053 2.406.481 3.315 1.336 1.069 1.016 3.314 3.154 7.697 7.27 7.057 6.683 8.019 7.966 8.019 7.966s6.201 4.864 6.842 10.905c.642 6.04-3.421 14.166-14.005 7.377-10.585-6.789-15.716-11.333-17.855-15.93-1.924-4.117-.802-18.764 5.987-18.924Z" fill="#4F709C"/><path d="M221.813 103.357s2.406-5.56 7.965-10.852c5.56-5.292 12.135-11.813 13.364-13.096 1.23-1.337 4.223-4.223 8.286-1.07 4.116 3.154 1.711 8.66 1.711 8.66s-7.11 11.44-12.99 21.169c-5.881 9.729-11.868 12.937-19.458 9.248-7.645-3.742 1.122-14.059 1.122-14.059Z" fill="#4F709C"/><path d="M243.142 80.21s3.047-4.115 4.277-5.559c1.229-1.443 3.474-3.635 6.415-2.78 2.993.856 4.49-.962 6.735 1.39s3.795 6.682 5.239 8.286c1.443 1.604 1.069 2.031 3.368 1.978 2.298-.053 4.169.481 3.207 1.764-.962 1.283-7.217 1.604-8.072 1.497-.855-.107-4.865.427-5.88-.054-1.016-.48-.855-.053-1.711-.534-.855-.481-3.047-1.55-3.047-1.55s-.695 1.39-1.604 2.352c-.908.962-4.864.802-7.43-2.192-2.192-2.566-1.497-4.597-1.497-4.597Z" fill="#B28D93"/><path d="M265.809 81.6c1.443 1.604 1.069 2.032 3.368 1.978 2.298-.053 4.169.481 3.207 1.764-.962 1.283-7.217 1.604-8.072 1.497" stroke="#896068" stroke-width="1.8" stroke-miterlimit="10" stroke-linecap="round" stroke-linejoin="round"/><path d="M256.935 85.075c.107-2.833 1.016-5.079 1.871-4.758.909.32 1.336 6.362-.695 7.751-2.085 1.39-7.484-6.094-8.553-6.575" fill="#B28D93"/><path d="M257.843 87.588s1.122 2.192 2.78 1.122c1.657-1.015 3.314-5.987 3.635-7.056.374-1.069-1.711-1.497-3.047 1.123-1.283 2.62-2.299 2.993-2.299 2.993" fill="#B28D93"/><path d="M261.05 87.801s.749 1.39 2.406.962c1.657-.427 3.795-3.742 4.811-4.81 1.016-1.07-.267-2.46-2.031-1.177-1.764 1.283-3.047 2.513-3.903 2.78m-2.512-12.883s1.283.642 2.94 2.887c1.711 2.245 4.865 2.566 5.239 3.742.374 1.176-2.994 1.657-5.667.374-2.619-1.337-3.688-6.736-2.512-7.003Z" fill="#B28D93"/><path d="M239.774 82.776s-.802 3.636 2.513 6.576c4.062 3.635 8.339 1.603 8.339 1.603m-29.988 26.408s-1.229-1.818 2.833-2.727c4.063-.908 10.959-1.389 10.264 1.39" stroke="#213555" stroke-width="1.8" stroke-miterlimit="10" stroke-linecap="round" stroke-linejoin="round"/><path d="M256.935 85.075c.107-2.833 1.016-5.079 1.871-4.758.909.32 1.336 6.362-.695 7.751-2.085 1.39-7.484-6.094-8.553-6.575" stroke="#896068" stroke-width="1.8" stroke-miterlimit="10" stroke-linecap="round" stroke-linejoin="round"/><path d="M260.623 88.71c1.657-1.015 3.314-5.987 3.635-7.056.374-1.069-1.711-1.497-3.047 1.123-.749 1.55-1.444 2.298-1.818 2.672" stroke="#896068" stroke-width="1.8" stroke-miterlimit="10" stroke-linecap="round" stroke-linejoin="round"/><path d="M261.478 88.282c.374.321 1.015.696 1.977.428 1.658-.427 3.796-3.742 4.812-4.81 1.015-1.07-.268-2.46-2.032-1.177-1.39.962-2.459 1.978-3.261 2.459m2.032-4.758s-1.444-2.459-1.978-3.154" stroke="#896068" stroke-width="1.8" stroke-miterlimit="10" stroke-linecap="round" stroke-linejoin="round"/><path d="M225.234 97.69s-2.993 3.476-3.635 7.645" stroke="#213555" stroke-width="1.8" stroke-miterlimit="10" stroke-linecap="round" stroke-linejoin="round"/><path d="M61.443 113.3H42.947c-.695 0-1.443-.588-1.604-1.283l-2.672-11.065c-.16-.695.267-1.283 1.015-1.283h18.496c.695 0 1.444.588 1.604 1.283l2.673 11.065c.16.695-.268 1.283-1.016 1.283Z" fill="#4F709C"/><path d="m38.938 99.936 10.478 5.88c.695.428 1.497.428 2.031 0l7.645-5.88" stroke="#213555" stroke-width="1.8" stroke-miterlimit="10" stroke-linecap="round" stroke-linejoin="round"/><path d="m314.935 114.316-42.123-2.513a1.552 1.552 0 0 1-1.39-2.031l11.76-37.366a2.601 2.601 0 0 1 2.192-1.764l43.941-3.208c1.123-.106 1.924.963 1.604 2.032l-13.471 43.086c-.321 1.122-1.39 1.871-2.513 1.764Z" fill="#4F709C"/><path d="m313.384 113.354-42.124-2.513a1.552 1.552 0 0 1-1.39-2.031l11.76-37.366a2.601 2.601 0 0 1 2.192-1.764l43.941-3.208c1.123-.106 1.925.963 1.604 2.032l-13.471 43.086c-.321 1.122-1.39 1.871-2.512 1.764Z" fill="#213555"/><path d="m291.788 76.897-7.431.374c-.267 0-.428-.214-.374-.481l.534-1.711c.107-.267.321-.428.588-.428l7.484-.427c.268 0 .428.213.375.48l-.588 1.765a.829.829 0 0 1-.588.428Zm-15.503 29.026c-.749-.053-1.283-.748-1.07-1.497l3.529-11.119c.16-.48.588-.802 1.069-.802.748 0 1.336.749 1.069 1.497l-3.528 11.119c-.054.481-.535.856-1.069.802Z" fill="#EA5455"/><path d="M281.578 106.137c-.802-.054-1.336-.802-1.069-1.55l5.666-18.015c.161-.481.588-.802 1.123-.856.802 0 1.39.749 1.176 1.55l-5.666 18.015c-.214.589-.695.909-1.23.856Z" fill="#4F709C"/><path d="M287.03 106.404c-.802-.053-1.337-.802-1.123-1.603l2.352-7.43c.161-.535.642-.856 1.176-.856.802 0 1.39.802 1.176 1.603l-2.352 7.431c-.16.534-.695.855-1.229.855Z" fill="#EA5455"/><path d="M292.697 106.618c-.855-.053-1.39-.855-1.176-1.657l6.682-21.276c.161-.534.642-.855 1.176-.909.856 0 1.497.802 1.23 1.658l-6.682 21.275c-.161.588-.695.963-1.23.909Zm5.827.267c-.855-.053-1.443-.908-1.229-1.71l4.383-14.006c.16-.534.695-.909 1.23-.909.908 0 1.55.856 1.283 1.711l-4.384 14.006c-.16.534-.695.908-1.283.908Z" fill="#4F709C"/><path d="M304.617 107.153a1.35 1.35 0 0 1-1.23-1.764l.909-2.994c.16-.588.748-.962 1.336-.962.909 0 1.551.908 1.283 1.764l-.909 2.993c-.213.588-.801.963-1.389.963Z" fill="#F4C2C9"/><path d="M310.872 107.42c-.908-.053-1.55-.962-1.283-1.817l4.544-14.434c.161-.588.749-1.015 1.337-1.015.962 0 1.657.908 1.39 1.817l-4.544 14.433c-.214.642-.802 1.016-1.444 1.016Z" fill="#EA5455"/><path d="M316.86 74.224c.107-.375-.054-.695-.321-.695-.321 0-.642.32-.802.748-.107.374.054.695.321.695.321-.053.695-.374.802-.748Zm2.78-.161c.107-.374-.054-.695-.375-.695-.32 0-.694.374-.801.749-.107.374.053.694.374.694.321-.053.695-.374.802-.748Zm2.833-.16c.107-.374-.054-.695-.374-.695-.321 0-.695.374-.802.748-.107.375.053.695.374.695s.695-.374.802-.748Z" fill="#4F709C"/><path d="M156.062 33.276s-3.849.16-4.812-3.368c-.962-3.528 2.673-5.132 2.673-1.817 0 3.314-5.185 4.757-7.323 1.978-2.192-2.78.374-4.918 1.069-3.315.748 1.604-.962 4.972-4.009 3.956m58.375 8.072s6.575-.374 6.147-5.132c-.427-4.758-4.704 4.063 1.016 3.956 5.666-.107 5.399-5.506 3.688-5.88-1.71-.375-1.283 3.795 1.871 3.528 3.154-.268 3.635-2.192 3.635-2.192" stroke="#4F709C" stroke-width="1.8" stroke-miterlimit="10" stroke-linecap="round" stroke-linejoin="round"/><path d="M180.331 29.534a1.803 1.803 0 0 0-1.818-1.818 1.802 1.802 0 0 0-1.817 1.818c0 1.015.802 1.817 1.817 1.817a1.803 1.803 0 0 0 1.818-1.817Z" fill="#4F709C"/><path d="M189.099 9.808a10.65 10.65 0 0 1-2.78 7.965 11.874 11.874 0 0 0-3.154 8.072v1.871a1.894 1.894 0 0 1-1.871 1.871h-5.453a1.894 1.894 0 0 1-1.87-1.87v-1.872c0-2.993-1.123-5.88-3.154-8.018-1.764-1.871-2.834-4.437-2.834-7.217 0-6.094 5.186-11.012 11.333-10.584 5.185.32 9.408 4.544 9.783 9.782Z" fill="#EA5455"/><path d="M173.916 25.846h9.195m-9.195 1.817h9.195m-5.559-1.817V11.198c0-1.336-1.497-2.138-2.619-1.39-.856.589-.963 1.872-.161 2.62l.642.588m4.062 12.83V11.198c0-1.336 1.496-2.138 2.619-1.39.855.589.962 1.872.16 2.62l-.641.588" stroke="#213555" stroke-width="1.8" stroke-miterlimit="10" stroke-linecap="round" stroke-linejoin="round"/><path d="m135.642 66.205-4.704-43.086c-.16-1.283-1.176-2.352-2.459-2.512l-60.994-7.965a2.17 2.17 0 0 0-2.405 2.405l5.987 51.372c.16 1.443 1.39 2.512 2.833 2.512l59.55-.32c1.337 0 2.352-1.123 2.192-2.406Z" fill="#4F709C"/><path d="m138.367 65.991-4.704-43.407c-.16-1.336-1.176-2.351-2.459-2.512l-61.421-8.018c-1.39-.16-2.62 1.015-2.46 2.405l6.041 51.746c.16 1.443 1.39 2.512 2.834 2.512l60.031-.32c1.283 0 2.245-1.123 2.138-2.406Z" fill="#213555"/><path d="M130.617 61.715h-48.86l-.16-1.604 10.317-14.54a4.588 4.588 0 0 1 5.56-1.604l4.704 1.925c2.138.855 4.544.053 5.72-1.872l2.085-3.42a4.621 4.621 0 0 1 5.612-1.925c.535.214 1.123.32 1.658.32a4.607 4.607 0 0 0 3.688-1.817l6.415-8.393 3.261 32.93Z" fill="#EA5455"/><path d="m81.598 60.111-3.689-31.967m3.528 30.523L89.83 36.75c.855-2.298 3.42-3.421 5.72-2.512l4.33 1.71c1.764.695 3.795.16 5.024-1.282l2.887-3.529c1.604-1.924 4.437-2.191 6.308-.48 1.443 1.336 3.635 1.496 5.292.427l7.805-4.972" stroke="#4F709C" stroke-width="1.8" stroke-miterlimit="10" stroke-linecap="round" stroke-linejoin="round"/><path d="m77.536 23.92-.321-2.565a.621.621 0 0 1 .695-.695l11.6 1.23c.374.053.641.32.695.641l.374 2.352a.46.46 0 0 1-.535.535l-11.813-.856c-.375.054-.642-.267-.695-.641Z" fill="#4F709C"/><path d="M266.716 48.725c-12.349 11.974-27.691 14.326-33.25 6.094-4.918-7.27-.267-20.207 9.782-29.562 9.89-9.194 22.933-12.99 29.989-8.125 7.965 5.452 5.613 19.832-6.521 31.593Z" fill="#F8AB5D"/><path d="M264.953 46.907c-12.348 11.975-27.69 14.327-33.25 6.094-4.918-7.27-.267-20.206 9.783-29.561 9.889-9.195 22.933-12.99 29.989-8.126 8.018 5.506 5.613 19.886-6.522 31.593Z" fill="#EA5455"/><path d="M259.769 41.722c-7.431 7.11-16.732 8.874-20.474 4.116-3.421-4.383-.695-12.67 5.826-18.763 6.469-6.04 14.861-8.34 19.191-4.918 4.651 3.635 2.78 12.509-4.543 19.565Z" fill="#4F709C"/><path d="M255.011 36.964c-2.941 2.78-6.682 3.582-8.286 1.818-1.55-1.711-.535-5.186 2.245-7.805 2.78-2.62 6.361-3.475 8.072-1.925 1.764 1.55.909 5.132-2.031 7.912Z" fill="#F4C2C9"/><path d="M236.034 19.003c-1.123 1.069-2.941.962-3.956-.16l-9.515-12.135c-.482-.642-.428-1.55.16-2.085a1.556 1.556 0 0 1 2.085 0l11.332 10.424c1.123 1.123 1.07 2.887-.106 3.956Z" fill="#213555"/><path d="m224.753 9.007-3.047.427c-.856.107-1.176 1.176-.535 1.71 1.871 1.658 4.17 2.727 6.629 3.155l1.55.267c.16.053.321-.16.214-.32l-3.849-4.865c-.267-.268-.588-.428-.962-.374ZM227 6.975l.695-2.993c.16-.802 1.229-1.07 1.764-.375a13.148 13.148 0 0 1 2.619 6.843l.107 1.55c0 .16-.214.267-.321.16l-4.544-4.17c-.32-.32-.427-.694-.32-1.015Z" fill="#4F709C"/><path d="m235.604 18.522 3.047 3.26" stroke="#213555" stroke-width="1.8" stroke-miterlimit="10" stroke-linecap="round" stroke-linejoin="round"/><path d="M299.806 46.64v-7.805a.707.707 0 0 0-.695-.695h-3.528a.708.708 0 0 0-.695.695v7.805h-2.031c-.535 0-.855.588-.588 1.015l4.437 7.003a.651.651 0 0 0 1.122 0l4.437-7.003c.268-.427-.053-1.015-.588-1.015h-1.871Z" fill="#4F709C"/><path d="M315.308 55.086v-7.804a.708.708 0 0 0-.695-.695h-3.528a.708.708 0 0 0-.695.694v7.805h-2.031c-.535 0-.855.588-.588 1.016l4.437 7.003a.651.651 0 0 0 1.122 0l4.437-7.003c.268-.428-.053-1.016-.588-1.016h-1.871ZM59.947 85.877c.267-.962-.32-1.978-1.336-2.245-.962-.267-1.978.32-2.245 1.336-.268.962.32 1.978 1.336 2.245.962.268 1.978-.32 2.245-1.336Z" fill="#213555"/><path d="m62.193 81.493.107-.48c.427-1.551-.535-3.155-2.085-3.582-1.55-.428-3.154.534-3.582 2.085l-.107.48a3.85 3.85 0 0 1-.802 1.444c-.32.32-.641.695-.962 1.016-.695.748-.32 1.977.642 2.245l2.672.695 2.673.695c.963.267 1.925-.642 1.657-1.604a52.678 52.678 0 0 0-.32-1.39c-.054-.481-.054-1.07.107-1.604Z" fill="#4F709C"/><path d="M10.393 61.982s19.992-4.544 19.672-15.128l30.577 2.406s-.375 12.99-20.314 19.618c-.053 0-21.276-2.833-29.935-6.896Z" fill="#EA5455"/><path d="m35.998 61.501 5.4.748m-3.154-2.887 6.254.856M32.899 54.23s13.792 1.925 16.25 2.246" stroke="#213555" stroke-width="1.8" stroke-miterlimit="10" stroke-linecap="round" stroke-linejoin="round"/><path d="M35.358 57.545c-.908 1.283-2.726 3.368-5.666 4.597-.107.054-.267.054-.428.054a118.316 118.316 0 0 1-6.254-1.443c-.32-.054-.32-.482-.054-.589 1.337-.587 3.956-1.817 6.255-3.848.16-.16.374-.214.534-.16 1.123.213 3.047.48 5.4.855.213.106.374.374.213.534Z" fill="#213555"/><path d="M44.444 51.45c-.106.589-.32 1.123-.427 1.444-.107.214-.267.32-.481.267L33.112 52.04c-.321-.054-.481-.32-.374-.642.16-.374.267-.748.32-1.176a.513.513 0 0 1 .481-.374l10.478.962c.267.16.481.375.427.642Z" fill="#4F709C"/><path d="M225.931 67.648c-2.085 4.544-7.11 7.538-10.531 6.629-2.994-.802-3.582-4.383-1.658-7.912 1.818-3.42 5.613-6.094 8.821-6.2 3.581-.054 5.345 3.207 3.368 7.483Z" fill="#F8AB5D"/><path d="M224.861 66.74c-2.085 4.543-7.11 7.537-10.531 6.628-2.994-.802-3.582-4.383-1.657-7.911 1.817-3.421 5.613-6.094 8.82-6.201 3.635-.107 5.346 3.154 3.368 7.484Z" fill="#EA5455"/><path d="M223.149 66.58c-1.604 3.367-5.292 5.665-7.912 5.077-2.352-.534-2.886-3.26-1.39-6.094 1.444-2.672 4.437-4.81 6.896-4.81 2.727 0 3.956 2.565 2.406 5.826Z" fill="#F8AB5D"/><path d="m216.041 69.466.214-.374c.053-.16.053-.268-.054-.321-.267-.107-.481-.214-.588-.374-.053-.054-.053-.214.054-.375l.053-.053c.107-.16.321-.214.374-.107.161.16.428.32.749.374.534.107 1.122-.267 1.39-.748.267-.481.107-.856-.321-1.176-.588-.428-.855-.909-.428-1.657.321-.642.962-1.123 1.657-1.283.107 0 .268-.107.321-.268l.214-.374c.053-.16.267-.267.374-.267.107 0 .16.107.107.267l-.16.32c-.054.161-.054.268.107.268a1.6 1.6 0 0 1 .534.214c.107.054.054.214-.053.374l-.054.054c-.107.16-.321.214-.427.16a1.194 1.194 0 0 0-.695-.214 1.166 1.166 0 0 0-1.176.695c-.214.428-.054.695.427 1.07.642.48.802 1.015.374 1.817-.32.695-1.015 1.283-1.817 1.39-.107 0-.267.107-.321.267l-.214.428c-.107.16-.267.267-.374.267-.321-.107-.374-.214-.267-.374Z" fill="#EA5455"/><path d="M53.907 145.908h-5.239l-.267 9.516h5.025l.48-9.516Z" fill="#4F709C"/><path d="m48.4 155.424-3.153 95.794c-.054 1.015.748 1.817 1.764 1.817a1.76 1.76 0 0 0 1.764-1.657l4.65-95.954h-5.024Z" fill="#DAC0A3"/><path d="M313.866 145.908h-5.185l.427 9.516h5.079l-.321-9.516Z" fill="#4F709C"/><path d="m309.108 155.424 4.651 95.954c.054.962.802 1.657 1.764 1.657 1.016 0 1.818-.802 1.764-1.817l-3.154-95.794h-5.025ZM67.859 132.918l-2.94 90.075c-.053.855.641 1.55 1.497 1.55.802 0 1.496-.642 1.496-1.444l4.384-90.181h-4.437Zm226.815 0 2.94 90.075c.053.855-.642 1.55-1.497 1.55-.802 0-1.497-.642-1.497-1.444l-4.383-90.181h4.437Z" fill="#DAC0A3"/><path d="M328.674 143.877H33.861l30.898-14.7h233.07l30.845 14.7Z" fill="#fff"/><path d="M328.674 143.877H33.861v4.01h294.813v-4.01Z" fill="#DAC0A3"/><path d="M275.484 129.658s-2.512-1.23-3.368-3.689c-.855-2.459.642-4.116 1.283-3.955.588.107 1.604 3.261 2.406 3.261s.641-5.453 2.245-6.041c1.55-.535 1.443 5.399 1.497 5.88.107 1.23 2.191-1.443 2.94-2.512.909-1.337 3.849 3.474-2.299 7.056 0 0-2.352.481-4.704 0Z" fill="#4F709C"/><path d="M285.854 130.246v.214c-.054 3.154-.695 6.307-1.818 9.301-.213.481-.695.855-1.229.855h-9.622c-.535 0-1.016-.32-1.23-.855-1.122-2.994-1.764-6.094-1.817-9.301v-.214c0-.588.427-1.016 1.015-1.016h13.685c.588-.053 1.016.428 1.016 1.016Zm-36.137-3.956c-4.17.428-5.239 11.707-13.151 12.829 0 0-1.443.054-3.795.107-6.789.214-20.795.535-26.461.054.748 0 1.55-.054 2.459-.161 2.459-.32 4.223-1.657 5.666-3.26 3.208-3.742 4.651-9.248 7.484-9.516h27.798v-.053Z" fill="#213555"/><path d="M214.382 135.859c-1.443 1.657-3.207 2.94-5.666 3.261-.856.107-1.711.16-2.459.16-5.988 0-7.752-3.314-7.752-3.314s9.569.427 15.877-.107Z" fill="#4F709C"/><path d="M173.97 140.402h-38.81v-2.886h41.696a2.874 2.874 0 0 1-2.886 2.886Z" fill="#213555"/><path d="M143.499 140.402H83.681c-1.924 0-3.635-1.336-4.116-3.207l-9.836-39.184c-.374-1.443.748-2.886 2.245-2.886h59.818c1.924 0 3.635 1.336 4.116 3.207l9.836 39.184a2.304 2.304 0 0 1-2.245 2.886Z" fill="#213555"/><path d="M108.162 121.153c1.415-1.625.812-4.467-1.348-6.348-2.159-1.88-5.057-2.087-6.473-.462-1.415 1.625-.811 4.467 1.348 6.348 2.16 1.88 5.058 2.087 6.473.462Z" fill="#4F709C"/><path d="M177.231 134.629h-12.669a1.13 1.13 0 0 1-1.123-1.122c0-3.208 2.619-5.827 5.827-5.827h3.207c3.207 0 5.827 2.619 5.827 5.827 0 .641-.481 1.122-1.069 1.122Z" fill="#213555"/><path d="M254.422 135.912c-1.176-.214-3.101-.802-3.742-2.94s4.223-6.789 5.72-6.789c1.497.053 4.223 1.497 5.666 3.528 1.39 2.031-1.229 3.314-.909 4.277.321 1.015-2.672 2.726-6.735 1.924Z" fill="#fff" stroke="#DAC0A3" stroke-width="1.8" stroke-miterlimit="10" stroke-linecap="round" stroke-linejoin="round"/><path d="M250.68 132.972s2.513 1.817 3.689 1.283c1.176-.481 2.084-2.032 4.169-1.818 2.085.161 1.657-3.421 0-4.009-1.657-.588-2.833 3.154-4.169 3.207-1.283.054-1.657-.801-.428-1.764" fill="#fff"/><path d="M250.68 132.972s2.513 1.817 3.689 1.283c1.176-.481 2.084-2.032 4.169-1.818 2.085.161 1.657-3.421 0-4.009-1.657-.588-2.833 3.154-4.169 3.207-1.283.054-1.657-.801-.428-1.764" stroke="#DAC0A3" stroke-width="1.8" stroke-miterlimit="10" stroke-linecap="round" stroke-linejoin="round"/><path d="M248.167 139.227s1.337-1.551.749-2.406c-.588-.855-1.069-1.122-1.337-1.604-.374-.748-.32-2.352-1.176-3.153-.802-.749-2.245.481-5.452.053-2.459-.321-4.704 3.475-3.849 4.544.802 1.069 1.176 1.283 1.176 1.283s-.481.962-.214 1.55c.267.588 2.138 1.443 4.972 1.711 2.886.32 5.131-1.978 5.131-1.978Z" fill="#fff" stroke="#DAC0A3" stroke-width="1.8" stroke-miterlimit="10" stroke-linecap="round" stroke-linejoin="round"/><path d="M238.278 137.997s2.566 1.978 4.384 1.55c1.817-.428 3.581-3.742 3.474-4.651-.106-.908-.855-1.336-2.672.321-1.818 1.657-3.208 1.23-3.047-.214" fill="#fff"/><path d="M238.278 137.997s2.566 1.978 4.384 1.55c1.817-.428 3.581-3.742 3.474-4.651-.106-.908-.855-1.336-2.672.321-1.818 1.657-3.208 1.23-3.047-.214" stroke="#DAC0A3" stroke-width="1.8" stroke-miterlimit="10" stroke-linecap="round" stroke-linejoin="round"/></g></svg>