<svg width="342" height="214" viewBox="0 0 342 214" fill="none" xmlns="http://www.w3.org/2000/svg"><path d="M202.507 50.62s-2.955 2.956 2.533 25.334c5.489 22.377 17.945 39.477 17.945 39.477s16.044-13.511 11.188-36.733c-4.644-23.222-31.666-28.077-31.666-28.077Z" fill="#213555"/><path d="M205.675 116.486s-4.223 1.267-14.145 11.611c-9.922 10.345-24.488 15.622-41.799 23.433s-25.755-28.499-21.322-46.866c4.222-18.366 23.222-31.032 23.222-31.032l36.944 5.066s12.244-14.566 17.1-5.066c4.644 9.5 4.222 30.821 0 42.854Z" fill="#F4C2C9"/><path d="m174.008 183.83-125.82 28.922c-5.49 1.267-10.978-2.111-12.245-7.6L.266 50.621c-1.267-5.489 2.11-10.978 7.6-12.245l125.82-28.921c5.489-1.267 10.978 2.11 12.244 7.6l35.467 154.531c1.477 5.489-1.9 10.977-7.389 12.244Z" fill="#213555"/><path d="M121.02 53.787 39.11 72.576c-2.744.633-5.278-1.056-5.911-3.8-.633-2.745 1.056-5.278 3.8-5.911l81.91-18.789c2.744-.633 5.278 1.056 5.911 3.8.422 2.534-1.267 5.278-3.8 5.911Z" fill="#EA5455"/><path d="m38.899 94.32 91.621-21.11m-88.033 36.521 91.621-21.111" stroke="#4F709C" stroke-width="1.8" stroke-miterlimit="10" stroke-linecap="round" stroke-linejoin="round"/><path d="m97.166 170.53-33.777 7.811c-2.745.634-5.278-1.055-5.912-3.8l-7.81-33.777c-.634-2.744 1.055-5.278 3.8-5.911l33.777-7.811c2.744-.633 5.278 1.055 5.91 3.8l7.812 33.777c.422 2.533-1.267 5.278-3.8 5.911Z" fill="#EA5455"/><path d="m105.609 122.609 34.41-8.023m-30.61 24.7 34.621-7.811m-30.821 24.7 20.9-4.855" stroke="#4F709C" stroke-width="1.8" stroke-miterlimit="10" stroke-linecap="round" stroke-linejoin="round"/><path d="M94.42 23.388 49.663 33.732a4.463 4.463 0 0 1-5.277-5.278l.422-2.11a4.582 4.582 0 0 1 3.378-3.378l42.854-9.923c1.69-.422 3.378.212 4.434 1.478l1.266 1.69c2.112 2.744.845 6.544-2.322 7.177Z" fill="#4F709C"/><path d="M191.53 65.82s-5.278 2.745-15.411 0c-10.133-2.744-11.822-5.277-22.378-8.021-10.555-2.745-25.122.21-27.655 4.644-2.533 4.433 4.222 7.178 13.3 8.233 9.078 1.056 13.3 18.367 27.866 24.911 24.278 10.767 45.811-22.166 24.278-29.766Z" fill="#F4C2C9"/><path d="M126.086 62.443c-2.533 4.433 4.222 7.178 13.3 8.233 9.078 1.056 13.3 18.367 27.866 24.91 5.067 2.323 9.922 2.534 14.356 1.69" stroke="#EBDFD7" stroke-width="1.8" stroke-miterlimit="10" stroke-linecap="round" stroke-linejoin="round"/><path d="M207.575 56.11s-11.189 7.177-16.045 9.71c0 0 9.5 9.29 13.3 25.967 3.8 16.677.845 24.699.845 24.699s12.455-1.266 18.577-5.7c0 0 5.911-9.711 1.056-28.71-4.856-19-17.733-25.967-17.733-25.967Z" fill="#fff"/><path d="M340.15 30.355c-8.444-27.867-41.377-39.267-65.233-22.59-13.933 9.712-28.499 19.212-40.11 25.545l-32.3 17.522s18.367 18.155 21.111 38.21c2.745 20.056-.633 26.6-.633 26.6s50.455-12.455 94.998-34.2c18.789-9.5 28.289-31.032 22.167-51.087Z" fill="#4F709C"/><path d="M218.763 100.231c0-1.478-1.056-2.533-2.533-2.533-1.478 0-2.534 1.055-2.534 2.533s1.056 2.533 2.534 2.533c1.477 0 2.533-1.055 2.533-2.533Z" fill="#213555"/></svg>