<svg width="38" height="38" viewBox="0 0 38 38" fill="none" xmlns="http://www.w3.org/2000/svg"><path d="M6.84 3.04c-2.09 0-3.8 1.71-3.8 3.8v24.32c0 2.09 1.71 3.8 3.8 3.8h12.792a.758.758 0 0 0 .248 0h4.312a.758.758 0 0 0 .248 0h6.72c2.09 0 3.8-1.71 3.8-3.8V6.84c0-2.09-1.71-3.8-3.8-3.8H6.84Zm0 1.52h24.32a2.269 2.269 0 0 1 2.28 2.28v24.32a2.269 2.269 0 0 1-2.28 2.28h-6.08V22.8h2.904l1.064-5.32H25.08v-1.52c0-.424.04-.457.183-.55.142-.092.581-.21 1.337-.21h2.28v-4.28l-.433-.206S26.7 9.88 24.32 9.88c-1.71 0-3.115.681-4.014 1.805C19.407 12.809 19 14.313 19 15.96v1.52h-2.28v5.32H19v10.64H6.84a2.269 2.269 0 0 1-2.28-2.28V6.84a2.269 2.269 0 0 1 2.28-2.28Zm17.48 6.84c1.58 0 2.574.348 3.04.533v1.747h-.76c-.875 0-1.576.072-2.166.456-.59.383-.874 1.11-.874 1.824V19h3.632l-.455 2.28H23.56v12.16h-3.04V21.28h-2.28V19h2.28v-3.04c0-1.393.353-2.549.974-3.325.62-.776 1.496-1.235 2.826-1.235Z" fill="#fff"/></svg>