<svg width="50" height="50" viewBox="0 0 50 50" fill="none" xmlns="http://www.w3.org/2000/svg"><g clip-path="url(#a)"><path d="M7.034 20.75c-1.118.172-2.063.86-2.665 1.634V9.317c0-1.89 1.547-3.438 3.439-3.524h14.011c1.376 0 2.665.86 3.181 2.063l.688 1.461c.086.258.172.43.43.602H15.114l-8.08 8.08v2.751Zm5.931-2.32H7.808l7.564-7.565v5.157c0 1.29-1.031 2.321-2.407 2.407Zm.086.773c1.72 0 3.18-1.375 3.18-3.181v-5.158h23.64c.516 0 1.032.172 1.462.516.516.43.86 1.032.86 1.805v1.978H28.18a4.344 4.344 0 0 0-3.955 2.579l-.601 1.375a2.646 2.646 0 0 1-2.407 1.547H7.893v-1.46l5.158-.001Zm30.001-3.954v-2.063c0-.602-.258-1.29-.601-1.806 1.805.086 3.18 1.633 3.18 3.439v2.063c-.688-.86-1.633-1.376-2.665-1.634h.086Zm-.86.773c1.892 0 3.44 1.548 3.44 3.353v21.319a3.449 3.449 0 0 1-3.44 3.438H7.894a3.448 3.448 0 0 1-3.438-3.438V24.962a3.449 3.449 0 0 1 3.438-3.438h13.325c1.375 0 2.579-.86 3.18-2.063L25 18.085c.602-1.289 1.805-2.063 3.18-2.063h14.013ZM15.269 1.965A24.729 24.729 0 0 1 25 0c3.39 0 6.634.655 9.731 1.965a24.799 24.799 0 0 1 7.947 5.357 24.8 24.8 0 0 1 5.357 7.946A24.728 24.728 0 0 1 50 25c0 3.39-.655 6.634-1.965 9.731a25.18 25.18 0 0 1-1.166 2.398v-4.736A22.849 22.849 0 0 0 48.077 25c0-2.555-.403-5.02-1.208-7.393v-2.788l-.002-.072-.024-.412-.017-.144-.072-.406-.034-.141-.118-.395-.05-.137-.165-.378-.066-.13-.208-.356-.081-.122-.249-.33-.096-.112-.286-.297-.11-.102-.32-.26-.125-.089-.35-.219-.137-.074-.375-.173-.147-.057-.393-.123-.125-.033-.678-.138a23.64 23.64 0 0 0-1.323-1.437 22.895 22.895 0 0 0-7.336-4.946A22.825 22.825 0 0 0 25 1.923c-3.13 0-6.124.604-8.982 1.813-.59.25-1.168.522-1.735.819h-3.681a24.843 24.843 0 0 1 4.666-2.59Zm19.463 46.07A24.733 24.733 0 0 1 25 50c-3.39 0-6.634-.655-9.732-1.965a24.826 24.826 0 0 1-4.772-2.665h3.644a23.32 23.32 0 0 0 1.878.894A22.825 22.825 0 0 0 25 48.077c3.13 0 6.124-.604 8.982-1.813.639-.27 1.265-.568 1.877-.894h3.645a24.826 24.826 0 0 1-4.773 2.665ZM1.965 34.731A24.727 24.727 0 0 1 0 25c0-3.39.655-6.634 1.965-9.732.346-.819.735-1.619 1.166-2.397v4.736A22.848 22.848 0 0 0 1.923 25c0 2.645.431 5.192 1.294 7.642v4.64a25.172 25.172 0 0 1-1.252-2.55Z" fill="#EA5455"/></g><defs><clipPath id="a"><path fill="#fff" d="M0 0h50v50H0z"/></clipPath></defs></svg>