<svg width="38" height="38" viewBox="0 0 38 38" fill="none" xmlns="http://www.w3.org/2000/svg"><path d="M12.16 2.28c-5.448 0-9.88 4.433-9.88 9.88v13.68c0 5.447 4.432 9.88 9.88 9.88h13.68c5.447 0 9.88-4.433 9.88-9.88V12.16c0-5.447-4.433-9.88-9.88-9.88H12.16Zm0 1.52h13.68a8.349 8.349 0 0 1 8.36 8.36v13.68a8.349 8.349 0 0 1-8.36 8.36H12.16a8.349 8.349 0 0 1-8.36-8.36V12.16a8.349 8.349 0 0 1 8.36-8.36Zm15.96 4.56a1.52 1.52 0 1 0 0 3.04 1.52 1.52 0 0 0 0-3.04ZM19 10.64c-4.608 0-8.36 3.752-8.36 8.36s3.752 8.36 8.36 8.36 8.36-3.752 8.36-8.36-3.752-8.36-8.36-8.36Zm0 1.52A6.829 6.829 0 0 1 25.84 19 6.828 6.828 0 0 1 19 25.84 6.828 6.828 0 0 1 12.16 19 6.829 6.829 0 0 1 19 12.16Z" fill="#fff"/></svg>