<svg width="35" height="35" viewBox="0 0 35 35" fill="none" xmlns="http://www.w3.org/2000/svg"><g clip-path="url(#a)"><path d="M23.953 3.828c-4.186 0-7.59 3.404-7.59 7.59 0 .252.062.498.087.745-5.176-.495-9.754-2.99-12.863-6.804a.704.704 0 0 0-.604-.265.697.697 0 0 0-.555.353A7.53 7.53 0 0 0 1.4 9.253c0 1.682.601 3.221 1.531 4.485-.18-.08-.377-.123-.547-.22a.698.698 0 0 0-1.028.613v.088c0 2.578 1.334 4.818 3.303 6.19-.022-.002-.044.006-.065 0a.7.7 0 0 0-.788.897c.782 2.431 2.778 4.288 5.25 4.966a13.079 13.079 0 0 1-6.716 1.86 13.15 13.15 0 0 1-1.553-.088.698.698 0 0 0-.752.46.698.698 0 0 0 .293.83 20.188 20.188 0 0 0 10.937 3.216c6.533 0 11.657-2.729 15.094-6.628 3.437-3.9 5.228-8.963 5.228-13.694 0-.2-.016-.394-.022-.59 1.283-.982 2.428-2.133 3.325-3.479a.699.699 0 0 0-.046-.847.697.697 0 0 0-.829-.18c-.36.16-.782.177-1.159.306.498-.665.924-1.381 1.181-2.188a.701.701 0 0 0-1.028-.81c-1.195.709-2.518 1.206-3.916 1.51-1.356-1.269-3.141-2.122-5.14-2.122Zm0 1.4c1.785 0 3.399.763 4.528 1.969.17.175.418.249.656.197a14.34 14.34 0 0 0 2.625-.788 6.231 6.231 0 0 1-1.794 1.64.699.699 0 0 0 .46 1.313c.7-.084 1.323-.369 1.99-.546a13.291 13.291 0 0 1-1.968 1.75.698.698 0 0 0-.285.612c.011.284.022.566.022.853 0 4.375-1.679 9.125-4.878 12.753-3.2 3.629-7.897 6.169-14.044 6.169-2.791 0-5.427-.618-7.809-1.706 2.953-.227 5.677-1.272 7.875-2.997a.699.699 0 0 0-.416-1.247c-2.307-.041-4.24-1.384-5.271-3.281h.109a7.63 7.63 0 0 0 2.012-.263.702.702 0 0 0 .506-.694.703.703 0 0 0-.55-.662c-2.49-.503-4.358-2.532-4.79-5.053.705.243 1.427.435 2.21.46a.7.7 0 0 0 .415-1.291A6.198 6.198 0 0 1 2.8 9.253c0-.798.208-1.531.481-2.231 3.5 3.842 8.4 6.393 13.934 6.672a.7.7 0 0 0 .722-.853 6.244 6.244 0 0 1-.175-1.422 6.178 6.178 0 0 1 6.19-6.19Z" fill="#fff"/></g><defs><clipPath id="a"><path fill="#fff" d="M0 0h35v35H0z"/></clipPath></defs></svg>